SplineFontDB: 3.0
FontName: HM_FTXtitr_OutlineItalic
FullName: HM_FTXtitr_OutlineItalic
FamilyName: HM_FTXtitr_OutlineItalic
Weight: Outline
Copyright: Copyright (c) Hossein, 2013. All rights reserved.
Version: 0.1
ItalicAngle: 0
UnderlinePosition: -540
UnderlineWidth: 60
Ascent: 1638
Descent: 410
sfntRevision: 0x00010000
LayerCount: 2
Layer: 0 1 "Back"  1
Layer: 1 1 "Fore"  0
XUID: [1021 102 1371595031 6992056]
FSType: 0
OS2Version: 2
OS2_WeightWidthSlopeOnly: 0
OS2_UseTypoMetrics: 1
CreationTime: 1194658560
ModificationTime: 1360913164
PfmFamily: 17
TTFWeight: 400
TTFWidth: 5
LineGap: 0
VLineGap: 0
Panose: 2 0 5 3 8 0 0 2 0 3
OS2TypoAscent: 2100
OS2TypoAOffset: 0
OS2TypoDescent: -1000
OS2TypoDOffset: 0
OS2TypoLinegap: 0
OS2WinAscent: 2100
OS2WinAOffset: 0
OS2WinDescent: 1000
OS2WinDOffset: 0
HheadAscent: 2100
HheadAOffset: 0
HheadDescent: -1000
HheadDOffset: 0
OS2SubXSize: 1434
OS2SubYSize: 1331
OS2SubXOff: 0
OS2SubYOff: 293
OS2SupXSize: 1434
OS2SupYSize: 1331
OS2SupXOff: 0
OS2SupYOff: 928
OS2StrikeYSize: 102
OS2StrikeYPos: 512
OS2Vendor: 'pars'
OS2CodePages: 20000051.41000000
OS2UnicodeRanges: 00002003.80000000.00000008.00000000
Lookup: 4 0 1 "gsub_ligature_dfl_liga_arab_FAR_Lookup_01"  {"gsub_ligature_dfl_liga_arab_FAR_Lookup_01_Subtable_01"  } ['liga' ('arab' <'FAR ' > ) ]
Lookup: 4 0 1 "gsub_ligature_dfl_liga_arab_FAR_Lookup_02"  {"gsub_ligature_dfl_liga_arab_FAR_Lookup_02_Subtable_01"  } ['liga' ('arab' <'FAR ' > ) ]
Lookup: 3 0 0 "gsub_alternate_dfl_aalt_arab_FAR_Lookup_01"  {"gsub_alternate_dfl_aalt_arab_FAR_Lookup_01_Subtable_01"  } ['aalt' ('arab' <'FAR ' > ) ]
Lookup: 1 1 0 "gsub_single_rtl_fina_arab_FAR_Lookup_01"  {"gsub_single_rtl_fina_arab_FAR_Lookup_01_Subtable_01"  } ['fina' ('arab' <'FAR ' > ) ]
Lookup: 1 1 0 "gsub_single_rtl_init_arab_FAR_Lookup_01"  {"gsub_single_rtl_init_arab_FAR_Lookup_01_Subtable_01"  } ['init' ('arab' <'FAR ' > ) ]

StartChar: .notdef
Encoding: 65536 -1 0
Width: 1039
GlyphClass: 2
Flags: W
LayerCount: 2
Fore
SplineSet
647 299 m 0,0,1
 640 269 640 269 614.5 246.5 c 128,-1,2
 589 224 589 224 559 224 c 0,3,4
 531 224 531 224 516.5 246.5 c 128,-1,5
 502 269 502 269 509 299 c 0,6,7
 516 331 516 331 541 352.5 c 128,-1,8
 566 374 566 374 597 374 c 0,9,10
 625 374 625 374 639.5 352.5 c 128,-1,11
 654 331 654 331 647 299 c 0,0,1
859 780 m 0,12,13
 849 737 849 737 821 710 c 128,-1,14
 793 683 793 683 758 683 c 0,15,16
 728 683 728 683 715 701.5 c 128,-1,17
 702 720 702 720 708 749 c 0,18,19
 713 770 713 770 726 785 c 128,-1,20
 739 800 739 800 753 810.5 c 128,-1,21
 767 821 767 821 778 829 c 128,-1,22
 789 837 789 837 791 843 c 0,23,24
 796 863 796 863 780 875 c 128,-1,25
 764 887 764 887 737 887 c 0,26,27
 702 887 702 887 674.5 866 c 128,-1,28
 647 845 647 845 640 813 c 0,29,30
 636 795 636 795 639.5 769 c 128,-1,31
 643 743 643 743 649 718 c 128,-1,32
 655 693 655 693 661 673 c 128,-1,33
 667 653 667 653 667 648 c 0,34,35
 671 619 671 619 669 583.5 c 128,-1,36
 667 548 667 548 659 513 c 0,37,38
 654 492 654 492 647.5 470.5 c 128,-1,39
 641 449 641 449 633 424 c 1,40,-1
 597 424 l 1,41,-1
 601 442 l 1,42,-1
 612 472 l 1,43,44
 620 505 620 505 587 544 c 0,45,46
 534 609 534 609 528 620 c 0,47,48
 498 673 498 673 514 740 c 0,49,50
 523 781 523 781 545 815.5 c 128,-1,51
 567 850 567 850 596.5 875.5 c 128,-1,52
 626 901 626 901 661.5 915 c 128,-1,53
 697 929 697 929 733 929 c 0,54,55
 766 929 766 929 793 918.5 c 128,-1,56
 820 908 820 908 837 888.5 c 128,-1,57
 854 869 854 869 860.5 841.5 c 128,-1,58
 867 814 867 814 859 780 c 0,12,13
128 31 m 1,59,-1
 928 31 l 1,60,-1
 1180 1122 l 1,61,-1
 380 1122 l 1,62,-1
 128 31 l 1,59,-1
91 0 m 1,63,-1
 357 1154 l 1,64,-1
 1215 1154 l 1,65,-1
 948 0 l 1,66,-1
 91 0 l 1,63,-1
EndSplineSet
EndChar

StartChar: exclam
Encoding: 33 33 4
Width: 669
VWidth: 1639
GlyphClass: 2
Flags: W
LayerCount: 2
Fore
SplineSet
545 1291 m 1,0,1
 593 1296 593 1296 630 1289 c 0,2,3
 663 1283 663 1283 684 1268 c 0,4,5
 792 1190 792 1190 696 948 c 0,6,7
 682 913 682 913 658 859 c 0,8,9
 635 807 635 807 619 772 c 1,10,11
 592 709 592 709 565 658 c 0,12,13
 499 525 499 525 461 467 c 0,14,15
 426 416 426 416 409 412 c 1,16,17
 366 408 366 408 352 415 c 1,18,19
 340 425 340 425 328 466 c 0,20,21
 318 511 318 511 313 612 c 1,22,23
 305 894 305 894 332 1039 c 0,24,25
 336 1062 336 1062 341 1082 c 0,26,27
 368 1199 368 1199 460 1259 c 0,28,29
 501 1284 501 1284 545 1291 c 1,0,1
567 1243 m 1,30,31
 486 1231 486 1231 423 1149 c 0,32,33
 397 1114 397 1114 384 1079 c 0,34,35
 373 1046 373 1046 369 948 c 1,36,37
 360 806 360 806 366 677 c 0,38,39
 370 568 370 568 380 520 c 0,40,41
 383 501 383 501 390 484 c 0,42,43
 394 476 394 476 397 474 c 0,44,45
 404 474 404 474 428 511 c 0,46,47
 430 514 430 514 431 515 c 0,48,49
 468 571 468 571 510 659 c 1,50,51
 603 844 603 844 651 964 c 1,52,53
 690 1057 690 1057 691 1089 c 0,54,55
 691 1092 691 1092 691 1094 c 0,56,57
 692 1180 692 1180 628 1224 c 0,58,59
 625 1226 625 1226 623 1227 c 0,60,61
 592 1244 592 1244 567 1243 c 1,30,31
352 397 m 0,62,63
 474 414 474 414 521 330 c 0,64,65
 529 315 529 315 534 298 c 0,66,67
 544 258 544 258 529 192 c 0,68,69
 514 130 514 130 494 93 c 1,70,71
 445 12 445 12 360 -14 c 0,72,73
 344 -19 344 -19 329 -21 c 0,74,75
 200 -35 200 -35 152 31 c 1,76,77
 116 85 116 85 136 177 c 0,78,79
 160 287 160 287 224 343 c 1,80,81
 275 386 275 386 352 397 c 0,62,63
367 349 m 0,82,83
 292 341 292 341 229 272 c 0,84,85
 192 230 192 230 181 187 c 0,86,87
 164 115 164 115 219 61 c 0,88,89
 234 46 234 46 251 38 c 0,90,91
 282 23 282 23 298 25 c 0,92,93
 371 33 371 33 434 101 c 0,94,95
 472 144 472 144 483 187 c 0,96,97
 500 259 500 259 447 313 c 0,98,99
 432 327 432 327 417 335 c 0,100,101
 389 350 389 350 367 349 c 0,82,83
EndSplineSet
EndChar

StartChar: percent
Encoding: 37 37 8
Width: 1167
VWidth: 1639
GlyphClass: 2
Flags: W
LayerCount: 2
Fore
SplineSet
212 -143 m 1,0,1
 222 -116 222 -116 277 -28 c 1,2,3
 319 44 319 44 396 184 c 0,4,5
 465 306 465 306 603 549 c 0,6,7
 742 792 742 792 810 913 c 0,8,9
 972 1198 972 1198 972 1199 c 1,10,11
 981 1214 981 1214 997 1243 c 0,12,13
 1014 1273 1014 1273 1023 1287 c 0,14,15
 1041 1319 1041 1319 1043 1322 c 0,16,17
 1047 1325 1047 1325 1055.5 1326 c 128,-1,18
 1064 1327 1064 1327 1076 1326 c 2,19,-1
 1089 1325 l 1,20,-1
 1225 1325 l 1,21,-1
 1214 1302 l 1,22,-1
 1220 1302 l 1,23,-1
 1208 1279 l 1,24,-1
 1214 1279 l 1,25,26
 1206 1258 1206 1258 1150 1164 c 0,27,28
 1145 1156 1145 1156 1142 1150 c 0,29,30
 1065 1013 1065 1013 1000 900 c 0,31,32
 584 167 l 1,33,34
 556 115 556 115 496 13 c 0,35,36
 461 -47 461 -47 445 -77 c 0,37,38
 387 -179 387 -179 387 -180 c 0,39,40
 385 -185 385 -185 383 -189 c 1,41,-1
 201 -189 l 1,42,-1
 213 -166 l 1,43,-1
 207 -166 l 1,44,-1
 218 -143 l 1,45,-1
 212 -143 l 1,0,1
566 1284 m 0,46,47
 713 1302 713 1302 752 1204 c 0,48,49
 754 1200 754 1200 755 1197 c 0,50,51
 769 1154 769 1154 752 1081 c 0,52,53
 737 1016 737 1016 724 992 c 0,54,55
 683 912 683 912 601 879 c 0,56,57
 579 871 579 871 560 868 c 0,58,59
 413 848 413 848 367 936 c 0,60,61
 343 987 343 987 360 1068 c 0,62,63
 374 1128 374 1128 388 1155 c 0,64,65
 434 1248 434 1248 533 1277 c 0,66,67
 550 1282 550 1282 566 1284 c 0,46,47
1156 1279 m 1,68,-1
 1098 1279 l 1,69,-1
 1077 1278 l 1,70,-1
 1060 1253 l 1,71,-1
 1026 1191 l 1,72,-1
 895 959 l 1,73,-1
 471 215 l 1,74,-1
 330 -34 l 1,75,-1
 270 -143 l 1,76,-1
 351 -143 l 1,77,78
 358 -127 358 -127 413 -31 c 0,79,80
 430 -1 430 -1 464 58 c 0,81,82
 523 161 523 161 552 213 c 0,83,84
 688 454 688 454 958 928 c 0,85,86
 980 966 980 966 1022 1041 c 0,87,88
 1065 1117 1065 1117 1086 1155 c 0,89,90
 1093 1166 1093 1166 1108 1190 c 0,91,92
 1145 1250 1145 1250 1156 1279 c 1,68,-1
587 1237 m 0,93,94
 511 1227 511 1227 450 1156 c 0,95,96
 417 1117 417 1117 406 1076 c 0,97,98
 389 1004 389 1004 443 950 c 0,99,100
 458 935 458 935 474 927 c 0,101,102
 502 912 502 912 527 913 c 1,103,104
 600 923 600 923 662 993 c 0,105,106
 696 1033 696 1033 706 1074 c 0,107,108
 724 1146 724 1146 671 1201 c 0,109,110
 655 1217 655 1217 638 1225 c 0,111,112
 606 1238 606 1238 587 1237 c 0,93,94
886 259 m 1,113,114
 1021 276 1021 276 1064 183 c 0,115,116
 1067 177 1067 177 1069 172 c 0,117,118
 1084 127 1084 127 1068 56 c 0,119,120
 1054 -4 1054 -4 1040 -31 c 0,121,122
 995 -119 995 -119 903 -150 c 0,123,124
 884 -156 884 -156 866 -159 c 0,125,126
 730 -173 730 -173 682 -93 c 1,127,128
 656 -43 656 -43 677 48 c 0,129,130
 702 151 702 151 760 203 c 0,131,132
 811 248 811 248 886 259 c 1,113,114
904 212 m 0,133,134
 828 202 828 202 767 133 c 0,135,136
 731 92 731 92 721 49 c 0,137,138
 703 -27 703 -27 763 -80 c 0,139,140
 773 -89 773 -89 783 -95 c 0,141,142
 816 -115 816 -115 841 -112 c 0,143,144
 914 -104 914 -104 977 -33 c 0,145,146
 1012 8 1012 8 1022 49 c 0,147,148
 1039 121 1039 121 984 175 c 0,149,150
 969 190 969 190 953 198 c 0,151,152
 921 213 921 213 904 212 c 0,133,134
EndSplineSet
EndChar

StartChar: parenleft
Encoding: 40 40 11
Width: 711
VWidth: 1639
GlyphClass: 2
Flags: W
LayerCount: 2
Fore
SplineSet
811 1289 m 1,0,1
 883 1297 883 1297 900 1274 c 1,2,3
 916 1247 916 1247 890 1184 c 0,4,5
 883 1168 883 1168 830 1096 c 0,6,7
 826 1090 826 1090 824 1087 c 0,8,9
 717 921 717 921 689 866 c 0,10,11
 615 721 615 721 563 535 c 0,12,13
 484 246 484 246 494 15 c 0,14,15
 498 -59 498 -59 527 -192 c 1,16,17
 546 -267 546 -267 548 -290 c 0,18,19
 548 -298 548 -298 542 -325 c 0,20,21
 530 -378 530 -378 508 -389 c 0,22,23
 501 -392 501 -392 495 -394 c 0,24,25
 402 -418 402 -418 328 -325 c 0,26,27
 229 -202 229 -202 192 -48 c 0,28,29
 119 260 119 260 234 578 c 0,30,31
 251 625 251 625 271 669 c 0,32,33
 356 849 356 849 508 1027 c 0,34,35
 588 1122 588 1122 704 1222 c 0,36,37
 775 1282 775 1282 811 1289 c 1,0,1
831 1238 m 0,38,39
 814 1238 814 1238 758 1195 c 0,40,41
 753 1191 753 1191 751 1189 c 0,42,43
 649 1109 649 1109 542 984 c 0,44,45
 322 724 322 724 247 474 c 1,46,47
 176 227 176 227 258 -46 c 0,48,49
 300 -183 300 -183 390 -289 c 0,50,51
 422 -325 422 -325 441 -338 c 1,52,53
 463 -348 463 -348 465 -348 c 0,54,55
 501 -344 501 -344 485 -286 c 0,56,57
 481 -270 481 -270 481 -266 c 0,58,59
 476 -239 476 -239 465 -188 c 0,60,61
 442 -77 442 -77 440 -18 c 0,62,63
 434 175 434 175 497 444 c 0,64,65
 569 754 569 754 684 964 c 0,66,67
 727 1042 727 1042 819 1173 c 1,68,69
 847 1216 847 1216 848 1224 c 1,70,71
 847 1237 847 1237 831 1238 c 0,38,39
EndSplineSet
EndChar

StartChar: parenright
Encoding: 41 41 12
Width: 802
VWidth: 1639
GlyphClass: 2
Flags: W
LayerCount: 2
Fore
SplineSet
436 1289 m 1,0,1
 484 1292 484 1292 503 1286 c 0,2,3
 536 1272 536 1272 581 1207 c 0,4,5
 655 1100 655 1100 696 976 c 1,6,7
 749 810 749 810 748 663 c 0,8,9
 745 356 745 356 558 46 c 0,10,11
 501 -48 501 -48 434 -130 c 0,12,13
 333 -251 333 -251 211 -339 c 0,14,15
 139 -394 139 -394 105 -397 c 0,16,17
 37 -401 37 -401 22 -389 c 1,18,19
 8 -368 8 -368 21 -317 c 1,20,-1
 27 -292 l 2,21,22
 29 -288 29 -288 76 -221 c 0,23,24
 79 -217 79 -217 80 -215 c 0,25,26
 188 -51 188 -51 193 -41 c 0,27,28
 210 -12 210 -12 223 13 c 0,29,30
 349 261 349 261 401 574 c 0,31,32
 435 781 435 781 417 923 c 0,33,34
 410 982 410 982 388 1092 c 1,35,36
 369 1165 369 1165 369 1167 c 0,37,38
 368 1177 368 1177 368 1184 c 0,39,40
 372 1245 372 1245 397 1273 c 1,41,42
 409 1283 409 1283 436 1289 c 1,0,1
449 1238 m 1,43,44
 414 1232 414 1232 434 1168 c 0,45,46
 436 1161 436 1161 437 1158 c 0,47,48
 471 978 471 978 474 945 c 0,49,50
 476 925 476 925 476 907 c 0,51,52
 480 765 480 765 432 503 c 1,53,54
 369 175 369 175 233 -72 c 0,55,56
 203 -128 203 -128 96 -282 c 0,57,58
 63 -330 63 -330 70 -341 c 1,59,60
 76 -347 76 -347 86 -348 c 0,61,62
 109 -347 109 -347 175 -297 c 0,63,64
 291 -211 291 -211 383 -105 c 0,65,66
 554 92 554 92 637 320 c 0,67,68
 670 413 670 413 679 459 c 0,69,70
 721 689 721 689 642 932 c 0,71,72
 603 1054 603 1054 518 1174 c 0,73,74
 497 1203 497 1203 473 1225 c 1,75,76
 456 1237 456 1237 449 1238 c 1,43,44
EndSplineSet
EndChar

StartChar: plus
Encoding: 43 43 14
Width: 1044
VWidth: 1639
GlyphClass: 2
Flags: W
LayerCount: 2
Fore
SplineSet
668 1038 m 1,0,-1
 857 1038 l 1,1,-1
 753 585 l 1,2,-1
 1172 585 l 1,3,-1
 1125 382 l 1,4,-1
 706 382 l 1,5,-1
 601 -69 l 1,6,-1
 412 -69 l 1,7,-1
 516 382 l 1,8,-1
 96 382 l 1,9,-1
 142 585 l 1,10,-1
 563 585 l 1,11,-1
 668 1038 l 1,0,-1
804 992 m 1,12,-1
 700 992 l 1,13,-1
 596 540 l 1,14,-1
 175 540 l 1,15,-1
 149 428 l 1,16,-1
 570 428 l 1,17,-1
 466 -23 l 1,18,-1
 569 -23 l 1,19,-1
 673 428 l 1,20,-1
 1093 428 l 1,21,-1
 1119 540 l 1,22,-1
 699 540 l 1,23,-1
 804 992 l 1,12,-1
EndSplineSet
EndChar

StartChar: hyphen
Encoding: 45 45 16
AltUni2: 002212.ffffffff.0 0000ad.ffffffff.0
Width: 1124
VWidth: 1639
GlyphClass: 2
Flags: W
LayerCount: 2
Fore
SplineSet
227 510 m 1,0,-1
 1133 510 l 1,1,-1
 1086 308 l 1,2,-1
 180 308 l 1,3,-1
 227 510 l 1,0,-1
1080 464 m 1,4,-1
 259 464 l 1,5,-1
 234 354 l 1,6,-1
 1054 354 l 1,7,-1
 1080 464 l 1,4,-1
EndSplineSet
EndChar

StartChar: period
Encoding: 46 46 17
Width: 661
VWidth: 1639
GlyphClass: 2
Flags: W
LayerCount: 2
Fore
SplineSet
347 395 m 1,0,1
 470 412 470 412 518 326 c 0,2,3
 526 311 526 311 530 297 c 0,4,5
 540 260 540 260 524 192 c 0,6,7
 509 127 509 127 496 103 c 0,8,9
 452 19 452 19 364 -13 c 0,10,11
 344 -20 344 -20 325 -23 c 0,12,13
 190 -37 190 -37 142 38 c 1,14,15
 111 89 111 89 134 187 c 0,16,17
 157 282 157 282 207 330 c 1,18,19
 263 382 263 382 347 395 c 1,0,1
363 348 m 1,20,21
 290 341 290 341 227 272 c 0,22,23
 191 231 191 231 179 189 c 0,24,25
 159 118 159 118 212 62 c 0,26,27
 228 46 228 46 245 38 c 0,28,29
 272 21 272 21 293 23 c 0,30,31
 366 30 366 30 430 98 c 0,32,33
 466 138 466 138 477 180 c 0,34,35
 497 253 497 253 443 310 c 0,36,37
 427 326 427 326 411 335 c 0,38,39
 382 348 382 348 363 348 c 1,20,21
EndSplineSet
EndChar

StartChar: slash
Encoding: 47 47 18
Width: 687
VWidth: 1639
GlyphClass: 2
Flags: W
LayerCount: 2
Fore
SplineSet
801 1325 m 1,0,-1
 984 1325 l 1,1,-1
 971 1302 l 1,2,-1
 979 1302 l 1,3,-1
 966 1279 l 1,4,-1
 974 1279 l 1,5,6
 925 1197 925 1197 833 1032 c 0,7,8
 783 942 783 942 758 899 c 0,9,10
 559 552 559 552 364 205 c 0,11,12
 344 170 344 170 305 101 c 0,13,14
 236 -19 236 -19 203 -79 c 0,15,16
 196 -92 196 -92 181 -117 c 0,17,18
 166 -143 166 -143 159 -156 c 0,19,20
 140 -187 l 1,21,22
 135 -190 135 -190 92 -189 c 2,23,-1
 -41 -189 l 1,24,-1
 -29 -166 l 1,25,-1
 -36 -166 l 1,26,-1
 -24 -143 l 1,27,-1
 -30 -143 l 1,28,-1
 32 -33 l 1,29,-1
 182 233 l 1,30,-1
 590 953 l 1,31,-1
 731 1200 l 1,32,-1
 801 1325 l 1,0,-1
914 1279 m 1,33,-1
 833 1279 l 1,34,-1
 763 1155 l 1,35,-1
 622 907 l 1,36,-1
 214 187 l 1,37,-1
 95 -23 l 1,38,-1
 28 -143 l 1,39,-1
 86 -143 l 2,40,41
 105 -142 105 -142 107 -141 c 0,42,43
 114 -135 114 -135 122 -118 c 1,44,45
 147 -75 147 -75 158 -54 c 2,46,-1
 289 177 l 1,47,48
 369 321 369 321 534 608 c 0,49,50
 659 826 659 826 720 935 c 0,51,52
 742 974 742 974 786 1051 c 0,53,54
 830 1129 830 1129 852 1168 c 0,55,56
 858 1179 858 1179 873 1202 c 0,57,58
 905 1254 905 1254 914 1279 c 1,33,-1
EndSplineSet
EndChar

StartChar: colon
Encoding: 58 58 29
Width: 661
VWidth: 1639
GlyphClass: 2
Flags: W
LayerCount: 2
Fore
SplineSet
462 913 m 1,0,1
 601 927 601 927 644 831 c 1,2,3
 660 784 660 784 644 710 c 0,4,5
 629 645 629 645 616 622 c 0,6,7
 573 540 573 540 487 506 c 0,8,9
 464 498 464 498 442 495 c 0,10,11
 310 481 310 481 263 554 c 1,12,13
 232 609 232 609 254 707 c 0,14,15
 276 796 276 796 323 845 c 1,16,17
 380 899 380 899 462 913 c 1,0,1
480 866 m 0,18,19
 404 856 404 856 343 786 c 0,20,21
 310 748 310 748 299 708 c 0,22,23
 279 637 279 637 334 580 c 0,24,25
 347 567 347 567 359 559 c 0,26,27
 393 539 393 539 419 543 c 0,28,29
 494 553 494 553 554 622 c 0,30,31
 587 661 587 661 598 702 c 0,32,33
 617 778 617 778 558 833 c 0,34,35
 547 843 547 843 536 850 c 0,36,37
 508 868 508 868 480 866 c 0,18,19
347 395 m 1,38,39
 470 412 470 412 518 326 c 0,40,41
 526 311 526 311 530 297 c 0,42,43
 540 260 540 260 524 192 c 0,44,45
 509 127 509 127 496 103 c 0,46,47
 452 19 452 19 364 -13 c 0,48,49
 344 -20 344 -20 325 -23 c 0,50,51
 190 -37 190 -37 142 38 c 1,52,53
 111 89 111 89 134 187 c 0,54,55
 157 282 157 282 207 330 c 1,56,57
 263 382 263 382 347 395 c 1,38,39
363 348 m 1,58,59
 290 341 290 341 227 272 c 0,60,61
 191 231 191 231 179 189 c 0,62,63
 159 118 159 118 212 62 c 0,64,65
 228 46 228 46 245 38 c 0,66,67
 272 21 272 21 293 23 c 0,68,69
 366 30 366 30 430 98 c 0,70,71
 466 138 466 138 477 180 c 0,72,73
 497 253 497 253 443 310 c 0,74,75
 427 326 427 326 411 335 c 0,76,77
 382 348 382 348 363 348 c 1,58,59
EndSplineSet
EndChar

StartChar: equal
Encoding: 61 61 32
Width: 920
VWidth: 1639
GlyphClass: 2
Flags: W
LayerCount: 2
Fore
SplineSet
185 769 m 1,0,-1
 1091 769 l 1,1,-1
 1044 566 l 1,2,-1
 138 566 l 1,3,-1
 185 769 l 1,0,-1
1038 723 m 1,4,-1
 217 723 l 1,5,-1
 191 612 l 1,6,-1
 1012 612 l 1,7,-1
 1038 723 l 1,4,-1
104 420 m 1,8,-1
 1010 420 l 1,9,-1
 963 216 l 1,10,-1
 57 216 l 1,11,-1
 104 420 l 1,8,-1
957 374 m 1,12,-1
 136 374 l 1,13,-1
 111 262 l 1,14,-1
 931 262 l 1,15,-1
 957 374 l 1,12,-1
EndSplineSet
EndChar

StartChar: bracketleft
Encoding: 91 91 62
Width: 523
VWidth: 1639
GlyphClass: 2
Flags: W
LayerCount: 2
Fore
SplineSet
393 1307 m 1,0,-1
 734 1307 l 1,1,-1
 692 1125 l 1,2,-1
 526 1125 l 1,3,-1
 222 -192 l 1,4,-1
 388 -192 l 1,5,-1
 346 -376 l 1,6,-1
 4 -376 l 1,7,-1
 393 1307 l 1,0,-1
681 1261 m 1,8,-1
 425 1261 l 1,9,-1
 58 -330 l 1,10,-1
 314 -330 l 1,11,-1
 335 -238 l 1,12,-1
 169 -238 l 1,13,-1
 494 1171 l 1,14,-1
 660 1171 l 1,15,-1
 681 1261 l 1,8,-1
EndSplineSet
EndChar

StartChar: bracketright
Encoding: 93 93 64
Width: 614
VWidth: 1639
GlyphClass: 2
Flags: W
LayerCount: 2
Fore
SplineSet
393 1307 m 1,0,-1
 734 1307 l 1,1,-1
 346 -376 l 1,2,-1
 4 -376 l 1,3,-1
 46 -194 l 1,4,-1
 213 -194 l 1,5,-1
 517 1123 l 1,6,-1
 350 1123 l 1,7,-1
 393 1307 l 1,0,-1
681 1261 m 1,8,-1
 425 1261 l 1,9,-1
 404 1169 l 1,10,-1
 570 1169 l 1,11,-1
 245 -239 l 1,12,-1
 78 -239 l 1,13,-1
 58 -330 l 1,14,-1
 314 -330 l 1,15,-1
 681 1261 l 1,8,-1
EndSplineSet
EndChar

StartChar: guillemotleft
Encoding: 171 171 175
Width: 800
VWidth: 1639
GlyphClass: 2
Flags: W
LayerCount: 2
Fore
SplineSet
502 876 m 0,0,1
 542 887 542 887 567 874 c 0,2,3
 572 871 572 871 573 868 c 0,4,5
 580 854 580 854 563 805 c 1,6,7
 556 790 556 790 528 753 c 1,8,9
 482 684 482 684 468 654 c 0,10,11
 364 451 364 451 370 244 c 0,12,13
 371 208 371 208 386 136 c 0,14,15
 397 90 397 90 395 79 c 0,16,17
 394 75 394 75 393 72 c 0,18,19
 391 67 391 67 389 55 c 0,20,21
 382 21 382 21 367 15 c 0,22,23
 359 13 359 13 341 13 c 1,24,25
 315 10 315 10 303 13 c 0,26,27
 284 18 284 18 259 50 c 2,28,-1
 258 51 l 1,29,30
 209 116 209 116 189 200 c 0,31,32
 146 388 146 388 252 595 c 0,33,34
 296 681 296 681 359 751 c 0,35,36
 418 816 418 816 459 850 c 1,37,38
 491 873 491 873 502 876 c 0,0,1
743 876 m 1,39,40
 782 888 782 888 806 875 c 0,41,42
 811 872 811 872 813 869 c 0,43,44
 819 854 819 854 803 804 c 0,45,46
 801 800 801 800 773 761 c 0,47,48
 771 758 771 758 770 756 c 0,49,50
 723 686 723 686 704 649 c 0,51,52
 601 449 601 449 609 260 c 0,53,54
 609 249 609 249 610 239 c 0,55,56
 614 189 614 189 625 141 c 0,57,58
 637 91 637 91 633 74 c 0,59,60
 632 71 l 0,61,62
 631 67 631 67 629 57 c 0,63,64
 622 20 622 20 605 13 c 0,65,66
 605 11 605 11 593 12 c 2,67,-1
 582 13 l 1,68,69
 551 10 551 10 538 15 c 0,70,71
 517 23 517 23 492 59 c 0,72,73
 451 118 451 118 431 187 c 0,74,75
 380 360 380 360 482 572 c 0,76,77
 528 666 528 666 594 745 c 0,78,79
 637 795 637 795 691 841 c 0,80,81
 728 873 728 873 743 876 c 1,39,40
508 815 m 1,82,83
 467 789 467 789 399 713 c 2,84,-1
 397 712 l 1,85,86
 281 581 281 581 243 456 c 1,87,88
 201 310 201 310 271 163 c 0,89,90
 274 156 274 156 277 151 c 0,91,92
 311 91 311 91 336 71 c 1,93,94
 336 86 336 86 321 144 c 1,95,96
 313 189 313 189 317 251 c 0,97,98
 320 324 320 324 348 446 c 0,99,100
 381 588 381 588 422 674 c 0,101,102
 434 699 434 699 498 800 c 0,103,104
 504 808 504 808 508 815 c 1,82,83
745 813 m 1,105,106
 697 781 697 781 636 710 c 0,107,108
 512 571 512 571 480 444 c 1,109,110
 448 310 448 310 505 177 c 0,111,112
 540 97 540 97 578 69 c 1,113,114
 575 88 575 88 568 123 c 0,115,116
 556 182 556 182 555 213 c 0,117,118
 553 299 553 299 585 436 c 0,119,120
 615 567 615 567 652 654 c 0,121,122
 669 693 669 693 698 740 c 0,123,124
 704 750 704 750 717 768 c 0,125,126
 738 798 738 798 745 813 c 1,105,106
EndSplineSet
EndChar

StartChar: guillemotright
Encoding: 187 187 176
Width: 800
VWidth: 1639
GlyphClass: 2
Flags: W
LayerCount: 2
Fore
SplineSet
312 877 m 0,0,1
 350 884 350 884 376 876 c 0,2,3
 390 871 390 871 410 847 c 0,4,5
 442 811 442 811 468 746 c 0,6,7
 534 589 534 589 461 382 c 0,8,9
 417 258 417 258 334 161 c 0,10,11
 268 83 268 83 217 41 c 0,12,13
 181 13 181 13 166 11 c 0,14,15
 115 6 115 6 103 18 c 1,16,17
 95 32 95 32 113 87 c 0,18,19
 116 94 116 94 148 138 c 0,20,21
 151 142 151 142 152 144 c 0,22,23
 191 201 191 201 214 248 c 0,24,25
 318 453 318 453 305 661 c 0,26,27
 305 664 305 664 304 666 c 0,28,29
 302 686 302 686 289 751 c 0,30,31
 278 801 278 801 282 820 c 0,32,33
 292 862 292 862 299 869 c 0,34,35
 306 875 306 875 312 877 c 0,0,1
551 876 m 0,36,37
 659 900 659 900 717 723 c 0,38,39
 774 551 774 551 685 342 c 0,40,41
 636 230 636 230 557 141 c 0,42,43
 499 77 499 77 458 43 c 1,44,45
 419 14 419 14 407 11 c 0,46,47
 352 7 352 7 341 20 c 1,48,49
 334 34 334 34 352 85 c 1,50,51
 358 99 358 99 385 134 c 1,52,53
 431 204 431 204 445 231 c 0,54,55
 560 455 560 455 545 663 c 0,56,57
 543 688 543 688 530 749 c 0,58,59
 519 799 519 799 523 820 c 0,60,61
 524 824 524 824 525 833 c 0,62,63
 533 871 533 871 551 876 c 0,36,37
338 820 m 1,64,65
 337 813 337 813 342 795 c 2,66,-1
 353 746 l 1,67,68
 362 699 362 699 358 622 c 1,69,70
 350 515 350 515 313 387 c 1,71,72
 273 256 273 256 248 203 c 0,73,74
 241 190 241 190 173 84 c 0,75,76
 170 79 170 79 168 75 c 1,77,78
 216 106 216 106 291 194 c 1,79,80
 393 317 393 317 429 426 c 0,81,82
 445 478 445 478 444 544 c 0,83,84
 442 708 442 708 338 820 c 1,64,65
581 818 m 1,85,86
 579 811 579 811 583 795 c 0,87,88
 585 787 585 787 589 770 c 0,89,90
 593 752 593 752 594 745 c 0,91,92
 604 672 604 672 595 589 c 0,93,94
 567 366 567 366 487 203 c 0,95,96
 478 185 478 185 415 87 c 0,97,98
 411 80 411 80 408 75 c 1,99,100
 447 97 447 97 520 182 c 0,101,102
 523 185 523 185 525 187 c 0,103,104
 640 316 640 316 673 438 c 0,105,106
 683 475 683 475 683 540 c 0,107,108
 682 700 682 700 581 818 c 1,85,86
EndSplineSet
EndChar

StartChar: guilsinglleft
Encoding: 8249 8249 195
Width: 520
GlyphClass: 2
Flags: W
LayerCount: 2
Fore
SplineSet
340 70 m 1,0,1
 347 48 347 48 344 35 c 0,2,3
 342 26 342 26 331 26 c 0,4,5
 323 26 323 26 309 33 c 1,6,7
 269 73 269 73 241.5 128 c 128,-1,8
 214 183 214 183 201 255 c 0,9,10
 189 321 189 321 192.5 385 c 128,-1,11
 196 449 196 449 209 513 c 1,12,13
 242 656 242 656 331 783 c 1,14,15
 421 904 421 904 523 958 c 1,16,17
 551 969 551 969 555 969 c 0,18,19
 562 969 562 969 561 963 c 0,20,21
 559 953 559 953 528 912 c 1,22,23
 379 746 379 746 325 513 c 0,24,25
 264 249 264 249 340 70 c 1,0,1
EndSplineSet
EndChar

StartChar: guilsinglright
Encoding: 8250 8250 196
Width: 523
GlyphClass: 2
Flags: W
LayerCount: 2
Fore
SplineSet
121 70 m 1,0,1
 282 249 282 249 343 513 c 0,2,3
 398 751 398 751 322 913 c 1,4,5
 311 954 311 954 313 963 c 0,6,7
 314 969 314 969 322 969 c 0,8,9
 324 969 324 969 331 966.5 c 128,-1,10
 338 964 338 964 347 958 c 0,11,12
 388 931 388 931 415.5 887 c 128,-1,13
 443 843 443 843 459 783 c 0,14,15
 477 718 477 718 476 650.5 c 128,-1,16
 475 583 475 583 460 513 c 0,17,18
 445 450 445 450 415.5 385 c 128,-1,19
 386 320 386 320 344 255 c 0,20,21
 301 188 301 188 246.5 130 c 128,-1,22
 192 72 192 72 134 33 c 1,23,24
 119 26 119 26 109 26 c 0,25,26
 98 26 98 26 100 35 c 0,27,28
 103 47 103 47 121 70 c 1,0,1
EndSplineSet
EndChar

StartChar: afii57451
Encoding: 1611 1611 311
AltUni2: 00fe70.ffffffff.0
Width: -86
VWidth: 1639
GlyphClass: 2
Flags: HW
AnchorPoint: "GposMark2BaseAnchorHamzaErabAbove_01_01" 480.5 1346 mark 0
AnchorPoint: "GposMark2BaseAnchorHamzaErabBelow_01_01" 480.5 1799 mark 0
AnchorPoint: "GposMark2BaseAnchorClassErabAbove_01_02" 480.5 1346 mark 0
AnchorPoint: "GposMark2MarkAnchorHamzaErabAbove_01_01" 480.5 1346 mark 0
AnchorPoint: "GposMark2MarkAnchorHamzaErabBelow_01_01" 480.5 1799 mark 0
AnchorPoint: "GposMark2MarkAnchorShaddaErabAbove_01_02" 480.5 1346 mark 0
AnchorPoint: "GposMark2MarkAnchorShaddaErabBelow_01_02" 480.5 1799 mark 0
LayerCount: 2
Fore
SplineSet
664 1799 m 1,0,-1
 663 1788 l 1,1,-1
 687 1799 l 1,2,-1
 685 1788 l 1,3,-1
 709 1799 l 1,4,5
 706 1785 706 1785 700 1755 c 0,6,7
 688 1693 688 1693 678 1666 c 0,8,9
 676 1661 676 1661 659 1652 c 1,10,11
 651 1645 651 1645 649 1638 c 1,12,-1
 673 1650 l 1,13,-1
 650 1551 l 1,14,-1
 640 1514 l 1,15,-1
 612 1499 l 1,16,-1
 543 1466 l 1,17,-1
 294 1346 l 1,18,-1
 297 1358 l 1,19,-1
 273 1346 l 1,20,-1
 276 1358 l 1,21,-1
 252 1346 l 1,22,-1
 274 1442 l 1,23,-1
 285 1483 l 1,24,-1
 311 1496 l 1,25,-1
 312 1507 l 1,26,-1
 288 1497 l 1,27,-1
 310 1594 l 1,28,-1
 321 1633 l 1,29,-1
 347 1647 l 1,30,-1
 415 1679 l 1,31,-1
 664 1799 l 1,0,-1
650 1730 m 1,32,-1
 420 1620 l 1,33,-1
 372 1597 l 1,34,-1
 353 1588 l 1,35,-1
 347 1566 l 1,36,-1
 424 1602 l 1,37,-1
 578 1676 l 1,38,-1
 624 1697 l 1,39,-1
 643 1709 l 1,40,-1
 650 1730 l 1,32,-1
614 1581 m 1,41,42
 565 1561 565 1561 384 1471 c 0,43,44
 376 1467 376 1467 361 1460 c 0,45,46
 345 1452 345 1452 338 1448 c 0,47,48
 318 1437 318 1437 317 1437 c 0,49,50
 314 1432 314 1432 310 1415 c 1,51,-1
 539 1525 l 1,52,-1
 587 1548 l 1,53,-1
 607 1560 l 1,54,-1
 614 1581 l 1,41,42
332 1507 m 1,55,-1
 330 1506 l 1,56,-1
 332 1507 l 1,55,-1
328 1506 m 1,57,-1
 326 1504 l 1,58,-1
 328 1506 l 1,57,-1
325 1504 m 1,59,-1
 323 1502 l 1,60,-1
 325 1504 l 1,59,-1
321 1502 m 1,61,-1
 319 1501 l 1,62,-1
 321 1502 l 1,61,-1
318 1501 m 1,63,-1
 316 1499 l 1,64,-1
 318 1501 l 1,63,-1
314 1499 m 1,65,-1
 312 1497 l 1,66,-1
 314 1499 l 1,65,-1
EndSplineSet
EndChar

StartChar: afii57452
Encoding: 1612 1612 312
AltUni2: 00fe72.ffffffff.0
Width: -87
VWidth: 1639
GlyphClass: 2
Flags: HW
AnchorPoint: "GposMark2BaseAnchorHamzaErabAbove_01_01" 453.5 1346 mark 0
AnchorPoint: "GposMark2BaseAnchorHamzaErabBelow_01_01" 453.5 1765 mark 0
AnchorPoint: "GposMark2BaseAnchorClassErabAbove_01_02" 453.5 1346 mark 0
AnchorPoint: "GposMark2MarkAnchorHamzaErabAbove_01_01" 453.5 1346 mark 0
AnchorPoint: "GposMark2MarkAnchorHamzaErabBelow_01_01" 453.5 1765 mark 0
AnchorPoint: "GposMark2MarkAnchorShaddaErabAbove_01_02" 453.5 1346 mark 0
AnchorPoint: "GposMark2MarkAnchorShaddaErabBelow_01_02" 453.5 1765 mark 0
LayerCount: 2
Fore
SplineSet
404 1617 m 1,0,1
 424 1699 424 1699 468 1738 c 1,2,3
 500 1764 500 1764 558 1765 c 1,4,5
 631 1762 631 1762 652 1733 c 1,6,7
 670 1698 670 1698 652 1624 c 0,8,9
 640 1576 640 1576 628 1553 c 0,10,11
 594 1496 594 1496 521 1446 c 1,12,13
 404 1371 404 1371 283 1346 c 1,14,15
 279 1351 279 1351 262 1346 c 1,16,17
 258 1351 258 1351 240 1346 c 1,18,19
 242 1358 242 1358 245 1384 c 0,20,21
 248 1410 248 1410 250 1422 c 0,22,23
 252 1445 252 1445 259 1458 c 1,24,25
 264 1463 264 1463 294 1474 c 1,26,-1
 295 1476 l 1,27,28
 289 1476 289 1476 277 1477 c 0,29,30
 264 1478 264 1478 259 1478 c 0,31,32
 246 1476 246 1476 242 1479 c 0,33,34
 237 1485 237 1485 243 1510 c 0,35,36
 255 1569 255 1569 291 1597 c 1,37,38
 325 1621 325 1621 391 1618 c 0,39,40
 400 1617 400 1617 404 1617 c 1,0,1
295 1404 m 1,41,42
 333 1413 333 1413 378 1435 c 1,43,44
 506 1490 506 1490 567 1558 c 1,45,46
 602 1600 602 1600 609 1627 c 0,47,48
 621 1678 621 1678 579 1706 c 0,49,50
 568 1713 568 1713 557 1715 c 0,51,52
 525 1722 525 1722 486 1678 c 0,53,54
 458 1648 458 1648 447 1614 c 1,55,56
 439 1580 439 1580 470 1553 c 0,57,58
 477 1547 477 1547 483 1545 c 1,59,-1
 464 1530 l 1,60,-1
 478 1522 l 1,61,-1
 459 1507 l 1,62,-1
 472 1499 l 1,63,64
 440 1475 440 1475 410 1465 c 1,65,-1
 413 1474 l 1,66,-1
 388 1465 l 1,67,-1
 392 1474 l 1,68,-1
 367 1465 l 1,69,70
 387 1526 387 1526 375 1551 c 1,71,72
 363 1570 363 1570 350 1568 c 1,73,74
 338 1563 338 1563 324 1551 c 0,75,76
 311 1541 311 1541 303 1532 c 1,77,78
 307 1532 307 1532 317 1533 c 0,79,80
 347 1535 347 1535 355 1530 c 1,81,82
 366 1513 366 1513 352 1466 c 0,83,84
 346 1441 346 1441 344 1440 c 0,85,86
 341 1436 341 1436 312 1424 c 1,87,88
 297 1415 297 1415 295 1404 c 1,41,42
514 1688 m 0,89,90
 580 1696 580 1696 592 1673 c 0,91,92
 593 1670 593 1670 593.5 1666.5 c 128,-1,93
 594 1663 594 1663 594 1659 c 128,-1,94
 594 1655 594 1655 593.5 1652.5 c 128,-1,95
 593 1650 593 1650 591 1643 c 2,96,-1
 590 1637 l 2,97,98
 578 1585 578 1585 571 1576 c 0,99,100
 560 1563 560 1563 547 1560 c 1,101,102
 479 1551 479 1551 465 1573 c 1,103,104
 460 1585 460 1585 467 1615 c 0,105,106
 479 1666 479 1666 493 1678 c 0,107,108
 502 1685 502 1685 514 1688 c 0,89,90
531 1635 m 1,109,110
 519 1635 519 1635 518 1622 c 1,111,112
 520 1614 520 1614 526 1612 c 0,113,114
 536 1611 536 1611 538 1622 c 1,115,116
 538 1632 538 1632 531 1635 c 1,109,110
EndSplineSet
EndChar

StartChar: afii57453
Encoding: 1613 1613 313
AltUni2: 00fe74.ffffffff.0
Width: -87
VWidth: 1639
GlyphClass: 2
Flags: HW
AnchorPoint: "GposMark2BaseAnchorClassErabBelow_01_02" -162 -103 mark 0
LayerCount: 2
Fore
SplineSet
22 -103 m 1,0,-1
 21 -115 l 1,1,-1
 45 -103 l 1,2,-1
 42 -115 l 1,3,-1
 66 -103 l 1,4,5
 63 -117 63 -117 58 -147 c 0,6,7
 46 -209 46 -209 36 -236 c 0,8,9
 34 -241 34 -241 17 -250 c 1,10,11
 9 -257 9 -257 6 -264 c 1,12,-1
 30 -253 l 1,13,-1
 8 -351 l 1,14,-1
 -3 -389 l 1,15,-1
 -30 -403 l 1,16,-1
 -99 -436 l 1,17,-1
 -348 -556 l 1,18,-1
 -345 -544 l 1,19,-1
 -369 -556 l 1,20,-1
 -366 -544 l 1,21,-1
 -390 -556 l 1,22,-1
 -368 -461 l 1,23,-1
 -357 -420 l 1,24,-1
 -332 -407 l 1,25,-1
 -330 -395 l 1,26,-1
 -354 -405 l 1,27,-1
 -332 -308 l 1,28,-1
 -321 -269 l 1,29,-1
 -295 -256 l 1,30,-1
 -227 -223 l 1,31,-1
 22 -103 l 1,0,-1
8 -172 m 1,32,-1
 -222 -282 l 1,33,-1
 -270 -305 l 1,34,-1
 -289 -315 l 1,35,-1
 -295 -336 l 1,36,-1
 -219 -300 l 1,37,-1
 -64 -226 l 1,38,-1
 -18 -205 l 1,39,-1
 1 -194 l 1,40,-1
 8 -172 l 1,32,-1
-28 -321 m 1,41,42
 -77 -341 -77 -341 -258 -431 c 0,43,44
 -266 -435 -266 -435 -281 -443 c 0,45,46
 -297 -451 -297 -451 -304 -454 c 0,47,48
 -324 -465 -324 -465 -325 -466 c 0,49,50
 -328 -471 -328 -471 -332 -487 c 1,51,-1
 -104 -377 l 1,52,-1
 -56 -354 l 1,53,-1
 -35 -343 l 1,54,-1
 -28 -321 l 1,41,42
-311 -395 m 1,55,-1
 -313 -397 l 1,56,-1
 -311 -395 l 1,55,-1
-314 -397 m 1,57,-1
 -316 -399 l 1,58,-1
 -314 -397 l 1,57,-1
-317 -399 m 1,59,-1
 -319 -400 l 1,60,-1
 -317 -399 l 1,59,-1
-321 -400 m 1,61,-1
 -323 -402 l 1,62,-1
 -321 -400 l 1,61,-1
-324 -402 m 1,63,-1
 -326 -403 l 1,64,-1
 -324 -402 l 1,63,-1
-328 -403 m 1,65,-1
 -330 -405 l 1,66,-1
 -328 -403 l 1,65,-1
EndSplineSet
EndChar

StartChar: afii57454
Encoding: 1614 1614 314
AltUni2: 00fe76.ffffffff.0
Width: -79
VWidth: 1639
GlyphClass: 2
Flags: HW
AnchorPoint: "GposMark2BaseAnchorHamzaErabAbove_01_01" 436.5 1346 mark 0
AnchorPoint: "GposMark2BaseAnchorHamzaErabBelow_01_01" 436.5 1650 mark 0
AnchorPoint: "GposMark2BaseAnchorClassErabAbove_01_02" 436.5 1346 mark 0
AnchorPoint: "GposMark2MarkAnchorHamzaErabAbove_01_01" 436.5 1346 mark 0
AnchorPoint: "GposMark2MarkAnchorHamzaErabBelow_01_01" 436.5 1650 mark 0
AnchorPoint: "GposMark2MarkAnchorShaddaErabAbove_01_02" 436.5 1346 mark 0
AnchorPoint: "GposMark2MarkAnchorShaddaErabBelow_01_02" 436.5 1650 mark 0
LayerCount: 2
Fore
SplineSet
603 1650 m 1,0,-1
 602 1638 l 1,1,-1
 626 1650 l 1,2,-1
 623 1638 l 1,3,-1
 647 1650 l 1,4,-1
 624 1551 l 1,5,-1
 614 1514 l 1,6,-1
 586 1499 l 1,7,-1
 518 1466 l 1,8,-1
 269 1346 l 1,9,-1
 272 1358 l 1,10,-1
 248 1346 l 1,11,-1
 250 1358 l 1,12,-1
 226 1346 l 1,13,-1
 249 1445 l 1,14,-1
 259 1483 l 1,15,-1
 287 1497 l 1,16,-1
 354 1530 l 1,17,-1
 603 1650 l 1,0,-1
588 1581 m 1,18,19
 539 1561 539 1561 359 1471 c 0,20,21
 351 1467 351 1467 335 1460 c 0,22,23
 319 1452 319 1452 312 1448 c 0,24,25
 292 1437 292 1437 291 1437 c 0,26,27
 288 1432 288 1432 285 1415 c 1,28,-1
 513 1525 l 1,29,-1
 561 1548 l 1,30,-1
 582 1560 l 1,31,-1
 588 1581 l 1,18,19
EndSplineSet
EndChar

StartChar: afii57455
Encoding: 1615 1615 315
AltUni2: 00fe78.ffffffff.0
Width: -109
VWidth: 1639
GlyphClass: 2
Flags: HW
AnchorPoint: "GposMark2BaseAnchorHamzaErabAbove_01_01" 397 1346 mark 0
AnchorPoint: "GposMark2BaseAnchorHamzaErabBelow_01_01" 397 1765 mark 0
AnchorPoint: "GposMark2BaseAnchorClassErabAbove_01_02" 397 1346 mark 0
AnchorPoint: "GposMark2MarkAnchorHamzaErabAbove_01_01" 397 1346 mark 0
AnchorPoint: "GposMark2MarkAnchorHamzaErabBelow_01_01" 397 1765 mark 0
AnchorPoint: "GposMark2MarkAnchorShaddaErabAbove_01_02" 397 1346 mark 0
AnchorPoint: "GposMark2MarkAnchorShaddaErabBelow_01_02" 397 1765 mark 0
LayerCount: 2
Fore
SplineSet
343 1515 m 1,0,1
 327 1550 327 1550 342 1614 c 0,2,3
 366 1711 366 1711 416 1745 c 1,4,5
 450 1765 450 1765 515 1765 c 0,6,7
 561 1764 561 1764 584 1743 c 0,8,9
 612 1716 612 1716 596 1640 c 0,10,11
 595 1638 595 1638 594 1633 c 0,12,13
 591 1621 591 1621 591 1615 c 0,14,15
 567 1496 567 1496 395 1408 c 0,16,17
 375 1398 375 1398 352 1387 c 0,18,19
 269 1348 269 1348 231 1346 c 0,20,21
 226 1346 226 1346 214.5 1347 c 128,-1,22
 203 1348 203 1348 198 1348 c 2,23,-1
 184 1348 l 1,24,25
 182 1351 182 1351 184 1373 c 0,26,27
 188 1412 188 1412 196 1438 c 1,28,-1
 200 1456 l 1,29,30
 204 1460 204 1460 240 1471 c 0,31,32
 259 1477 259 1477 296 1495 c 0,33,34
 328 1509 328 1509 343 1515 c 1,0,1
236 1401 m 1,35,36
 261 1407 261 1407 323 1435 c 0,37,38
 443 1488 443 1488 507 1556 c 1,39,40
 542 1598 542 1598 549 1627 c 0,41,42
 562 1677 562 1677 520 1707 c 0,43,44
 511 1713 511 1713 503 1715 c 0,45,46
 470 1725 470 1725 425 1679 c 0,47,48
 420 1674 420 1674 417 1670 c 0,49,50
 368 1607 368 1607 397 1561 c 0,51,52
 406 1548 406 1548 419 1540 c 1,53,-1
 402 1525 l 1,54,-1
 414 1517 l 1,55,-1
 397 1502 l 1,56,-1
 409 1494 l 1,57,58
 338 1446 338 1446 276 1427 c 0,59,60
 245 1417 245 1417 242 1413 c 0,61,62
 237 1407 237 1407 236 1401 c 1,35,36
459 1686 m 1,63,64
 524 1690 524 1690 533 1671 c 0,65,66
 534 1668 534 1668 535 1664.5 c 128,-1,67
 536 1661 536 1661 535.5 1655.5 c 128,-1,68
 535 1650 535 1650 534.5 1648.5 c 128,-1,69
 534 1647 534 1647 532 1639 c 2,70,-1
 530 1632 l 2,71,72
 518 1581 518 1581 512 1572 c 0,73,74
 501 1561 501 1561 488 1558 c 0,75,76
 421 1549 421 1549 405 1571 c 1,77,78
 401 1581 401 1581 409 1614 c 0,79,80
 421 1664 421 1664 434 1675 c 0,81,82
 445 1683 445 1683 459 1686 c 1,63,64
471 1632 m 0,83,84
 459 1631 459 1631 460 1618 c 1,85,86
 463 1610 463 1610 469 1610 c 0,87,88
 482 1612 482 1612 479 1626 c 1,89,90
 476 1632 476 1632 471 1632 c 0,83,84
EndSplineSet
EndChar

StartChar: afii57456
Encoding: 1616 1616 316
AltUni2: 00fe7a.ffffffff.0
Width: -81
VWidth: 1639
GlyphClass: 2
Flags: HW
AnchorPoint: "GposMark2BaseAnchorClassErabBelow_01_02" -140.5 -103 mark 0
LayerCount: 2
Fore
SplineSet
26 -103 m 1,0,-1
 25 -115 l 1,1,-1
 49 -103 l 1,2,-1
 46 -115 l 1,3,-1
 70 -103 l 1,4,-1
 48 -202 l 1,5,-1
 37 -241 l 1,6,-1
 11 -254 l 1,7,-1
 -57 -287 l 1,8,-1
 -308 -407 l 1,9,-1
 -305 -395 l 1,10,-1
 -329 -407 l 1,11,-1
 -327 -395 l 1,12,-1
 -351 -407 l 1,13,-1
 -328 -308 l 1,14,-1
 -318 -271 l 1,15,-1
 -290 -256 l 1,16,-1
 -221 -223 l 1,17,-1
 26 -103 l 1,0,-1
12 -172 m 1,18,-1
 -217 -282 l 1,19,-1
 -265 -305 l 1,20,-1
 -285 -317 l 1,21,-1
 -292 -338 l 1,22,-1
 -62 -228 l 1,23,-1
 -14 -205 l 1,24,-1
 5 -195 l 1,25,-1
 12 -172 l 1,18,-1
EndSplineSet
EndChar

StartChar: afii57457
Encoding: 1617 1617 317
AltUni2: 00fe7c.ffffffff.0
Width: 3
VWidth: 1639
GlyphClass: 2
Flags: HW
AnchorPoint: "GposMark2BaseAnchorHamzaErabAbove_01_01" 498.5 1346 mark 0
AnchorPoint: "GposMark2BaseAnchorHamzaErabBelow_01_01" 498.5 1699 mark 0
AnchorPoint: "GposMark2BaseAnchorClassErabAbove_01_02" 498.5 1346 mark 0
AnchorPoint: "GposMark2MarkAnchorHamzaErabAbove_01_01" 498.5 1346 mark 0
AnchorPoint: "GposMark2MarkAnchorHamzaErabBelow_01_01" 498.5 1699 mark 0
AnchorPoint: "GposMark2MarkAnchorShaddaErabAbove_01_02" 498.5 1849 basemark 0
AnchorPoint: "GposMark2MarkAnchorShaddaErabBelow_01_02" 498.5 1196 basemark 0
LayerCount: 2
Fore
SplineSet
678 1699 m 1,0,-1
 678 1692 l 1,1,-1
 701 1699 l 1,2,-1
 700 1692 l 1,3,-1
 723 1699 l 1,4,5
 690 1554 690 1554 663 1500 c 0,6,7
 660 1494 660 1494 658 1491 c 0,8,9
 622 1429 622 1429 581 1410 c 1,10,11
 566 1405 566 1405 531 1405 c 0,12,13
 495 1405 495 1405 486 1409 c 1,14,15
 438 1348 438 1348 356 1346 c 1,16,17
 306 1347 306 1347 291 1371 c 0,18,19
 274 1403 274 1403 297 1496 c 0,20,21
 300 1507 300 1507 301 1512 c 0,22,23
 307 1538 307 1538 324 1583 c 1,24,25
 336 1606 336 1606 337 1607 c 0,26,27
 340 1609 340 1609 369 1614 c 0,28,29
 384 1616 384 1616 412 1617 c 0,30,31
 441 1619 441 1619 454 1620 c 1,32,-1
 442 1596 l 1,33,-1
 449 1597 l 1,34,-1
 437 1573 l 1,35,-1
 443 1571 l 1,36,-1
 444 1571 l 1,37,-1
 470 1643 l 1,38,-1
 552 1668 l 1,39,-1
 551 1661 l 1,40,-1
 574 1668 l 1,41,-1
 572 1661 l 1,42,-1
 595 1668 l 1,43,-1
 575 1581 l 1,44,45
 585 1591 585 1591 597 1643 c 0,46,47
 599 1652 599 1652 601 1656 c 0,48,49
 606 1672 606 1672 607 1674 c 0,50,51
 611 1678 611 1678 627 1683 c 0,52,53
 635 1686 635 1686 653 1691 c 0,54,55
 670 1696 670 1696 678 1699 c 1,0,-1
664 1638 m 1,56,57
 643 1632 643 1632 639 1629 c 1,58,59
 636 1624 636 1624 633 1609 c 0,60,61
 630 1601 630 1601 626 1583 c 0,62,63
 616 1543 616 1543 603 1527 c 1,64,65
 584 1512 584 1512 546 1514 c 0,66,67
 527 1516 527 1516 524 1520 c 1,68,69
 520 1544 520 1544 537 1607 c 1,70,-1
 502 1597 l 1,71,72
 471 1505 471 1505 455 1482 c 0,73,74
 448 1472 448 1472 442 1466 c 0,75,76
 430 1456 430 1456 425 1455 c 0,77,78
 425 1453 425 1453 417 1454 c 2,79,-1
 408 1455 l 1,80,81
 372 1455 372 1455 374 1454 c 1,82,83
 366 1459 366 1459 364 1466 c 0,84,85
 363 1475 363 1475 368 1499 c 0,86,87
 370 1510 370 1510 377 1532 c 0,88,89
 383 1555 383 1555 385 1565 c 1,90,91
 364 1564 364 1564 351 1526 c 0,92,93
 348 1518 348 1518 348 1515 c 0,94,95
 332 1465 332 1465 339 1432 c 1,96,97
 353 1384 353 1384 395 1402 c 0,98,99
 400 1404 400 1404 403 1405 c 0,100,101
 420 1417 420 1417 435 1432 c 0,102,103
 458 1458 458 1458 468 1476 c 1,104,-1
 482 1463 l 1,105,-1
 490 1476 l 1,106,-1
 503 1463 l 1,107,-1
 511 1476 l 1,108,109
 513 1474 513 1474 518 1469 c 0,110,111
 530 1457 530 1457 538 1455 c 0,112,113
 562 1454 562 1454 593 1489 c 0,114,115
 643 1548 643 1548 664 1638 c 1,56,57
443 1569 m 1,116,-1
 423 1530 l 1,117,-1
 424 1530 l 1,118,-1
 443 1569 l 1,116,-1
EndSplineSet
EndChar

StartChar: afii57458
Encoding: 1618 1618 318
AltUni2: 00fe7e.ffffffff.0
Width: -54
VWidth: 1639
GlyphClass: 2
Flags: HW
AnchorPoint: "GposMark2BaseAnchorHamzaErabAbove_01_01" 436 1343 mark 0
AnchorPoint: "GposMark2BaseAnchorHamzaErabBelow_01_01" 436 1714 mark 0
AnchorPoint: "GposMark2BaseAnchorClassErabAbove_01_02" 436 1343 mark 0
AnchorPoint: "GposMark2MarkAnchorHamzaErabAbove_01_01" 436 1343 mark 0
AnchorPoint: "GposMark2MarkAnchorHamzaErabBelow_01_01" 436 1714 mark 0
AnchorPoint: "GposMark2MarkAnchorShaddaErabAbove_01_02" 436 1343 mark 0
AnchorPoint: "GposMark2MarkAnchorShaddaErabBelow_01_02" 436 1714 mark 0
LayerCount: 2
Fore
SplineSet
450 1702 m 0,0,1
 578 1714 578 1714 601 1616 c 0,2,3
 601 1614 601 1614 601 1612 c 0,4,5
 605 1588 605 1588 589 1519 c 0,6,7
 557 1390 557 1390 475 1355 c 0,8,9
 460 1350 460 1350 433 1346 c 0,10,11
 380 1343 380 1343 356 1350 c 0,12,13
 344 1352 344 1352 327 1361 c 1,14,15
 267 1402 267 1402 318 1540 c 0,16,17
 347 1616 347 1616 390 1666 c 0,18,19
 420 1699 420 1699 450 1702 c 0,0,1
370 1540 m 1,20,21
 348 1486 348 1486 347 1474 c 0,22,23
 347 1470 347 1470 347 1466 c 0,24,25
 348 1446 348 1446 359 1428 c 0,26,27
 382 1397 382 1397 414 1394 c 1,28,29
 469 1392 469 1392 520 1467 c 0,30,31
 530 1482 530 1482 536 1496 c 0,32,33
 571 1572 571 1572 517 1624 c 0,34,35
 514 1627 514 1627 512 1629 c 0,36,37
 483 1653 483 1653 468 1653 c 0,38,39
 446 1653 446 1653 419 1617 c 0,40,41
 415 1611 415 1611 413 1607 c 1,42,43
 455 1613 455 1613 480 1607 c 0,44,45
 523 1596 523 1596 535 1558 c 0,46,47
 537 1552 537 1552 537 1547 c 0,48,49
 537 1539 537 1539 532 1517 c 1,50,51
 526 1480 526 1480 515 1469 c 1,52,53
 497 1456 497 1456 471 1456 c 0,54,55
 402 1456 402 1456 398 1457 c 0,56,57
 374 1463 374 1463 364 1478 c 1,58,59
 359 1493 359 1493 371 1540 c 1,60,-1
 370 1540 l 1,20,21
481 1512 m 1,61,62
 479 1536 479 1536 454 1550 c 1,63,64
 431 1560 431 1560 418 1538 c 1,65,66
 412 1524 412 1524 425 1514 c 0,67,68
 447 1497 447 1497 481 1512 c 1,61,62
EndSplineSet
EndChar

StartChar: uni0654
Encoding: 1620 1620 320
Width: 38
VWidth: 1639
GlyphClass: 2
Flags: HW
AnchorPoint: "GposMark2BaseAnchorClassErabAbove_01_02" 501.5 1346 mark 0
AnchorPoint: "GposMark2MarkAnchorHamzaErabAbove_01_01" 501.5 1994 basemark 0
AnchorPoint: "GposMark2MarkAnchorHamzaErabBelow_01_01" 501.5 1196 basemark 0
LayerCount: 2
Fore
SplineSet
366 1519 m 1,0,1
 355 1560 355 1560 355 1563 c 0,2,3
 355 1660 355 1660 436 1756 c 0,4,5
 440 1761 440 1761 443 1765 c 0,6,7
 489 1817 489 1817 536 1827 c 1,8,9
 635 1844 635 1844 680 1794 c 0,10,11
 698 1772 698 1772 700 1743 c 0,12,13
 701 1732 701 1732 694 1702 c 0,14,15
 687 1675 687 1675 680 1661 c 1,16,-1
 702 1668 l 1,17,-1
 701 1661 l 1,18,-1
 724 1668 l 1,19,20
 687 1548 687 1548 687 1547 c 0,21,22
 672 1507 672 1507 669 1504 c 0,23,24
 666 1502 666 1502 639 1492 c 0,25,26
 586 1475 586 1475 561 1466 c 0,27,28
 501 1443 501 1443 329 1350 c 0,29,30
 325 1348 325 1348 322 1346 c 1,31,-1
 327 1363 l 1,32,-1
 300 1346 l 1,33,-1
 306 1363 l 1,34,-1
 279 1346 l 1,35,36
 287 1379 287 1379 304 1440 c 0,37,38
 313 1477 313 1477 317 1484 c 0,39,40
 333 1506 333 1506 366 1519 c 1,0,1
644 1717 m 1,41,42
 638 1735 638 1735 621 1752 c 0,43,44
 589 1781 589 1781 564 1779 c 1,45,46
 501 1771 501 1771 435 1667 c 0,47,48
 432 1662 432 1662 431 1660 c 0,49,50
 409 1618 409 1618 408 1607 c 0,51,52
 408 1569 408 1569 453 1545 c 1,53,-1
 427 1532 l 1,54,-1
 448 1524 l 1,55,-1
 448 1522 l 1,56,-1
 422 1509 l 1,57,-1
 443 1501 l 1,58,-1
 442 1499 l 1,59,60
 419 1492 419 1492 370 1455 c 0,61,62
 349 1439 349 1439 344 1425 c 1,63,-1
 533 1514 l 1,64,-1
 605 1538 l 1,65,-1
 635 1548 l 1,66,-1
 644 1565 l 1,67,-1
 657 1604 l 1,68,69
 647 1601 647 1601 627 1593 c 0,70,71
 583 1577 583 1577 562 1574 c 0,72,73
 562 1572 562 1572 539 1574 c 2,74,-1
 516 1574 l 2,75,76
 474 1575 474 1575 460 1589 c 1,77,78
 452 1601 452 1601 458 1627 c 0,79,80
 469 1681 469 1681 496 1697 c 0,81,82
 555 1734 555 1734 644 1717 c 1,41,42
663 1663 m 1,83,84
 659 1664 659 1664 624 1663 c 0,85,86
 617 1664 617 1664 604 1666 c 0,87,88
 572 1671 572 1671 549 1663 c 0,89,90
 516 1649 516 1649 513 1638 c 1,91,92
 512 1623 512 1623 540 1623 c 0,93,94
 543 1623 543 1623 544 1624 c 0,95,96
 552 1626 552 1626 620 1648 c 1,97,98
 654 1657 654 1657 663 1663 c 1,83,84
680 1661 m 1,99,-1
 678 1660 l 1,100,-1
 680 1661 l 1,99,-1
701 1661 m 1,101,-1
 699 1660 l 1,102,-1
 701 1661 l 1,101,-1
EndSplineSet
EndChar

StartChar: uni0655
Encoding: 1621 1621 321
Width: 38
VWidth: 1639
GlyphClass: 2
Flags: HW
AnchorPoint: "GposMark2BaseAnchorClassErabBelow_01_02" -144.5 -88 mark 0
LayerCount: 2
Fore
SplineSet
-280 -413 m 1,0,1
 -291 -372 -291 -372 -291 -369 c 0,2,3
 -291 -272 -291 -272 -211 -176 c 0,4,5
 -207 -171 -207 -171 -204 -167 c 0,6,7
 -158 -115 -158 -115 -110 -105 c 1,8,9
 -11 -88 -11 -88 34 -138 c 0,10,11
 52 -160 52 -160 54 -189 c 0,12,13
 55 -200 55 -200 47 -230 c 0,14,15
 40 -257 40 -257 33 -271 c 1,16,-1
 56 -264 l 1,17,-1
 55 -271 l 1,18,-1
 78 -264 l 1,19,20
 41 -384 41 -384 40 -385 c 0,21,22
 25 -425 25 -425 23 -428 c 0,23,24
 20 -430 20 -430 -7 -440 c 0,25,26
 -60 -457 -60 -457 -85 -466 c 0,27,28
 -145 -489 -145 -489 -318 -582 c 0,29,30
 -322 -584 -322 -584 -325 -585 c 1,31,-1
 -319 -569 l 1,32,-1
 -346 -585 l 1,33,-1
 -341 -569 l 1,34,-1
 -367 -585 l 1,35,36
 -359 -552 -359 -552 -343 -492 c 0,37,38
 -334 -455 -334 -455 -329 -448 c 0,39,40
 -313 -426 -313 -426 -280 -413 c 1,0,1
-3 -215 m 1,41,42
 -9 -197 -9 -197 -25 -180 c 0,43,44
 -57 -151 -57 -151 -83 -153 c 1,45,46
 -146 -161 -146 -161 -211 -265 c 0,47,48
 -214 -270 -214 -270 -216 -272 c 0,49,50
 -238 -314 -238 -314 -238 -325 c 0,51,52
 -238 -363 -238 -363 -193 -387 c 1,53,-1
 -219 -400 l 1,54,-1
 -198 -408 l 1,55,-1
 -199 -410 l 1,56,-1
 -224 -423 l 1,57,-1
 -204 -431 l 1,58,-1
 -204 -433 l 1,59,60
 -227 -440 -227 -440 -277 -477 c 0,61,62
 -298 -493 -298 -493 -302 -507 c 1,63,-1
 -114 -418 l 1,64,-1
 -41 -394 l 1,65,-1
 -11 -384 l 1,66,-1
 -3 -367 l 1,67,-1
 11 -328 l 1,68,69
 1 -331 1 -331 -19 -338 c 0,70,71
 -62 -354 -62 -354 -84 -358 c 0,72,73
 -84 -360 -84 -360 -107 -358 c 2,74,-1
 -130 -358 l 2,75,76
 -172 -357 -172 -357 -186 -343 c 1,77,78
 -194 -331 -194 -331 -188 -305 c 0,79,80
 -177 -251 -177 -251 -150 -235 c 0,81,82
 -92 -198 -92 -198 -3 -215 c 1,41,42
17 -269 m 1,83,84
 13 -268 13 -268 -23 -269 c 0,85,86
 -30 -268 -30 -268 -42 -266 c 0,87,88
 -74 -261 -74 -261 -97 -269 c 0,89,90
 -130 -283 -130 -283 -134 -294 c 1,91,92
 -135 -309 -135 -309 -106 -309 c 0,93,94
 -103 -309 -103 -309 -102 -308 c 0,95,96
 -94 -306 -94 -306 -26 -284 c 1,97,98
 8 -275 8 -275 17 -269 c 1,83,84
33 -271 m 1,99,-1
 31 -272 l 1,100,-1
 33 -271 l 1,99,-1
55 -271 m 1,101,-1
 53 -272 l 1,102,-1
 55 -271 l 1,101,-1
EndSplineSet
EndChar

StartChar: uni0656
Encoding: 1622 1622 322
Width: 107
VWidth: 1639
GlyphClass: 2
Flags: HW
AnchorPoint: "GposMark2BaseAnchorClassErabBelow_01_02" -60 -98 mark 0
LayerCount: 2
Fore
SplineSet
-151 -213 m 1,0,1
 -126 -197 -126 -197 -80 -162 c 0,2,3
 -48 -138 -48 -138 -32 -128 c 0,4,5
 0 -104 0 -104 6 -109 c 0,6,7
 8 -112 8 -112 9 -113 c 1,8,9
 26 -106 26 -106 31 -113 c 1,10,11
 54 -98 54 -98 51 -135 c 0,12,13
 48 -202 48 -202 40 -238 c 0,14,15
 4 -415 l 1,16,17
 -16 -501 -16 -501 -40 -543 c 1,18,19
 -75 -600 -75 -600 -100 -612 c 0,20,21
 -104 -613 -104 -613 -136 -612 c 0,22,23
 -139 -611 -139 -611 -146 -612 c 0,24,25
 -157 -611 -157 -611 -161 -607 c 0,26,27
 -174 -590 -174 -590 -171 -508 c 0,28,29
 -171 -505 -171 -505 -171 -503 c 0,30,31
 -170 -483 -170 -483 -169 -444 c 0,32,33
 -168 -403 -168 -403 -168 -384 c 0,34,35
 -164 -278 -164 -278 -162 -266 c 0,36,37
 -161 -256 -161 -256 -156 -236 c 0,38,39
 -152 -221 -152 -221 -151 -213 c 1,0,1
-2 -175 m 1,40,41
 -5 -177 -5 -177 -81 -231 c 0,42,43
 -84 -233 -84 -233 -91 -239 c 0,44,45
 -106 -250 -106 -250 -109 -254 c 0,46,47
 -110 -256 -110 -256 -112 -276 c 0,48,49
 -112 -284 -112 -284 -113 -301 c 0,50,51
 -113 -319 -113 -319 -113 -326 c 0,52,53
 -117 -405 -117 -405 -118 -484 c 0,54,55
 -118 -540 -118 -540 -112 -551 c 1,56,57
 -47 -476 -47 -476 -22 -335 c 0,58,59
 -20 -322 -20 -322 -15 -290 c 0,60,61
 0 -210 0 -210 -2 -175 c 1,40,41
EndSplineSet
EndChar

StartChar: uni0670
Encoding: 1648 1648 326
Width: 107
VWidth: 1639
GlyphClass: 2
Flags: HW
AnchorPoint: "GposMark2BaseAnchorHamzaErabAbove_01_01" 544 1347 mark 0
AnchorPoint: "GposMark2BaseAnchorHamzaErabBelow_01_01" 544 1862 mark 0
AnchorPoint: "GposMark2BaseAnchorClassErabAbove_01_02" 544 1347 mark 0
AnchorPoint: "GposMark2MarkAnchorHamzaErabAbove_01_01" 544 1347 mark 0
AnchorPoint: "GposMark2MarkAnchorHamzaErabBelow_01_01" 544 1862 mark 0
AnchorPoint: "GposMark2MarkAnchorShaddaErabAbove_01_02" 544 1347 mark 0
AnchorPoint: "GposMark2MarkAnchorShaddaErabBelow_01_02" 544 1862 mark 0
LayerCount: 2
Fore
SplineSet
453 1747 m 1,0,1
 478 1763 478 1763 525 1797 c 0,2,3
 557 1821 557 1821 572 1832 c 0,4,5
 604 1856 604 1856 611 1851 c 0,6,7
 613 1848 613 1848 614 1847 c 1,8,9
 631 1854 631 1854 635 1847 c 1,10,11
 658 1862 658 1862 656 1824 c 0,12,13
 653 1757 653 1757 644 1722 c 0,14,15
 608 1545 l 1,16,17
 588 1459 588 1459 565 1417 c 1,18,19
 530 1360 530 1360 505 1348 c 0,20,21
 501 1347 501 1347 468 1348 c 0,22,23
 464 1349 464 1349 458 1348 c 0,24,25
 447 1349 447 1349 443 1353 c 0,26,27
 430 1370 430 1370 433 1452 c 0,28,29
 433 1455 433 1455 434 1456 c 0,30,31
 435 1476 435 1476 435 1516 c 0,32,33
 436 1557 436 1557 437 1576 c 0,34,35
 441 1682 441 1682 443 1694 c 0,36,37
 444 1704 444 1704 448 1724 c 0,38,39
 452 1739 452 1739 453 1747 c 1,0,1
602 1784 m 1,40,41
 599 1782 599 1782 524 1729 c 0,42,43
 521 1727 521 1727 514 1721 c 0,44,45
 499 1710 499 1710 496 1706 c 0,46,47
 495 1704 495 1704 492 1684 c 0,48,49
 492 1676 492 1676 492 1659 c 0,50,51
 492 1641 492 1641 491 1633 c 0,52,53
 487 1554 487 1554 487 1476 c 0,54,55
 487 1420 487 1420 493 1409 c 1,56,57
 558 1484 558 1484 582 1625 c 0,58,59
 584 1638 584 1638 590 1670 c 0,60,61
 604 1749 604 1749 602 1784 c 1,40,41
EndSplineSet
EndChar

StartChar: uni0674
Encoding: 1652 1652 327
Width: 107
GlyphClass: 2
Flags: HW
AnchorPoint: "GposMark2BaseAnchorClassErabAbove_01_02" 590 1014 mark 0
AnchorPoint: "GposMark2MarkAnchorHamzaErabAbove_01_01" 590 1579 basemark 0
AnchorPoint: "GposMark2MarkAnchorHamzaErabBelow_01_01" 590 864 basemark 0
LayerCount: 2
Fore
SplineSet
764 1178 m 2,0,1
 755 1160 755 1160 745 1145 c 128,-1,2
 735 1130 735 1130 731 1129 c 0,3,4
 684 1118 684 1118 644.5 1109 c 128,-1,5
 605 1100 605 1100 587 1095 c 0,6,7
 541 1082 541 1082 496.5 1062 c 128,-1,8
 452 1042 452 1042 414 1018 c 1,9,10
 409 1014 409 1014 405 1014 c 0,11,12
 402 1014 402 1014 398.5 1018 c 128,-1,13
 395 1022 395 1022 396 1025 c 256,14,15
 397 1028 397 1028 402 1032 c 1,16,-1
 402 1031 l 1,17,18
 417 1051 417 1051 447 1076 c 128,-1,19
 477 1101 477 1101 522 1136 c 1,20,21
 448 1171 448 1171 463 1233 c 0,22,23
 474 1282 474 1282 559 1355 c 1,24,25
 648 1429 648 1429 708 1429 c 0,26,27
 718 1429 718 1429 729 1425.5 c 128,-1,28
 740 1422 740 1422 747.5 1415.5 c 128,-1,29
 755 1409 755 1409 759 1400.5 c 128,-1,30
 763 1392 763 1392 761 1382 c 0,31,32
 758 1368 758 1368 751.5 1353.5 c 128,-1,33
 745 1339 745 1339 736.5 1327 c 128,-1,34
 728 1315 728 1315 719 1307.5 c 128,-1,35
 710 1300 710 1300 703 1300 c 0,36,37
 699 1300 699 1300 694 1307.5 c 128,-1,38
 689 1315 689 1315 681.5 1323.5 c 128,-1,39
 674 1332 674 1332 664 1339.5 c 128,-1,40
 654 1347 654 1347 641 1347 c 256,41,42
 628 1347 628 1347 611.5 1339.5 c 128,-1,43
 595 1332 595 1332 579.5 1321.5 c 128,-1,44
 564 1311 564 1311 553 1299 c 128,-1,45
 542 1287 542 1287 540 1277 c 0,46,47
 536 1259 536 1259 543.5 1244 c 128,-1,48
 551 1229 551 1229 565.5 1218 c 128,-1,49
 580 1207 580 1207 601 1201 c 128,-1,50
 622 1195 622 1195 644 1195 c 0,51,52
 647 1195 647 1195 668 1200 c 128,-1,53
 689 1205 689 1205 713.5 1210.5 c 128,-1,54
 738 1216 738 1216 759.5 1221 c 128,-1,55
 781 1226 781 1226 785 1226 c 1,56,-1
 764 1178 l 2,0,1
EndSplineSet
EndChar

StartChar: afii57388
Encoding: 1548 1548 329
Width: 673
VWidth: 1639
GlyphClass: 2
Flags: W
LayerCount: 2
Fore
SplineSet
430 408 m 1,0,1
 524 408 524 408 539 306 c 0,2,3
 544 271 544 271 537 233 c 0,4,5
 507 60 507 60 400 0 c 0,6,7
 375 -13 375 -13 350 -18 c 0,8,9
 217 -47 217 -47 159 33 c 0,10,11
 139 62 139 62 133 100 c 0,12,13
 128 143 128 143 147 228 c 0,14,15
 201 457 201 457 453 707 c 1,16,17
 514 765 514 765 536 777 c 0,18,19
 545 782 545 782 552 784 c 0,20,21
 552 786 552 786 563 785 c 2,22,-1
 575 784 l 1,23,24
 632 787 632 787 644 769 c 1,25,26
 652 751 652 751 638 702 c 0,27,28
 632 680 632 680 630 676 c 0,29,30
 617 652 617 652 571 597 c 0,31,32
 478 489 478 489 455 454 c 0,33,34
 440 429 440 429 430 408 c 1,0,1
373 408 m 1,35,36
 429 518 429 518 522 623 c 0,37,38
 560 666 560 666 577 689 c 0,39,40
 592 711 592 711 592 715 c 0,41,42
 594 746 594 746 557 723 c 0,43,44
 553 720 553 720 550 718 c 0,45,46
 504 684 504 684 439 613 c 0,47,48
 315 478 315 478 240 339 c 0,49,50
 195 259 195 259 187 208 c 0,51,52
 174 122 174 122 221 63 c 0,53,54
 253 26 253 26 297 25 c 0,55,56
 363 24 363 24 430 94 c 0,57,58
 477 145 477 145 486 197 c 0,59,60
 504 303 504 303 433 345 c 0,61,62
 402 362 402 362 363 362 c 1,63,-1
 374 385 l 1,64,-1
 368 385 l 1,65,-1
 380 408 l 1,66,-1
 373 408 l 1,35,36
EndSplineSet
EndChar

StartChar: afii57403
Encoding: 1563 1563 334
Width: 673
VWidth: 1639
GlyphClass: 2
Flags: W
LayerCount: 2
Fore
SplineSet
549 925 m 1,0,1
 643 925 643 925 658 822 c 0,2,3
 663 787 663 787 657 749 c 0,4,5
 627 576 627 576 519 517 c 0,6,7
 494 504 494 504 469 499 c 0,8,9
 336 470 336 470 278 549 c 0,10,11
 258 578 258 578 252 617 c 0,12,13
 247 660 247 660 267 745 c 0,14,15
 321 974 321 974 572 1223 c 1,16,17
 633 1281 633 1281 655 1294 c 0,18,19
 664 1299 664 1299 671 1301 c 0,20,21
 671 1303 671 1303 683 1301 c 2,22,-1
 694 1301 l 1,23,24
 751 1304 751 1304 764 1286 c 1,25,26
 772 1268 772 1268 757 1219 c 0,27,28
 751 1197 751 1197 750 1192 c 0,29,30
 737 1168 737 1168 690 1114 c 0,31,32
 597 1006 597 1006 574 971 c 0,33,34
 559 946 559 946 549 925 c 1,0,1
493 925 m 1,35,36
 549 1035 549 1035 641 1140 c 0,37,38
 679 1183 679 1183 696 1205 c 0,39,40
 711 1227 711 1227 711 1232 c 0,41,42
 713 1263 713 1263 677 1240 c 0,43,44
 673 1237 673 1237 670 1235 c 0,45,46
 624 1201 624 1201 558 1130 c 0,47,48
 434 995 434 995 359 856 c 0,49,50
 314 776 314 776 306 725 c 0,51,52
 293 639 293 639 340 580 c 0,53,54
 372 543 372 543 416 541 c 0,55,56
 482 540 482 540 549 611 c 0,57,58
 596 662 596 662 606 713 c 0,59,60
 624 819 624 819 553 861 c 0,61,62
 522 878 522 878 482 879 c 1,63,-1
 494 902 l 1,64,-1
 487 902 l 1,65,-1
 499 925 l 1,66,-1
 493 925 l 1,35,36
350 394 m 1,67,68
 473 411 473 411 521 325 c 0,69,70
 529 310 529 310 533 295 c 0,71,72
 543 258 543 258 527 190 c 0,73,74
 512 125 512 125 499 102 c 0,75,76
 455 18 455 18 368 -15 c 0,77,78
 348 -22 348 -22 328 -25 c 0,79,80
 193 -39 193 -39 146 36 c 1,81,82
 115 87 115 87 137 185 c 0,83,84
 160 280 160 280 210 328 c 1,85,86
 266 381 266 381 350 394 c 1,67,68
367 346 m 1,87,88
 294 339 294 339 230 270 c 0,89,90
 194 229 194 229 182 187 c 0,91,92
 162 116 162 116 215 60 c 0,93,94
 231 44 231 44 248 36 c 0,95,96
 275 19 275 19 296 21 c 0,97,98
 369 28 369 28 433 97 c 0,99,100
 469 137 469 137 481 179 c 0,101,102
 501 252 501 252 446 308 c 0,103,104
 430 324 430 324 414 333 c 0,105,106
 386 346 386 346 367 346 c 1,87,88
EndSplineSet
EndChar

StartChar: afii57407
Encoding: 1567 1567 335
Width: 819
VWidth: 1639
GlyphClass: 2
Flags: W
LayerCount: 2
Fore
SplineSet
490 604 m 1,0,1
 482 624 482 624 435 675 c 0,2,3
 429 682 429 682 424 687 c 0,4,5
 352 776 352 776 328 851 c 0,6,7
 307 919 307 919 330 1020 c 0,8,9
 362 1160 362 1160 474 1236 c 0,10,11
 508 1259 508 1259 545 1271 c 0,12,13
 595 1289 595 1289 688 1289 c 0,14,15
 805 1288 805 1288 851 1237 c 1,16,17
 900 1172 900 1172 866 1022 c 0,18,19
 848 946 848 946 825 902 c 0,20,21
 788 836 788 836 745 807 c 1,22,-1
 738 818 l 1,23,-1
 737 818 l 1,24,-1
 725 807 l 1,25,-1
 723 807 l 1,26,-1
 717 818 l 1,27,-1
 715 818 l 1,28,-1
 703 807 l 1,29,-1
 702 807 l 1,30,-1
 656 866 l 1,31,32
 661 854 661 854 676 832 c 0,33,34
 688 813 688 813 692 804 c 0,35,36
 716 748 716 748 712 681 c 1,37,38
 706 617 706 617 692 571 c 1,39,40
 675 524 675 524 654 495 c 0,41,42
 584 401 584 401 463 396 c 0,43,44
 416 395 416 395 377 408 c 0,45,46
 340 421 340 421 278 480 c 0,47,48
 272 486 272 486 268 489 c 1,49,-1
 281 503 l 1,50,-1
 281 505 l 1,51,-1
 274 512 l 1,52,-1
 286 526 l 1,53,-1
 287 528 l 1,54,-1
 279 535 l 1,55,56
 287 549 287 549 336 599 c 0,57,58
 341 605 341 605 345 608 c 0,59,60
 348 611 348 611 354 619 c 0,61,62
 366 633 366 633 371 636 c 1,63,64
 377 636 377 636 386 633 c 0,65,66
 388 634 388 634 391 636 c 0,67,68
 395 638 395 638 396 638 c 0,69,70
 398 638 398 638 402 636 c 0,71,72
 406 634 406 634 407 633 c 0,73,74
 409 634 409 634 413 636 c 0,75,76
 417 638 417 638 419 638 c 0,77,78
 423 637 423 637 430 629 c 0,79,80
 435 624 435 624 437 623 c 0,81,82
 466 601 466 601 490 604 c 1,0,1
739 876 m 1,83,84
 821 960 821 960 830 1070 c 0,85,86
 835 1147 835 1147 797 1192 c 0,87,88
 734 1262 734 1262 605 1233 c 0,89,90
 593 1230 593 1230 581 1227 c 0,91,92
 535 1211 535 1211 492 1181 c 1,93,94
 459 1156 459 1156 433 1123 c 0,95,96
 388 1069 388 1069 374 1020 c 0,97,98
 343 902 343 902 451 766 c 0,99,100
 463 750 463 750 489 720 c 0,101,102
 514 689 514 689 526 674 c 0,103,104
 553 645 553 645 552 626 c 0,105,106
 551 619 551 619 546 605 c 0,107,108
 543 595 543 595 542 590 c 2,109,-1
 538 572 l 1,110,111
 525 554 525 554 491 554 c 0,112,113
 434 554 434 554 424 556 c 0,114,115
 419 557 419 557 409 563 c 0,116,117
 396 570 396 570 390 571 c 0,118,119
 383 572 383 572 354 537 c 0,120,121
 351 533 351 533 348 531 c 0,122,123
 340 522 340 522 339 518 c 0,124,125
 339 516 339 516 340.5 514 c 128,-1,126
 342 512 342 512 343.5 510 c 128,-1,127
 345 508 345 508 348 506 c 2,128,-1
 351 503 l 1,129,130
 371 484 371 484 394 471 c 0,131,132
 435 445 435 445 468 446 c 0,133,134
 537 448 537 448 604 521 c 0,135,136
 622 541 622 541 634 561 c 0,137,138
 667 618 667 618 656 694 c 0,139,140
 647 747 647 747 591 837 c 0,141,142
 560 888 560 888 548 918 c 0,143,144
 527 971 527 971 546 1038 c 1,145,146
 558 1084 558 1084 580 1104 c 0,147,148
 607 1127 607 1127 658 1130 c 1,149,150
 749 1131 749 1131 748 1066 c 1,151,152
 744 1023 744 1023 724 971 c 0,153,154
 723 966 723 966 715 953 c 0,155,156
 712 949 712 949 710.5 947 c 128,-1,157
 709 945 709 945 707 941.5 c 128,-1,158
 705 938 705 938 704.5 936.5 c 128,-1,159
 704 935 704 935 702.5 931 c 128,-1,160
 701 927 701 927 702 927 c 0,161,162
 703 921 703 921 712 909 c 0,163,164
 717 904 717 904 725 892 c 0,165,166
 735 881 735 881 739 876 c 1,83,84
632 902 m 1,167,168
 640 907 640 907 640 917 c 0,169,170
 640 921 640 921 640.5 923.5 c 128,-1,171
 641 926 641 926 644 930 c 0,172,173
 647 935 647 935 648 936 c 0,174,175
 648 938 648 938 646 941 c 0,176,177
 644 945 644 945 646 948 c 0,178,179
 648 951 648 951 655 959 c 2,180,-1
 662 966 l 1,181,182
 689 999 689 999 694 1022 c 0,183,184
 699 1052 699 1052 673 1073 c 0,185,186
 664 1080 664 1080 655 1081 c 0,187,188
 629 1083 629 1083 601 1048 c 0,189,190
 593 1038 593 1038 590 1030 c 0,191,192
 581 1009 581 1009 600 964 c 2,193,-1
 601 963 l 2,194,195
 606 951 606 951 618 928 c 0,196,197
 628 910 628 910 632 902 c 1,167,168
648 879 m 1,198,-1
 656 866 l 1,199,-1
 648 879 l 1,198,-1
407 394 m 0,200,201
 549 414 549 414 593 320 c 0,202,203
 596 315 596 315 597 308 c 0,204,205
 610 266 610 266 597 195 c 1,206,207
 581 129 581 129 566 98 c 0,208,209
 524 21 524 21 443 -12 c 0,210,211
 422 -20 422 -20 402 -23 c 0,212,213
 252 -40 252 -40 208 48 c 1,214,215
 187 97 187 97 202 174 c 1,216,217
 217 235 217 235 230 262 c 0,218,219
 277 354 277 354 374 386 c 0,220,221
 391 391 391 391 407 394 c 0,200,201
429 346 m 1,222,223
 355 336 355 336 294 267 c 0,224,225
 260 227 260 227 249 185 c 0,226,227
 231 115 231 115 283 61 c 0,228,229
 302 42 302 42 323 33 c 0,230,231
 355 22 355 22 370 23 c 0,232,233
 444 33 444 33 505 101 c 0,234,235
 541 142 541 142 551 185 c 0,236,237
 567 256 567 256 513 311 c 0,238,239
 501 323 501 323 488 330 c 0,240,241
 458 348 458 348 429 346 c 1,222,223
EndSplineSet
EndChar

StartChar: afii57409
Encoding: 1569 1569 336
AltUni2: 00fe80.ffffffff.0
Width: 699
VWidth: 1639
GlyphClass: 2
Flags: HW
AnchorPoint: "GposMark2BaseAnchorHamzaErabAbove_01_01" 322.5 830 basechar 0
AnchorPoint: "GposMark2BaseAnchorHamzaErabBelow_01_01" 322.5 -198 basechar 0
LayerCount: 2
Fore
SplineSet
139 212 m 1,0,1
 87 245 87 245 123 375 c 0,2,3
 125 381 125 381 126 387 c 0,4,5
 155 491 155 491 247 589 c 0,6,7
 306 652 306 652 366 672 c 0,8,9
 389 679 389 679 427 679 c 0,10,11
 531 680 531 680 584 622 c 1,12,13
 626 573 626 573 619 522 c 1,14,15
 607 469 607 469 603 462 c 0,16,17
 601 459 601 459 600 458 c 0,18,19
 589 445 589 445 551 449 c 0,20,21
 549 449 l 2,22,-1
 548 449 l 2,23,24
 535 450 535 450 508 456 c 0,25,26
 454 466 454 466 425 459 c 1,27,28
 368 442 368 442 339 420 c 0,29,30
 317 403 317 403 317 390 c 1,31,32
 323 360 323 360 375 356 c 0,33,34
 382 356 382 356 387 356 c 0,35,36
 408 359 408 359 479 382 c 0,37,38
 526 399 526 399 613 428 c 1,39,-1
 611 420 l 1,40,-1
 634 428 l 1,41,-1
 632 420 l 1,42,-1
 656 428 l 1,43,-1
 647 403 l 1,44,45
 652 400 652 400 641 380 c 1,46,47
 646 377 646 377 629 338 c 1,48,49
 601 262 601 262 589 233 c 1,50,51
 581 203 581 203 574 195 c 1,52,53
 566 189 566 189 521 179 c 0,54,55
 517 178 517 178 515 177 c 0,56,57
 425 147 425 147 382 130 c 0,58,59
 253 76 253 76 148 20 c 0,60,61
 133 12 133 12 104 -7 c 0,62,63
 55 -38 55 -38 32 -48 c 1,64,-1
 37 -33 l 1,65,-1
 10 -48 l 1,66,-1
 15 -33 l 1,67,-1
 -11 -48 l 1,68,-1
 27 90 l 1,69,-1
 42 141 l 1,70,-1
 70 162 l 1,71,-1
 138 208 l 1,72,-1
 139 212 l 1,0,1
565 500 m 1,73,74
 562 538 562 538 530 577 c 0,75,76
 479 635 479 635 425 631 c 0,77,78
 328 624 328 624 229 483 c 0,79,80
 213 459 213 459 200 436 c 0,81,82
 162 371 162 371 159 346 c 0,83,84
 155 286 155 286 195 253 c 0,85,86
 198 250 198 250 201 249 c 0,87,88
 206 245 206 245 218 242 c 0,89,90
 228 239 228 239 232 238 c 1,91,-1
 204 223 l 1,92,-1
 227 216 l 1,93,-1
 227 215 l 1,94,-1
 199 200 l 1,95,-1
 222 194 l 1,96,-1
 221 192 l 1,97,98
 194 180 194 180 115 126 c 0,99,100
 80 102 80 102 74 95 c 0,101,102
 66 82 66 82 54 31 c 1,103,104
 77 41 77 41 123 68 c 0,105,106
 150 83 150 83 163 90 c 0,107,108
 284 151 284 151 390 190 c 0,109,110
 452 212 452 212 501 228 c 0,111,112
 504 229 504 229 512 231 c 0,113,114
 536 237 536 237 543 243 c 0,115,116
 546 246 546 246 556 276 c 0,117,118
 585 352 585 352 589 362 c 1,119,120
 565 356 565 356 515 339 c 0,121,122
 465 321 465 321 442 315 c 0,123,124
 368 297 368 297 303 315 c 0,125,126
 263 327 263 327 261 358 c 0,127,128
 261 362 261 362 272 403 c 0,129,130
 281 436 281 436 289 448 c 0,131,132
 310 474 310 474 348 490 c 1,133,134
 414 517 414 517 502 512 c 0,135,136
 510 511 510 511 527 506 c 0,137,138
 553 498 553 498 565 500 c 1,73,74
EndSplineSet
EndChar

StartChar: afii57410
Encoding: 1570 1570 337
AltUni2: 00fe81.ffffffff.0
Width: 507
VWidth: 1639
GlyphClass: 2
Flags: W
LayerCount: 2
Fore
SplineSet
293 1396 m 1,0,-1
 310 1397 l 1,1,-1
 295 1392 l 1,2,-1
 315 1392 l 1,3,-1
 314 1396 l 1,4,-1
 332 1399 l 1,5,-1
 332 1397 l 1,6,-1
 317 1392 l 1,7,-1
 337 1392 l 1,8,-1
 336 1396 l 1,9,-1
 353 1399 l 1,10,-1
 353 1397 l 1,11,-1
 338 1392 l 1,12,13
 395 1371 395 1371 519 1345 c 0,14,15
 529 1343 529 1343 549 1339 c 0,16,17
 606 1326 606 1326 634 1328 c 0,18,19
 672 1331 672 1331 776 1364 c 0,20,21
 857 1391 857 1391 885 1390 c 0,22,23
 890 1390 890 1390 893 1389 c 0,24,25
 921 1389 921 1389 925 1384 c 0,26,27
 927 1380 927 1380 928 1378 c 0,28,29
 929 1369 929 1369 919 1327 c 1,30,31
 891 1230 891 1230 720 1158 c 1,32,-1
 660 1133 l 1,33,34
 641 1127 641 1127 637 1123 c 0,35,36
 636 1120 636 1120 633 1104 c 2,37,-1
 622 1056 l 2,38,39
 598 950 598 950 584 899 c 0,40,41
 568 841 568 841 539 724 c 0,42,43
 510 607 510 607 494 549 c 0,44,45
 487 526 487 526 476 479 c 0,46,47
 456 400 456 400 443 361 c 0,48,49
 421 301 421 301 379 223 c 0,50,51
 306 92 306 92 251 26 c 0,52,53
 212 -20 212 -20 192 -25 c 0,54,55
 188 -26 188 -26 186 -26 c 0,56,57
 137 -25 137 -25 132 -23 c 1,58,59
 117 -8 117 -8 113 52 c 1,60,61
 112 98 112 98 135 243 c 0,62,63
 139 267 139 267 142 284 c 0,64,65
 146 320 146 320 170 438 c 0,66,67
 195 566 195 566 244 805 c 0,68,69
 262 897 262 897 273 945 c 0,70,71
 274 949 274 949 275 959 c 0,72,73
 281 990 281 990 287 1000 c 0,74,75
 293 1008 293 1008 334 1025 c 1,76,77
 363 1041 363 1041 439 1077 c 0,78,79
 478 1097 478 1097 487 1100 c 1,80,-1
 488 1102 l 1,81,82
 394 1102 394 1102 340 1115 c 0,83,84
 330 1117 330 1117 311 1122 c 0,85,86
 292 1127 292 1127 283 1128 c 1,87,88
 268 1135 268 1135 257 1133 c 0,89,90
 242 1131 242 1131 210 1088 c 0,91,92
 205 1081 205 1081 201 1077 c 0,93,94
 175 1057 175 1057 139 1058 c 0,95,96
 118 1059 118 1059 115 1059 c 0,97,98
 95 1082 95 1082 113 1151 c 1,99,100
 132 1228 132 1228 227 1335 c 0,101,102
 267 1380 267 1380 294 1392 c 1,103,-1
 293 1396 l 1,0,-1
158 1114 m 1,104,105
 166 1119 166 1119 197 1157 c 0,106,107
 215 1177 215 1177 230 1182 c 0,108,109
 237 1184 237 1184 273 1184 c 0,110,111
 304 1185 304 1185 397 1160 c 0,112,113
 422 1154 422 1154 440 1151 c 0,114,115
 546 1136 546 1136 693 1205 c 0,116,117
 785 1248 785 1248 836 1291 c 0,118,119
 852 1306 852 1306 867 1323 c 1,120,121
 872 1334 872 1334 871 1337 c 1,122,123
 867 1338 867 1338 846 1332 c 0,124,125
 802 1318 802 1318 768 1305 c 0,126,127
 659 1270 659 1270 538 1286 c 0,128,129
 513 1290 513 1290 377 1319 c 0,130,131
 371 1320 371 1320 359 1325 c 0,132,133
 326 1337 326 1337 311 1335 c 0,134,135
 295 1333 295 1333 262 1292 c 2,136,-1
 261 1291 l 1,137,138
 215 1241 215 1241 176 1178 c 0,139,140
 150 1137 150 1137 158 1114 c 1,104,105
583 1087 m 1,141,142
 544 1070 544 1070 467 1030 c 0,143,144
 419 1005 419 1005 396 994 c 0,145,146
 387 990 387 990 369 981 c 0,147,148
 350 972 350 972 342 968 c 0,149,150
 322 958 322 958 319 954 c 0,151,152
 315 947 315 947 315 935 c 0,153,154
 317 935 317 935 311 915 c 2,155,-1
 306 895 l 1,156,157
 286 809 286 809 271 723 c 0,158,159
 266 694 266 694 253 639 c 0,160,161
 245 601 245 601 241 582 c 0,162,163
 204 385 204 385 186 279 c 0,164,165
 159 125 159 125 170 61 c 0,166,167
 173 44 173 44 178 31 c 1,168,169
 200 47 200 47 230 85 c 0,170,171
 271 136 271 136 321 223 c 0,172,173
 376 320 376 320 399 374 c 0,174,175
 408 397 408 397 447 540 c 0,176,177
 448 545 448 545 450 548 c 0,178,179
 478 649 478 649 525 841 c 0,180,181
 532 870 532 870 546 927 c 0,182,183
 561 984 561 984 568 1012 c 0,184,185
 570 1019 570 1019 573 1033 c 0,186,187
 583 1071 583 1071 583 1087 c 1,141,142
EndSplineSet
AlternateSubs2: "gsub_alternate_dfl_aalt_arab_FAR_Lookup_01_Subtable_01" uniFE82 afii57410
Substitution2: "gsub_single_rtl_fina_arab_FAR_Lookup_01_Subtable_01" uniFE82
EndChar

StartChar: uniFE83
Encoding: 1571 1571 339
AltUni2: 00fe83.ffffffff.0
Width: 442
VWidth: 1639
GlyphClass: 2
Flags: W
LayerCount: 2
Fore
SplineSet
589 1258 m 1,0,1
 615 1279 615 1279 612 1225 c 0,2,3
 612 1217 612 1217 610 1203 c 0,4,5
 609 1196 609 1196 609 1194 c 0,6,7
 602 1110 602 1110 580 948 c 0,8,9
 569 872 569 872 510 617 c 2,10,-1
 455 379 l 1,11,12
 428 292 428 292 387 195 c 1,13,14
 329 54 329 54 272 -5 c 0,15,16
 246 -30 246 -30 202 -26 c 2,17,-1
 201 -26 l 2,18,19
 177 -25 177 -25 172 -20 c 0,20,21
 156 2 156 2 157 66 c 0,22,23
 157 71 157 71 166 262 c 0,24,25
 171 351 171 351 187 526 c 1,26,27
 195 629 195 629 210 790 c 0,28,29
 211 803 211 803 212 829 c 0,30,31
 215 889 215 889 221 918 c 0,32,33
 232 965 232 965 234 969 c 0,34,35
 240 978 240 978 260 995 c 0,36,37
 279 1011 279 1011 309 1040 c 0,38,39
 365 1091 365 1091 471 1191 c 0,40,41
 541 1255 l 1,42,43
 563 1271 563 1271 568 1258 c 1,44,45
 585 1270 585 1270 589 1258 c 1,0,1
557 1192 m 1,46,47
 546 1185 546 1185 497 1138 c 0,48,49
 493 1135 493 1135 492 1133 c 0,50,51
 440 1087 440 1087 344 997 c 0,52,53
 336 990 336 990 320 975 c 0,54,55
 303 960 303 960 296 953 c 0,56,57
 275 933 275 933 272 928 c 0,58,59
 270 922 270 922 266 876 c 0,60,61
 265 857 265 857 261 818 c 0,62,63
 257 779 257 779 256 761 c 0,64,65
 243 633 243 633 222 349 c 0,66,67
 209 183 209 183 209 107 c 0,68,69
 209 83 209 83 216 49 c 1,70,71
 224 31 l 1,72,73
 227 31 227 31 229.5 32.5 c 128,-1,74
 232 34 232 34 236 39 c 2,75,-1
 240 43 l 2,76,77
 255 58 255 58 277 89 c 0,78,79
 326 161 326 161 379 300 c 0,80,81
 430 430 430 430 490 718 c 0,82,83
 493 731 493 731 494 741 c 0,84,85
 535 946 535 946 547 1048 c 1,86,87
 559 1139 559 1139 557 1192 c 1,46,47
406 1538 m 1,88,89
 395 1579 395 1579 395 1583 c 0,90,91
 395 1680 395 1680 476 1776 c 0,92,93
 480 1781 480 1781 483 1784 c 0,94,95
 529 1836 529 1836 576 1847 c 1,96,97
 675 1864 675 1864 720 1813 c 0,98,99
 738 1791 738 1791 740 1763 c 0,100,101
 741 1752 741 1752 734 1722 c 0,102,103
 727 1695 727 1695 720 1681 c 1,104,-1
 743 1688 l 1,105,-1
 741 1681 l 1,106,-1
 764 1688 l 1,107,108
 727 1568 727 1568 727 1566 c 0,109,110
 712 1526 712 1526 709 1524 c 0,111,112
 706 1522 706 1522 679 1512 c 0,113,114
 626 1495 626 1495 601 1486 c 0,115,116
 541 1463 541 1463 369 1370 c 0,117,118
 365 1368 365 1368 362 1366 c 1,119,-1
 367 1383 l 1,120,-1
 340 1366 l 1,121,-1
 346 1383 l 1,122,-1
 319 1366 l 1,123,124
 327 1399 327 1399 344 1460 c 0,125,126
 353 1497 353 1497 357 1504 c 0,127,128
 373 1525 373 1525 406 1538 c 1,88,89
684 1737 m 1,129,130
 678 1755 678 1755 661 1771 c 0,131,132
 629 1800 629 1800 604 1799 c 1,133,134
 541 1791 541 1791 475 1687 c 0,135,136
 472 1682 472 1682 471 1679 c 0,137,138
 449 1637 449 1637 448 1627 c 0,139,140
 448 1589 448 1589 493 1565 c 1,141,-1
 467 1551 l 1,142,-1
 488 1543 l 1,143,-1
 488 1542 l 1,144,-1
 462 1528 l 1,145,-1
 483 1520 l 1,146,-1
 482 1519 l 1,147,148
 459 1512 459 1512 410 1474 c 0,149,150
 389 1458 389 1458 384 1445 c 1,151,-1
 573 1533 l 1,152,-1
 645 1558 l 1,153,-1
 675 1568 l 1,154,-1
 684 1584 l 1,155,-1
 697 1624 l 1,156,157
 687 1621 687 1621 667 1613 c 0,158,159
 623 1597 623 1597 602 1594 c 0,160,161
 602 1593 602 1593 579 1593 c 2,162,-1
 556 1594 l 2,163,164
 514 1595 514 1595 500 1609 c 1,165,166
 492 1621 492 1621 498 1647 c 0,167,168
 509 1701 509 1701 536 1717 c 0,169,170
 596 1754 596 1754 684 1737 c 1,129,130
703 1683 m 1,171,172
 699 1684 699 1684 664 1683 c 0,173,174
 657 1684 657 1684 644 1686 c 0,175,176
 612 1691 612 1691 589 1683 c 0,177,178
 556 1669 556 1669 553 1658 c 1,179,180
 552 1643 552 1643 580 1643 c 0,181,182
 583 1643 583 1643 584 1643 c 0,183,184
 592 1645 592 1645 660 1668 c 1,185,186
 694 1677 694 1677 703 1683 c 1,171,172
720 1681 m 1,187,-1
 718 1679 l 1,188,-1
 720 1681 l 1,187,-1
741 1681 m 1,189,-1
 739 1679 l 1,190,-1
 741 1681 l 1,189,-1
EndSplineSet
AlternateSubs2: "gsub_alternate_dfl_aalt_arab_FAR_Lookup_01_Subtable_01" uniFE84 uniFE83
Substitution2: "gsub_single_rtl_fina_arab_FAR_Lookup_01_Subtable_01" uniFE84
EndChar

StartChar: uniFE84
Encoding: 65156 65156 340
Width: 423
VWidth: 1639
GlyphClass: 2
Flags: W
LayerCount: 2
Fore
SplineSet
447 -23 m 1,0,1
 295 -23 295 -23 291 -23 c 0,2,3
 169 -12 169 -12 127 57 c 1,4,5
 85 131 85 131 114 283 c 0,6,7
 117 298 117 298 124 329 c 0,8,9
 128 349 128 349 130 359 c 0,10,11
 147 439 147 439 220 822 c 0,12,13
 224 846 224 846 230 895 c 0,14,15
 239 970 239 970 249 1007 c 0,16,17
 261 1058 261 1058 262 1060 c 0,18,19
 264 1065 264 1065 266 1068 c 0,20,21
 278 1085 278 1085 332 1116 c 0,22,23
 337 1119 337 1119 339 1120 c 0,24,25
 489 1217 489 1217 504 1227 c 0,26,27
 509 1230 509 1230 519 1237 c 0,28,29
 558 1264 558 1264 574 1268 c 0,30,31
 580 1269 580 1269 593 1266 c 0,32,33
 603 1264 603 1264 607 1264 c 2,34,-1
 624 1264 l 1,35,36
 628 1258 628 1258 617 1212 c 2,37,-1
 581 1056 l 1,38,-1
 490 666 l 2,39,40
 486 649 486 649 477 613 c 0,41,42
 449 510 449 510 452 466 c 0,43,44
 456 399 456 399 545 399 c 1,45,-1
 534 353 l 1,46,47
 456 353 456 353 447 355 c 0,48,49
 416 364 416 364 405 387 c 0,50,51
 394 412 394 412 402 461 c 0,52,53
 405 482 405 482 437 620 c 2,54,-1
 572 1202 l 1,55,56
 543 1186 543 1186 399 1092 c 0,57,58
 385 1083 385 1083 375 1076 c 0,59,60
 369 1072 369 1072 353 1063 c 0,61,62
 311 1038 311 1038 300 1022 c 0,63,64
 298 1019 298 1019 296.5 1016.5 c 128,-1,65
 295 1014 295 1014 294.5 1009.5 c 128,-1,66
 294 1005 294 1005 294 1003.5 c 128,-1,67
 294 1002 294 1002 293 996 c 2,68,-1
 292 991 l 1,69,70
 284 941 284 941 282 920 c 0,71,72
 275 870 275 870 256 769 c 0,73,74
 244 707 244 707 238 677 c 0,75,76
 228 614 228 614 184 407 c 0,77,78
 152 253 152 253 155 197 c 0,79,80
 161 114 161 114 211 71 c 0,81,82
 234 51 234 51 270 39 c 0,83,84
 324 22 324 22 458 23 c 1,85,-1
 447 -23 l 1,0,1
411 1524 m 1,86,87
 400 1565 400 1565 400 1568 c 0,88,89
 400 1665 400 1665 480 1761 c 0,90,91
 484 1766 484 1766 487 1770 c 0,92,93
 533 1822 533 1822 581 1832 c 1,94,95
 680 1849 680 1849 725 1799 c 0,96,97
 743 1777 743 1777 745 1748 c 0,98,99
 746 1737 746 1737 738 1707 c 0,100,101
 731 1680 731 1680 724 1666 c 1,102,-1
 747 1673 l 1,103,-1
 746 1666 l 1,104,-1
 769 1673 l 1,105,106
 732 1553 732 1553 731 1551 c 0,107,108
 716 1511 716 1511 714 1509 c 0,109,110
 711 1507 711 1507 684 1497 c 0,111,112
 631 1480 631 1480 606 1471 c 0,113,114
 546 1448 546 1448 373 1355 c 0,115,116
 369 1353 369 1353 367 1351 c 1,117,-1
 372 1368 l 1,118,-1
 345 1351 l 1,119,-1
 350 1368 l 1,120,-1
 324 1351 l 1,121,122
 332 1384 332 1384 348 1445 c 0,123,124
 357 1482 357 1482 362 1489 c 0,125,126
 378 1511 378 1511 411 1524 c 1,86,87
688 1722 m 1,127,128
 682 1740 682 1740 666 1756 c 0,129,130
 634 1785 634 1785 608 1784 c 1,131,132
 545 1776 545 1776 480 1672 c 0,133,134
 477 1667 477 1667 475 1665 c 0,135,136
 453 1623 453 1623 453 1612 c 0,137,138
 453 1574 453 1574 498 1550 c 1,139,-1
 472 1537 l 1,140,-1
 493 1528 l 1,141,-1
 492 1527 l 1,142,-1
 467 1514 l 1,143,-1
 488 1506 l 1,144,-1
 487 1504 l 1,145,146
 464 1497 464 1497 414 1460 c 0,147,148
 393 1444 393 1444 389 1430 c 1,149,-1
 577 1519 l 1,150,-1
 650 1543 l 1,151,-1
 680 1553 l 1,152,-1
 688 1569 l 1,153,-1
 702 1609 l 1,154,155
 692 1606 692 1606 672 1598 c 0,156,157
 628 1582 628 1582 607 1579 c 0,158,159
 607 1576 607 1576 584 1578 c 2,160,-1
 561 1579 l 2,161,162
 519 1580 519 1580 505 1594 c 1,163,164
 497 1606 497 1606 503 1632 c 0,165,166
 514 1686 514 1686 541 1702 c 0,167,168
 600 1739 600 1739 688 1722 c 1,127,128
708 1668 m 1,169,170
 704 1669 704 1669 668 1668 c 0,171,172
 661 1669 661 1669 649 1671 c 0,173,174
 617 1676 617 1676 594 1668 c 0,175,176
 561 1654 561 1654 557 1643 c 1,177,178
 556 1628 556 1628 585 1628 c 0,179,180
 588 1628 588 1628 589 1629 c 0,181,182
 597 1631 597 1631 665 1653 c 1,183,184
 699 1662 699 1662 708 1668 c 1,169,170
724 1666 m 1,185,-1
 723 1665 l 1,186,-1
 724 1666 l 1,185,-1
746 1666 m 1,187,-1
 744 1665 l 1,188,-1
 746 1666 l 1,187,-1
EndSplineSet
EndChar

StartChar: uniFE85
Encoding: 1572 1572 341
AltUni2: 00fe85.ffffffff.0
Width: 709
VWidth: 1639
GlyphClass: 2
Flags: W
LayerCount: 2
Fore
SplineSet
336 -31 m 1,0,1
 212 -31 212 -31 172 -17 c 0,2,3
 125 2 125 2 107 43 c 0,4,5
 85 98 85 98 111 213 c 0,6,7
 159 419 159 419 254 554 c 0,8,9
 335 670 335 670 425 681 c 1,10,11
 501 687 501 687 538 674 c 0,12,13
 650 631 650 631 641 400 c 0,14,15
 636 298 636 298 601 148 c 0,16,17
 557 -42 557 -42 497 -177 c 0,18,19
 426 -340 426 -340 329 -431 c 0,20,21
 295 -463 295 -463 205 -458 c 0,22,23
 181 -456 181 -456 172 -456 c 2,24,-1
 -74 -456 l 2,25,26
 -81 -456 -81 -456 -96 -457 c 0,27,28
 -156 -459 -156 -459 -173 -446 c 1,29,30
 -201 -420 -201 -420 -169 -341 c 1,31,32
 -157 -320 -157 -320 -124 -303 c 0,33,34
 -44 -265 -44 -265 -29 -257 c 0,35,36
 181 -144 181 -144 250 -96 c 0,37,38
 298 -63 298 -63 336 -31 c 1,0,1
404 -33 m 1,39,40
 382 -76 382 -76 297 -130 c 2,41,-1
 296 -131 l 1,42,43
 196 -199 196 -199 5 -302 c 0,44,45
 -3 -306 -3 -306 -90 -349 c 0,46,47
 -122 -364 -122 -364 -130 -376 c 1,48,49
 -134 -387 -134 -387 -120 -400 c 1,50,51
 -105 -411 -105 -411 -51 -410 c 2,52,-1
 177 -410 l 2,53,54
 184 -410 184 -410 198 -411 c 0,55,56
 254 -413 254 -413 276 -400 c 0,57,58
 292 -390 292 -390 329 -353 c 1,59,60
 381 -293 381 -293 429 -207 c 1,61,62
 487 -100 487 -100 540 80 c 0,63,64
 593 255 593 255 588 400 c 0,65,66
 580 625 580 625 459 635 c 0,67,68
 394 639 394 639 314 544 c 0,69,70
 309 537 309 537 304 533 c 0,71,72
 215 418 215 418 169 262 c 0,73,74
 143 173 143 173 151 121 c 0,75,76
 168 20 168 20 327 14 c 0,77,78
 343 13 343 13 415 13 c 1,79,-1
 400 -10 l 1,80,-1
 409 -10 l 1,81,-1
 395 -33 l 1,82,-1
 404 -33 l 1,39,40
354 403 m 1,83,84
 442 411 442 411 475 362 c 1,85,86
 484 342 484 342 472 302 c 0,87,88
 466 282 466 282 466 280 c 0,89,90
 459 274 459 274 439 271 c 0,91,92
 373 263 373 263 311 271 c 0,93,94
 277 276 277 276 269 282 c 0,95,96
 262 289 262 289 268 313 c 0,97,98
 269 317 269 317 268 318 c 0,99,100
 277 354 277 354 282 362 c 0,101,102
 303 396 303 396 354 403 c 1,83,84
416 318 m 1,103,104
 413 327 413 327 398 339 c 1,105,106
 353 367 353 367 323 328 c 1,107,108
 343 313 343 313 410 318 c 0,109,110
 414 318 414 318 416 318 c 1,103,104
461 940 m 1,111,112
 450 981 450 981 450 984 c 0,113,114
 450 1081 450 1081 530 1177 c 0,115,116
 534 1182 534 1182 537 1186 c 0,117,118
 583 1238 583 1238 631 1248 c 1,119,120
 730 1265 730 1265 775 1215 c 0,121,122
 793 1193 793 1193 795 1164 c 0,123,124
 796 1153 796 1153 788 1123 c 0,125,126
 781 1096 781 1096 774 1082 c 1,127,-1
 797 1089 l 1,128,-1
 796 1082 l 1,129,-1
 819 1089 l 1,130,131
 782 969 782 969 781 968 c 0,132,133
 766 928 766 928 764 925 c 0,134,135
 761 923 761 923 734 913 c 0,136,137
 681 896 681 896 656 887 c 0,138,139
 596 864 596 864 423 771 c 0,140,141
 419 769 419 769 416 768 c 1,142,-1
 422 784 l 1,143,-1
 395 768 l 1,144,-1
 400 784 l 1,145,-1
 374 768 l 1,146,147
 382 801 382 801 398 861 c 0,148,149
 407 898 407 898 412 905 c 0,150,151
 428 927 428 927 461 940 c 1,111,112
738 1138 m 1,152,153
 732 1156 732 1156 716 1173 c 0,154,155
 684 1202 684 1202 658 1200 c 1,156,157
 595 1192 595 1192 530 1088 c 0,158,159
 527 1083 527 1083 525 1081 c 0,160,161
 503 1039 503 1039 503 1028 c 0,162,163
 503 990 503 990 548 966 c 1,164,-1
 522 953 l 1,165,-1
 543 945 l 1,166,-1
 542 943 l 1,167,-1
 516 930 l 1,168,-1
 537 922 l 1,169,-1
 537 920 l 1,170,171
 514 913 514 913 464 876 c 0,172,173
 443 860 443 860 439 846 c 1,174,-1
 627 935 l 1,175,-1
 700 959 l 1,176,-1
 730 969 l 1,177,-1
 738 986 l 1,178,-1
 752 1025 l 1,179,180
 742 1022 742 1022 722 1015 c 0,181,182
 678 999 678 999 657 995 c 0,183,184
 657 993 657 993 634 995 c 2,185,-1
 611 995 l 2,186,187
 569 996 569 996 555 1010 c 1,188,189
 547 1022 547 1022 553 1048 c 0,190,191
 564 1102 564 1102 590 1118 c 0,192,193
 650 1155 650 1155 738 1138 c 1,152,153
758 1084 m 1,194,195
 754 1085 754 1085 718 1084 c 0,196,197
 711 1085 711 1085 698 1087 c 0,198,199
 666 1092 666 1092 643 1084 c 0,200,201
 610 1070 610 1070 607 1059 c 1,202,203
 606 1044 606 1044 635 1044 c 0,204,205
 638 1044 638 1044 639 1045 c 0,206,207
 647 1047 647 1047 715 1069 c 1,208,209
 749 1078 749 1078 758 1084 c 1,194,195
774 1082 m 1,210,-1
 772 1081 l 1,211,-1
 774 1082 l 1,210,-1
796 1082 m 1,212,-1
 794 1081 l 1,213,-1
 796 1082 l 1,212,-1
EndSplineSet
AlternateSubs2: "gsub_alternate_dfl_aalt_arab_FAR_Lookup_01_Subtable_01" uniFE86 uniFE85
Substitution2: "gsub_single_rtl_fina_arab_FAR_Lookup_01_Subtable_01" uniFE86
EndChar

StartChar: uniFE86
Encoding: 65158 65158 342
Width: 555
VWidth: 1639
GlyphClass: 2
Flags: W
LayerCount: 2
Fore
SplineSet
285 -31 m 1,0,1
 160 -31 160 -31 118 -15 c 0,2,3
 82 0 82 0 65 26 c 0,4,5
 31 82 31 82 59 208 c 0,6,7
 103 398 103 398 187 531 c 1,8,9
 255 637 255 637 332 669 c 0,10,11
 359 680 359 680 406 681 c 1,12,13
 461 684 461 684 491 672 c 0,14,15
 563 646 563 646 585 541 c 0,16,17
 594 490 594 490 593 441 c 0,18,19
 593 438 593 438 593 428 c 0,20,21
 592 406 592 406 595 400 c 0,22,23
 598 398 598 398 601.5 398.5 c 128,-1,24
 605 399 605 399 611 399 c 2,25,-1
 617 399 l 1,26,-1
 675 399 l 1,27,-1
 665 353 l 1,28,-1
 575 353 l 2,29,30
 543 354 543 354 541 354 c 0,31,32
 539 358 539 358 540 382 c 0,33,34
 541 415 541 415 537 448 c 1,35,36
 530 555 530 555 474 606 c 0,37,38
 431 644 431 644 374 626 c 1,39,40
 310 603 310 603 246 523 c 0,41,42
 223 493 223 493 189 433 c 1,43,44
 57 181 57 181 117 75 c 0,45,46
 148 23 148 23 274 17 c 2,47,-1
 276 16 l 2,48,49
 334 13 334 13 363 13 c 1,50,-1
 349 -10 l 1,51,-1
 358 -10 l 1,52,-1
 344 -33 l 1,53,-1
 353 -33 l 1,54,55
 337 -71 337 -71 261 -121 c 0,56,57
 256 -125 256 -125 254 -126 c 0,58,59
 137 -208 137 -208 -38 -298 c 1,60,-1
 -146 -353 l 2,61,62
 -176 -369 -176 -369 -182 -379 c 1,63,64
 -184 -387 -184 -387 -170 -399 c 2,65,-1
 -170 -400 l 1,66,67
 -155 -411 -155 -411 -100 -410 c 2,68,-1
 107 -410 l 2,69,70
 115 -410 115 -410 134 -411 c 0,71,72
 185 -413 185 -413 209 -407 c 0,73,74
 244 -396 244 -396 303 -320 c 0,75,76
 306 -316 306 -316 308 -315 c 0,77,78
 383 -221 383 -221 437 -77 c 0,79,80
 465 0 465 0 471 23 c 1,81,-1
 588 23 l 1,82,-1
 578 -23 l 1,83,-1
 503 -23 l 1,84,85
 496 -50 496 -50 469 -125 c 0,86,87
 413 -270 413 -270 339 -362 c 0,88,89
 284 -432 284 -432 254 -448 c 0,90,91
 245 -452 245 -452 237 -454 c 0,92,93
 211 -458 211 -458 132 -456 c 1,94,-1
 -86 -456 l 1,95,-1
 -167 -456 l 2,96,97
 -207 -455 -207 -455 -218 -451 c 0,98,99
 -246 -437 -246 -437 -228 -374 c 0,100,101
 -228 -373 -228 -373 -227 -371 c 2,102,-1
 -226 -367 l 2,103,104
 -219 -340 -219 -340 -215 -333 c 0,105,106
 -204 -318 -204 -318 -166 -300 c 0,107,108
 -109 -273 -109 -273 -66 -249 c 0,109,110
 150 -135 150 -135 239 -68 c 0,111,112
 263 -50 263 -50 285 -31 c 1,0,1
416 300 m 1,113,114
 414 269 414 269 370 267 c 1,115,-1
 264 267 l 2,116,117
 225 268 225 268 212 284 c 0,118,119
 205 294 205 294 218 328 c 2,120,-1
 218 330 l 1,121,122
 225 358 225 358 228 362 c 0,123,124
 249 399 249 399 293 400 c 2,125,-1
 358 400 l 1,126,127
 398 394 398 394 422 358 c 0,128,129
 435 335 435 335 421 323 c 1,130,131
 423 306 423 306 416 300 c 1,113,114
363 317 m 1,132,133
 347 353 347 353 307 350 c 0,134,135
 283 349 283 349 267 328 c 1,136,137
 295 304 295 304 363 317 c 1,132,133
476 936 m 1,138,139
 465 977 465 977 465 981 c 0,140,141
 465 1078 465 1078 545 1174 c 0,142,143
 549 1179 549 1179 553 1182 c 0,144,145
 599 1234 599 1234 646 1245 c 1,146,147
 745 1262 745 1262 790 1211 c 0,148,149
 808 1189 808 1189 810 1161 c 0,150,151
 811 1150 811 1150 804 1120 c 0,152,153
 797 1093 797 1093 790 1079 c 1,154,-1
 812 1086 l 1,155,-1
 811 1079 l 1,156,-1
 834 1086 l 1,157,158
 797 966 797 966 797 964 c 0,159,160
 782 924 782 924 779 922 c 0,161,162
 776 920 776 920 749 910 c 0,163,164
 696 893 696 893 671 884 c 0,165,166
 611 861 611 861 439 768 c 0,167,168
 435 766 435 766 432 764 c 1,169,-1
 437 781 l 1,170,-1
 410 764 l 1,171,-1
 416 781 l 1,172,-1
 389 764 l 1,173,174
 397 797 397 797 414 858 c 0,175,176
 423 895 423 895 427 902 c 0,177,178
 443 923 443 923 476 936 c 1,138,139
754 1135 m 1,179,180
 748 1153 748 1153 731 1169 c 0,181,182
 699 1198 699 1198 673 1197 c 1,183,184
 610 1189 610 1189 545 1085 c 0,185,186
 542 1080 542 1080 541 1077 c 0,187,188
 519 1035 519 1035 518 1025 c 0,189,190
 518 987 518 987 563 963 c 1,191,-1
 537 950 l 1,192,-1
 558 941 l 1,193,-1
 558 940 l 1,194,-1
 532 927 l 1,195,-1
 553 918 l 1,196,-1
 552 917 l 1,197,198
 529 910 529 910 480 872 c 0,199,200
 459 856 459 856 454 843 c 1,201,-1
 643 932 l 1,202,-1
 715 956 l 1,203,-1
 745 966 l 1,204,-1
 753 982 l 1,205,-1
 767 1022 l 1,206,207
 757 1019 757 1019 737 1011 c 0,208,209
 693 995 693 995 672 992 c 0,210,211
 672 990 672 990 649 991 c 2,212,-1
 626 992 l 2,213,214
 584 993 584 993 570 1007 c 1,215,216
 562 1019 562 1019 568 1045 c 0,217,218
 579 1099 579 1099 606 1115 c 0,219,220
 666 1152 666 1152 754 1135 c 1,179,180
773 1081 m 1,221,222
 769 1082 769 1082 734 1081 c 0,223,224
 727 1082 727 1082 714 1084 c 0,225,226
 682 1089 682 1089 659 1081 c 0,227,228
 626 1067 626 1067 623 1056 c 1,229,230
 622 1041 622 1041 650 1041 c 0,231,232
 653 1041 653 1041 654 1041 c 0,233,234
 662 1043 662 1043 730 1066 c 1,235,236
 764 1075 764 1075 773 1081 c 1,221,222
790 1079 m 1,237,-1
 788 1077 l 1,238,-1
 790 1079 l 1,237,-1
811 1079 m 1,239,-1
 809 1077 l 1,240,-1
 811 1079 l 1,239,-1
EndSplineSet
EndChar

StartChar: uniFE87
Encoding: 1573 1573 343
AltUni2: 00fe87.ffffffff.0
Width: 445
VWidth: 1639
GlyphClass: 2
Flags: W
LayerCount: 2
Fore
SplineSet
642 1258 m 1,0,1
 668 1279 668 1279 665 1225 c 0,2,3
 665 1217 665 1217 663 1203 c 0,4,5
 662 1196 662 1196 662 1194 c 0,6,7
 655 1110 655 1110 633 948 c 0,8,9
 622 872 622 872 563 617 c 2,10,-1
 508 379 l 1,11,12
 481 292 481 292 439 195 c 1,13,14
 381 54 381 54 324 -5 c 0,15,16
 298 -30 298 -30 255 -26 c 2,17,-1
 254 -26 l 2,18,19
 230 -25 230 -25 225 -20 c 0,20,21
 209 2 209 2 210 66 c 0,22,23
 210 71 210 71 218 262 c 0,24,25
 223 351 223 351 240 526 c 1,26,27
 248 629 248 629 263 790 c 0,28,29
 264 803 264 803 265 829 c 0,30,31
 268 889 268 889 274 918 c 0,32,33
 285 965 285 965 287 969 c 0,34,35
 293 978 293 978 313 995 c 0,36,37
 332 1011 332 1011 361 1040 c 0,38,39
 417 1091 417 1091 524 1191 c 0,40,41
 594 1255 l 1,42,43
 616 1271 616 1271 621 1258 c 1,44,45
 638 1270 638 1270 642 1258 c 1,0,1
610 1192 m 1,46,47
 599 1185 599 1185 550 1138 c 0,48,49
 546 1135 546 1135 545 1133 c 0,50,51
 493 1087 493 1087 397 997 c 0,52,53
 389 990 389 990 373 975 c 0,54,55
 356 960 356 960 349 953 c 0,56,57
 328 933 328 933 325 928 c 0,58,59
 323 922 323 922 319 876 c 0,60,61
 318 857 318 857 314 818 c 0,62,63
 310 779 310 779 309 761 c 0,64,65
 296 633 296 633 275 349 c 0,66,67
 262 183 262 183 262 107 c 0,68,69
 262 83 262 83 268 49 c 1,70,71
 276 31 l 1,72,73
 279 31 279 31 282 32.5 c 128,-1,74
 285 34 285 34 289 39 c 2,75,-1
 293 43 l 2,76,77
 308 58 308 58 329 89 c 0,78,79
 378 161 378 161 432 300 c 0,80,81
 483 430 483 430 542 718 c 0,82,83
 545 731 545 731 547 741 c 0,84,85
 588 946 588 946 600 1048 c 1,86,87
 612 1139 612 1139 610 1192 c 1,46,47
-15 -513 m 1,88,89
 -26 -472 -26 -472 -26 -469 c 0,90,91
 -26 -372 -26 -372 55 -276 c 0,92,93
 59 -271 59 -271 62 -267 c 0,94,95
 108 -215 108 -215 156 -205 c 1,96,97
 255 -188 255 -188 299 -238 c 0,98,99
 317 -260 317 -260 319 -289 c 0,100,101
 320 -300 320 -300 313 -330 c 0,102,103
 306 -357 306 -357 299 -371 c 1,104,-1
 322 -364 l 1,105,-1
 320 -371 l 1,106,-1
 343 -364 l 1,107,108
 306 -484 306 -484 306 -485 c 0,109,110
 291 -525 291 -525 288 -528 c 0,111,112
 285 -530 285 -530 258 -540 c 0,113,114
 205 -557 205 -557 181 -566 c 0,115,116
 121 -589 121 -589 -52 -682 c 0,117,118
 -56 -684 -56 -684 -59 -686 c 1,119,-1
 -54 -669 l 1,120,-1
 -80 -686 l 1,121,-1
 -75 -669 l 1,122,-1
 -102 -686 l 1,123,124
 -94 -653 -94 -653 -77 -592 c 0,125,126
 -68 -555 -68 -555 -64 -548 c 0,127,128
 -48 -526 -48 -526 -15 -513 c 1,88,89
263 -315 m 1,129,130
 257 -297 257 -297 240 -280 c 0,131,132
 208 -251 208 -251 183 -253 c 1,133,134
 120 -261 120 -261 55 -365 c 0,135,136
 52 -370 52 -370 50 -372 c 0,137,138
 28 -414 28 -414 27 -425 c 0,139,140
 27 -463 27 -463 72 -487 c 1,141,-1
 46 -500 l 1,142,-1
 67 -508 l 1,143,-1
 67 -510 l 1,144,-1
 41 -523 l 1,145,-1
 62 -531 l 1,146,-1
 61 -533 l 1,147,148
 38 -540 38 -540 -11 -577 c 0,149,150
 -32 -593 -32 -593 -36 -607 c 1,151,-1
 152 -518 l 1,152,-1
 225 -494 l 1,153,-1
 254 -484 l 1,154,-1
 263 -467 l 1,155,-1
 276 -428 l 1,156,157
 266 -431 266 -431 246 -439 c 0,158,159
 202 -455 202 -455 181 -458 c 0,160,161
 181 -459 181 -459 158 -458 c 2,162,-1
 135 -458 l 2,163,164
 93 -457 93 -457 79 -443 c 1,165,166
 71 -431 71 -431 77 -405 c 0,167,168
 88 -351 88 -351 115 -335 c 0,169,170
 175 -298 175 -298 263 -315 c 1,129,130
282 -369 m 1,171,172
 278 -368 278 -368 243 -369 c 0,173,174
 236 -368 236 -368 223 -366 c 0,175,176
 191 -361 191 -361 168 -369 c 0,177,178
 135 -383 135 -383 132 -394 c 1,179,180
 131 -409 131 -409 159 -409 c 0,181,182
 162 -409 162 -409 163 -408 c 0,183,184
 171 -406 171 -406 239 -384 c 1,185,186
 273 -375 273 -375 282 -369 c 1,171,172
299 -371 m 1,187,-1
 297 -372 l 1,188,-1
 299 -371 l 1,187,-1
320 -371 m 1,189,-1
 318 -372 l 1,190,-1
 320 -371 l 1,189,-1
EndSplineSet
AlternateSubs2: "gsub_alternate_dfl_aalt_arab_FAR_Lookup_01_Subtable_01" uniFE88 uniFE87
Substitution2: "gsub_single_rtl_fina_arab_FAR_Lookup_01_Subtable_01" uniFE88
EndChar

StartChar: uniFE88
Encoding: 65160 65160 344
Width: 557
VWidth: 1639
GlyphClass: 2
Flags: W
LayerCount: 2
Fore
SplineSet
581 -23 m 1,0,1
 429 -23 429 -23 425 -23 c 0,2,3
 303 -12 303 -12 261 57 c 1,4,5
 219 131 219 131 248 283 c 0,6,7
 251 298 251 298 257 329 c 0,8,9
 261 349 261 349 263 359 c 0,10,11
 280 439 280 439 353 822 c 0,12,13
 357 846 357 846 364 895 c 0,14,15
 373 970 373 970 383 1007 c 0,16,17
 395 1058 395 1058 395 1060 c 0,18,19
 397 1065 397 1065 400 1068 c 0,20,21
 412 1085 412 1085 466 1116 c 0,22,23
 471 1119 471 1119 473 1120 c 0,24,25
 623 1217 623 1217 638 1227 c 0,26,27
 643 1230 643 1230 653 1237 c 0,28,29
 692 1264 692 1264 708 1268 c 0,30,31
 714 1269 714 1269 727 1266 c 0,32,33
 737 1264 737 1264 741 1264 c 2,34,-1
 758 1264 l 1,35,36
 762 1258 762 1258 750 1212 c 2,37,-1
 714 1056 l 1,38,-1
 624 666 l 2,39,40
 620 649 620 649 610 613 c 0,41,42
 582 510 582 510 586 466 c 0,43,44
 590 399 590 399 678 399 c 1,45,-1
 668 353 l 1,46,47
 590 353 590 353 581 355 c 0,48,49
 550 364 550 364 538 387 c 0,50,51
 527 412 527 412 536 461 c 0,52,53
 539 482 539 482 571 620 c 2,54,-1
 705 1202 l 1,55,56
 676 1186 676 1186 533 1092 c 0,57,58
 519 1083 519 1083 508 1076 c 0,59,60
 502 1072 502 1072 487 1063 c 0,61,62
 445 1038 445 1038 433 1022 c 0,63,64
 431 1019 431 1019 429.5 1016.5 c 128,-1,65
 428 1014 428 1014 428 1009.5 c 128,-1,66
 428 1005 428 1005 427.5 1003.5 c 128,-1,67
 427 1002 427 1002 427 996 c 2,68,-1
 426 991 l 1,69,70
 418 941 418 941 416 920 c 0,71,72
 409 870 409 870 389 769 c 0,73,74
 377 707 377 707 372 677 c 0,75,76
 362 614 362 614 317 407 c 0,77,78
 285 253 285 253 289 197 c 0,79,80
 295 114 295 114 345 71 c 0,81,82
 368 51 368 51 403 39 c 0,83,84
 457 22 457 22 592 23 c 1,85,-1
 581 -23 l 1,0,1
7 -413 m 1,86,87
 -4 -372 -4 -372 -4 -369 c 0,88,89
 -4 -272 -4 -272 77 -176 c 0,90,91
 81 -171 81 -171 84 -167 c 0,92,93
 130 -115 130 -115 178 -105 c 1,94,95
 277 -88 277 -88 321 -138 c 0,96,97
 339 -160 339 -160 341 -189 c 0,98,99
 342 -200 342 -200 335 -230 c 0,100,101
 328 -257 328 -257 321 -271 c 1,102,-1
 344 -264 l 1,103,-1
 342 -271 l 1,104,-1
 365 -264 l 1,105,106
 328 -384 328 -384 328 -385 c 0,107,108
 313 -425 313 -425 311 -428 c 0,109,110
 308 -430 308 -430 280 -440 c 0,111,112
 227 -457 227 -457 203 -466 c 0,113,114
 143 -489 143 -489 -30 -582 c 0,115,116
 -34 -584 -34 -584 -37 -585 c 1,117,-1
 -32 -569 l 1,118,-1
 -58 -585 l 1,119,-1
 -53 -569 l 1,120,-1
 -80 -585 l 1,121,122
 -72 -552 -72 -552 -55 -492 c 0,123,124
 -46 -455 -46 -455 -42 -448 c 0,125,126
 -26 -426 -26 -426 7 -413 c 1,86,87
285 -215 m 1,127,128
 279 -197 279 -197 262 -180 c 0,129,130
 230 -151 230 -151 205 -153 c 1,131,132
 142 -161 142 -161 77 -265 c 0,133,134
 74 -270 74 -270 72 -272 c 0,135,136
 50 -314 50 -314 49 -325 c 0,137,138
 49 -363 49 -363 94 -387 c 1,139,-1
 68 -400 l 1,140,-1
 89 -408 l 1,141,-1
 89 -410 l 1,142,-1
 63 -423 l 1,143,-1
 84 -431 l 1,144,-1
 84 -433 l 1,145,146
 61 -440 61 -440 11 -477 c 0,147,148
 -10 -493 -10 -493 -14 -507 c 1,149,-1
 174 -418 l 1,150,-1
 247 -394 l 1,151,-1
 277 -384 l 1,152,-1
 285 -367 l 1,153,-1
 299 -328 l 1,154,155
 289 -331 289 -331 268 -338 c 0,156,157
 225 -354 225 -354 203 -358 c 0,158,159
 203 -360 203 -360 180 -358 c 2,160,-1
 158 -358 l 2,161,162
 116 -357 116 -357 101 -343 c 1,163,164
 93 -331 93 -331 99 -305 c 0,165,166
 110 -251 110 -251 137 -235 c 0,167,168
 196 -198 196 -198 285 -215 c 1,127,128
305 -269 m 1,169,170
 301 -268 301 -268 265 -269 c 0,171,172
 258 -268 258 -268 245 -266 c 0,173,174
 213 -261 213 -261 190 -269 c 0,175,176
 157 -283 157 -283 154 -294 c 1,177,178
 153 -309 153 -309 181 -309 c 0,179,180
 184 -309 184 -309 186 -308 c 0,181,182
 194 -306 194 -306 261 -284 c 1,183,184
 296 -275 296 -275 305 -269 c 1,169,170
321 -271 m 1,185,-1
 319 -272 l 1,186,-1
 321 -271 l 1,185,-1
342 -271 m 1,187,-1
 340 -272 l 1,188,-1
 342 -271 l 1,187,-1
EndSplineSet
EndChar

StartChar: uniFE89
Encoding: 1574 1574 345
AltUni2: 00fe89.ffffffff.0
Width: 1208
VWidth: 1639
GlyphClass: 2
Flags: W
LayerCount: 2
Fore
SplineSet
875 20 m 1,0,1
 846 20 846 20 770 31 c 1,2,3
 634 44 634 44 612 49 c 0,4,5
 585 56 585 56 564 66 c 0,6,7
 516 88 516 88 499 121 c 1,8,9
 473 179 473 179 526 318 c 0,10,11
 545 368 545 368 582 433 c 1,12,13
 754 725 754 725 928 769 c 1,14,15
 1030 792 1030 792 1097 756 c 1,16,17
 1166 715 1166 715 1186 606 c 0,18,19
 1189 591 1189 591 1190 577 c 0,20,21
 1193 520 1193 520 1166 441 c 0,22,23
 1153 405 1153 405 1144 397 c 0,24,25
 1137 393 1137 393 1102 394 c 1,26,27
 1082 396 1082 396 1010 423 c 1,28,29
 949 441 949 441 923 443 c 0,30,31
 842 445 842 445 767 379 c 0,32,33
 762 374 762 374 758 371 c 1,34,35
 799 355 799 355 942 335 c 0,36,37
 958 333 958 333 970 331 c 0,38,39
 1055 319 1055 319 1081 285 c 0,40,41
 1084 281 1084 281 1086 279 c 0,42,43
 1118 226 1118 226 1089 100 c 0,44,45
 1024 -176 1024 -176 872 -297 c 0,46,47
 716 -422 716 -422 464 -443 c 0,48,49
 433 -446 433 -446 397 -448 c 0,50,51
 237 -457 237 -457 141 -426 c 1,52,53
 66 -400 66 -400 23 -362 c 1,54,55
 -111 -235 -111 -235 -11 69 c 0,56,57
 3 110 3 110 20 151 c 0,58,59
 79 294 79 294 118 353 c 1,60,61
 150 404 150 404 177 418 c 0,62,63
 198 429 198 429 249 425 c 0,64,65
 304 419 304 419 283 326 c 0,66,67
 270 272 270 272 254 230 c 0,68,69
 230 165 230 165 230 162 c 0,70,71
 221 109 221 109 245 62 c 1,72,73
 287 -9 287 -9 411 -31 c 0,74,75
 608 -68 608 -68 875 18 c 1,76,-1
 875 20 l 1,0,1
1118 448 m 1,77,78
 1150 511 1150 511 1125 592 c 1,79,80
 1080 726 1080 726 989 728 c 0,81,82
 971 728 971 728 939 718 c 0,83,84
 865 693 865 693 784 615 c 1,85,86
 682 513 682 513 596 354 c 1,87,88
 537 242 537 242 545 192 c 0,89,90
 547 180 547 180 550 171 c 0,91,92
 568 133 568 133 617 112 c 0,93,94
 664 90 664 90 801 79 c 0,95,96
 814 78 814 78 823 77 c 0,97,98
 836 75 836 75 864 72 c 0,99,100
 892 69 892 69 905 67 c 0,101,102
 938 63 938 63 947 57 c 1,103,104
 954 48 954 48 949 33 c 0,105,106
 948 29 948 29 946 20 c 0,107,108
 941 -8 941 -8 928 -18 c 0,109,110
 925 -20 925 -20 921 -22.5 c 128,-1,111
 917 -25 917 -25 912 -26.5 c 128,-1,112
 907 -28 907 -28 904.5 -29.5 c 128,-1,113
 902 -31 902 -31 896 -32.5 c 128,-1,114
 890 -34 890 -34 888.5 -35 c 128,-1,115
 887 -36 887 -36 880 -38 c 2,116,-1
 872 -39 l 1,117,118
 814 -56 814 -56 753 -69 c 0,119,120
 575 -104 575 -104 406 -84 c 0,121,122
 272 -67 272 -67 217 -16 c 0,123,124
 200 -1 200 -1 191 20 c 0,125,126
 158 85 158 85 200 208 c 0,127,128
 234 307 234 307 236 315 c 0,129,130
 243 346 243 346 228 366 c 1,131,132
 218 376 218 376 204 369 c 0,133,134
 180 353 180 353 153 312 c 0,135,136
 123 264 123 264 91 195 c 0,137,138
 27 57 27 57 12 -8 c 0,139,140
 -26 -173 -26 -173 46 -281 c 0,141,142
 53 -291 53 -291 59 -298 c 0,143,144
 118 -366 118 -366 241 -390 c 0,145,146
 322 -406 322 -406 436 -399 c 0,147,148
 644 -383 644 -383 787 -290 c 1,149,150
 962 -175 962 -175 1032 51 c 0,151,152
 1036 63 1036 63 1039 74 c 0,153,154
 1076 216 1076 216 1002 264 c 0,155,156
 984 274 984 274 917 285 c 0,157,158
 894 289 894 289 848 296 c 0,159,160
 802 303 802 303 780 307 c 0,161,162
 741 313 741 313 720 320 c 0,163,164
 701 325 701 325 696 333 c 0,165,166
 694 338 694 338 704 374 c 0,167,168
 705 378 705 378 707 384 c 0,169,170
 709 393 709 393 711 397 c 0,171,172
 731 432 731 432 797 466 c 1,173,174
 900 514 900 514 1023 481 c 0,175,176
 1040 477 1040 477 1070 464 c 0,177,178
 1102 452 1102 452 1118 448 c 1,77,78
182 790 m 1,179,180
 171 831 171 831 171 835 c 0,181,182
 171 932 171 932 252 1028 c 0,183,184
 256 1033 256 1033 259 1036 c 0,185,186
 305 1088 305 1088 353 1099 c 1,187,188
 452 1116 452 1116 496 1065 c 0,189,190
 514 1043 514 1043 516 1015 c 0,191,192
 517 1004 517 1004 510 974 c 0,193,194
 503 947 503 947 496 933 c 1,195,-1
 519 940 l 1,196,-1
 517 933 l 1,197,-1
 540 940 l 1,198,199
 503 820 503 820 503 818 c 0,200,201
 488 778 488 778 486 776 c 0,202,203
 483 774 483 774 456 764 c 0,204,205
 403 747 403 747 378 738 c 0,206,207
 318 715 318 715 145 622 c 0,208,209
 141 620 141 620 138 618 c 1,210,-1
 143 635 l 1,211,-1
 117 618 l 1,212,-1
 122 635 l 1,213,-1
 95 618 l 1,214,215
 103 651 103 651 120 712 c 0,216,217
 129 749 129 749 133 756 c 0,218,219
 149 777 149 777 182 790 c 1,179,180
460 989 m 1,220,221
 454 1007 454 1007 438 1023 c 0,222,223
 406 1052 406 1052 380 1051 c 1,224,225
 317 1043 317 1043 252 939 c 0,226,227
 249 934 249 934 247 932 c 0,228,229
 225 890 225 890 224 879 c 0,230,231
 224 841 224 841 269 817 c 1,232,-1
 243 804 l 1,233,-1
 264 795 l 1,234,-1
 264 794 l 1,235,-1
 238 781 l 1,236,-1
 259 772 l 1,237,-1
 259 771 l 1,238,239
 236 764 236 764 186 727 c 0,240,241
 165 711 165 711 161 697 c 1,242,-1
 349 786 l 1,243,-1
 422 810 l 1,244,-1
 452 820 l 1,245,-1
 460 836 l 1,246,-1
 474 876 l 1,247,248
 464 873 464 873 443 865 c 0,249,250
 399 849 399 849 378 846 c 0,251,252
 378 844 378 844 355 845 c 2,253,-1
 333 846 l 2,254,255
 291 847 291 847 277 861 c 1,256,257
 269 873 269 873 275 899 c 0,258,259
 286 953 286 953 312 969 c 0,260,261
 372 1006 372 1006 460 989 c 1,220,221
480 935 m 1,262,263
 476 936 476 936 440 935 c 0,264,265
 433 936 433 936 420 938 c 0,266,267
 388 943 388 943 365 935 c 0,268,269
 332 921 332 921 329 910 c 1,270,271
 328 895 328 895 356 895 c 0,272,273
 359 895 359 895 361 895 c 0,274,275
 369 897 369 897 437 920 c 1,276,277
 471 929 471 929 480 935 c 1,262,263
496 933 m 1,278,-1
 494 932 l 1,279,-1
 496 933 l 1,278,-1
517 933 m 1,280,-1
 515 932 l 1,281,-1
 517 933 l 1,280,-1
EndSplineSet
AlternateSubs2: "gsub_alternate_dfl_aalt_arab_FAR_Lookup_01_Subtable_01" uniFE8A uniFE8B uniFE89 uniFE8C
Substitution2: "gsub_single_rtl_fina_arab_FAR_Lookup_01_Subtable_01" uniFE8A
Substitution2: "gsub_single_rtl_init_arab_FAR_Lookup_01_Subtable_01" uniFE8B
Substitution2: "gsub_single_rtl_medi_arab_FAR_Lookup_01_Subtable_01" uniFE8C
EndChar

StartChar: uniFE8A
Encoding: 65162 65162 346
Width: 1126
VWidth: 1639
GlyphClass: 2
Flags: W
LayerCount: 2
Fore
SplineSet
783 -62 m 1,0,1
 692 -62 692 -62 604 -57 c 0,2,3
 519 -53 519 -53 490 -33 c 1,4,5
 449 -1 449 -1 468 84 c 0,6,7
 479 132 479 132 489 156 c 0,8,9
 527 241 527 241 624 298 c 1,10,11
 704 342 704 342 825 369 c 0,12,13
 956 399 956 399 1214 399 c 0,14,15
 1235 399 1235 399 1247 399 c 1,16,-1
 1236 353 l 1,17,18
 979 353 979 353 852 324 c 0,19,20
 763 303 763 303 689 267 c 0,21,22
 592 221 592 221 542 148 c 1,23,24
 516 108 516 108 512 85 c 1,25,26
 508 23 508 23 575 0 c 0,27,28
 622 -15 622 -15 755 -14 c 0,29,30
 784 -14 784 -14 803 -15 c 0,31,32
 872 -20 872 -20 883 -21 c 0,33,34
 909 -29 909 -29 888 -49 c 1,35,36
 898 -58 898 -58 883 -72 c 1,37,38
 905 -85 905 -85 856 -102 c 0,39,40
 853 -103 853 -103 852 -103 c 0,41,42
 817 -112 817 -112 720 -123 c 0,43,44
 651 -130 651 -130 519 -130 c 0,45,46
 386 -130 386 -130 324 -115 c 0,47,48
 222 -92 222 -92 185 -44 c 0,49,50
 130 29 130 29 182 186 c 0,51,52
 187 202 187 202 212 269 c 1,53,54
 219 293 219 293 204 315 c 1,55,56
 191 324 191 324 189 323 c 0,57,58
 175 320 175 320 153 295 c 2,59,-1
 152 294 l 2,60,61
 123 263 123 263 83 195 c 0,62,63
 -59 -54 -59 -54 -8 -221 c 1,64,65
 28 -329 28 -329 162 -374 c 0,66,67
 358 -438 358 -438 614 -372 c 0,68,69
 762 -334 762 -334 853 -244 c 0,70,71
 887 -210 887 -210 912 -166 c 0,72,73
 931 -132 931 -132 947 -87 c 0,74,75
 970 -18 970 -18 917 30 c 0,76,77
 909 37 909 37 902 41 c 0,78,79
 849 72 849 72 702 71 c 0,80,81
 687 71 687 71 680 71 c 0,82,83
 630 72 630 72 614 77 c 0,84,85
 597 83 597 83 606 94 c 0,86,87
 610 98 610 98 613 100 c 1,88,-1
 614 103 l 1,89,90
 603 113 603 113 619 123 c 1,91,-1
 619 126 l 1,92,93
 601 136 601 136 632 152 c 0,94,95
 634 153 634 153 636 154 c 0,96,97
 671 168 671 168 725 174 c 0,98,99
 742 176 742 176 809 175 c 0,100,101
 984 174 984 174 1050 100 c 0,102,103
 1056 92 1056 92 1067 74 c 0,104,105
 1079 56 1079 56 1085 48 c 0,106,107
 1097 30 1097 30 1097 27 c 0,108,109
 1097 24 1097 24 1097 23 c 2,110,-1
 1160 23 l 1,111,-1
 1149 -23 l 1,112,-1
 1044 -23 l 1,113,114
 1043 -12 1043 -12 1028 5 c 1,115,116
 994 59 994 59 981 69 c 0,117,118
 977 73 977 73 974 75 c 1,119,120
 992 52 992 52 998 41 c 0,121,122
 1012 4 1012 4 992 -84 c 0,123,124
 944 -285 944 -285 771 -374 c 1,125,126
 683 -417 683 -417 568 -435 c 1,127,128
 483 -450 483 -450 346 -449 c 0,129,130
 111 -448 111 -448 9 -371 c 1,131,132
 -110 -273 -110 -273 -52 -20 c 0,133,134
 -25 96 -25 96 19 184 c 0,135,136
 71 283 71 283 104 323 c 0,137,138
 134 360 134 360 159 372 c 0,139,140
 169 376 169 376 207 376 c 0,141,142
 240 375 240 375 250 369 c 1,143,144
 273 341 273 341 256 269 c 0,145,146
 251 246 251 246 233 201 c 0,147,148
 214 151 214 151 209 126 c 0,149,150
 201 80 201 80 218 38 c 1,151,152
 254 -42 254 -42 372 -67 c 0,153,154
 477 -91 477 -91 667 -79 c 0,155,156
 684 -78 684 -78 717 -73 c 0,157,158
 761 -67 761 -67 782 -66 c 1,159,-1
 783 -62 l 1,0,1
974 77 m 1,160,161
 903 137 903 137 769 128 c 0,162,163
 710 123 710 123 698 116 c 1,164,165
 860 116 860 116 915 103 c 0,166,167
 918 102 918 102 919 102 c 0,168,169
 922 101 922 101 967 79 c 0,170,171
 971 77 971 77 974 75 c 1,172,-1
 974 77 l 1,160,161
151 656 m 1,173,174
 140 697 140 697 140 700 c 0,175,176
 140 797 140 797 221 894 c 0,177,178
 225 899 225 899 228 902 c 0,179,180
 274 954 274 954 322 964 c 1,181,182
 421 981 421 981 465 931 c 0,183,184
 483 909 483 909 485 881 c 0,185,186
 486 870 486 870 479 840 c 0,187,188
 472 813 472 813 465 799 c 1,189,-1
 488 805 l 1,190,-1
 486 799 l 1,191,-1
 509 805 l 1,192,193
 472 685 472 685 472 684 c 0,194,195
 457 644 457 644 455 641 c 0,196,197
 452 639 452 639 424 630 c 0,198,199
 371 613 371 613 347 604 c 0,200,201
 287 581 287 581 114 487 c 0,202,203
 110 485 110 485 107 484 c 1,204,-1
 112 500 l 1,205,-1
 86 484 l 1,206,-1
 91 500 l 1,207,-1
 64 484 l 1,208,209
 72 517 72 517 89 577 c 0,210,211
 98 614 98 614 102 622 c 0,212,213
 118 643 118 643 151 656 c 1,173,174
429 854 m 1,214,215
 423 872 423 872 407 889 c 0,216,217
 375 918 375 918 349 917 c 1,218,219
 286 909 286 909 221 805 c 0,220,221
 218 800 218 800 216 797 c 0,222,223
 194 755 194 755 193 745 c 0,224,225
 193 707 193 707 238 682 c 1,226,-1
 212 669 l 1,227,-1
 233 661 l 1,228,-1
 233 659 l 1,229,-1
 207 646 l 1,230,-1
 228 638 l 1,231,-1
 228 636 l 1,232,233
 205 629 205 629 155 592 c 0,234,235
 134 576 134 576 130 563 c 1,236,-1
 318 651 l 1,237,-1
 391 676 l 1,238,-1
 421 686 l 1,239,-1
 429 702 l 1,240,-1
 443 741 l 1,241,242
 433 738 433 738 412 731 c 0,243,244
 368 715 368 715 347 712 c 0,245,246
 347 710 347 710 324 711 c 2,247,-1
 302 712 l 2,248,249
 260 713 260 713 245 727 c 1,250,251
 237 739 237 739 244 764 c 0,252,253
 255 818 255 818 281 835 c 0,254,255
 341 871 341 871 429 854 c 1,214,215
449 800 m 1,256,257
 445 801 445 801 409 800 c 0,258,259
 402 801 402 801 389 804 c 0,260,261
 357 809 357 809 334 800 c 0,262,263
 301 786 301 786 298 776 c 1,264,265
 297 761 297 761 325 761 c 0,266,267
 327 761 327 761 330 761 c 0,268,269
 338 763 338 763 406 786 c 1,270,271
 440 794 440 794 449 800 c 1,256,257
465 799 m 1,272,-1
 463 797 l 1,273,-1
 465 799 l 1,272,-1
486 799 m 1,274,-1
 484 797 l 1,275,-1
 486 799 l 1,274,-1
EndSplineSet
EndChar

StartChar: uniFE8B
Encoding: 65163 65163 347
Width: 497
VWidth: 1639
GlyphClass: 2
Flags: W
LayerCount: 2
Fore
SplineSet
204 884 m 1,0,1
 207 898 207 898 215 927 c 0,2,3
 222 956 222 956 225 969 c 0,4,5
 235 1010 235 1010 240 1018 c 1,6,7
 246 1026 246 1026 273 1046 c 0,8,9
 283 1053 283 1053 287 1058 c 1,10,11
 287 1063 287 1063 281 1074 c 1,12,13
 276 1094 276 1094 278 1114 c 0,14,15
 299 1250 299 1250 390 1327 c 0,16,17
 395 1331 395 1331 398 1333 c 0,18,19
 441 1364 441 1364 502 1364 c 0,20,21
 605 1362 605 1362 623 1292 c 1,22,23
 630 1253 630 1253 603 1197 c 1,24,-1
 627 1205 l 1,25,-1
 624 1197 l 1,26,-1
 649 1205 l 1,27,28
 639 1185 639 1185 643 1182 c 1,29,30
 633 1162 633 1162 638 1159 c 1,31,32
 617 1106 617 1106 606 1074 c 1,33,34
 593 1043 593 1043 593 1041 c 0,35,36
 591 1039 591 1039 588 1037 c 128,-1,37
 585 1035 585 1035 581 1034 c 128,-1,38
 577 1033 577 1033 574.5 1032.5 c 128,-1,39
 572 1032 572 1032 567 1031 c 2,40,-1
 563 1030 l 2,41,42
 553 1027 553 1027 491 1005 c 1,43,44
 403 971 403 971 327 930 c 0,45,46
 315 924 315 924 292 909 c 0,47,48
 261 891 261 891 247 884 c 1,49,-1
 250 899 l 1,50,-1
 225 884 l 1,51,-1
 229 899 l 1,52,-1
 204 884 l 1,0,1
567 1255 m 1,53,54
 561 1273 561 1273 543 1291 c 1,55,56
 511 1318 511 1318 487 1315 c 0,57,58
 422 1307 422 1307 358 1201 c 0,59,60
 356 1198 356 1198 356 1197 c 0,61,62
 332 1157 332 1157 332 1140 c 0,63,64
 332 1105 332 1105 376 1082 c 1,65,-1
 350 1068 l 1,66,-1
 371 1061 l 1,67,-1
 371 1059 l 1,68,-1
 345 1045 l 1,69,-1
 366 1038 l 1,70,-1
 366 1036 l 1,71,72
 344 1028 344 1028 293 991 c 0,73,74
 272 975 272 975 267 961 c 1,75,76
 292 972 292 972 342 997 c 0,77,78
 422 1037 422 1037 463 1053 c 0,79,80
 507 1069 507 1069 529 1076 c 0,81,82
 553 1082 553 1082 559 1086 c 0,83,84
 570 1097 570 1097 580 1138 c 1,85,86
 575 1137 575 1137 520 1118 c 1,87,88
 493 1111 493 1111 449 1112 c 0,89,90
 402 1113 402 1113 387 1122 c 1,91,92
 375 1134 375 1134 380 1164 c 1,93,94
 391 1212 391 1212 407 1227 c 0,95,96
 412 1231 412 1231 416 1233 c 0,97,98
 458 1261 458 1261 544 1256 c 0,99,100
 560 1255 560 1255 567 1255 c 1,53,54
590 1200 m 1,101,102
 583 1201 583 1201 568 1200 c 0,103,104
 553 1199 553 1199 545 1200 c 0,105,106
 497 1206 497 1206 491 1205 c 0,107,108
 482 1203 482 1203 474 1200 c 0,109,110
 439 1185 439 1185 435 1176 c 1,111,112
 433 1161 433 1161 467 1159 c 1,113,114
 485 1161 485 1161 556 1187 c 0,115,116
 560 1189 560 1189 570 1192 c 0,117,118
 584 1197 584 1197 590 1200 c 1,101,102
264 405 m 1,119,120
 248 448 248 448 197 517 c 0,121,122
 195 520 195 520 187 527 c 0,123,124
 167 550 167 550 168 563 c 1,125,126
 180 612 180 612 181 615 c 0,127,128
 189 632 189 632 238 683 c 0,129,130
 243 688 243 688 245 690 c 0,131,132
 263 711 263 711 300 754 c 0,133,134
 338 797 338 797 355 818 c 0,135,136
 358 822 358 822 366 832 c 0,137,138
 390 863 390 863 403 866 c 0,139,140
 409 868 409 868 425 866 c 0,141,142
 433 865 433 865 436 864 c 0,143,144
 439 863 439 863 444 865 c 0,145,146
 452 865 452 865 455 863 c 0,147,148
 462 855 462 855 480 817 c 1,149,150
 503 755 503 755 510 697 c 0,151,152
 522 589 522 589 484 425 c 0,153,154
 459 320 459 320 434 249 c 0,155,156
 384 111 384 111 307 49 c 0,157,158
 218 -23 218 -23 52 -24 c 0,159,160
 36 -24 36 -24 4 -23 c 0,161,162
 -22 -23 -22 -23 -34 -23 c 1,163,-1
 -24 23 l 1,164,165
 123 23 123 23 190 48 c 0,166,167
 237 66 237 66 273 95 c 0,168,169
 344 154 344 154 394 272 c 1,170,171
 475 476 475 476 456 648 c 0,172,173
 448 712 448 712 430 759 c 1,174,175
 412 796 412 796 410 799 c 1,176,177
 404 790 404 790 356 734 c 0,178,179
 352 729 352 729 349 727 c 0,180,181
 306 679 306 679 229 589 c 1,182,183
 238 583 238 583 259 553 c 0,184,185
 295 502 295 502 308 474 c 0,186,187
 325 439 325 439 319 418 c 0,188,189
 317 413 317 413 315 402 c 0,190,191
 307 368 307 368 295 359 c 1,192,193
 275 350 275 350 222 353 c 1,194,-1
 52 353 l 1,195,-1
 63 399 l 1,196,-1
 177 399 l 2,197,198
 240 399 240 399 264 405 c 1,119,120
EndSplineSet
EndChar

StartChar: uniFE8C
Encoding: 65164 65164 348
Width: 455
VWidth: 1639
GlyphClass: 2
Flags: W
LayerCount: 2
Fore
SplineSet
295 907 m 1,0,1
 280 948 280 948 294 1010 c 0,2,3
 317 1110 317 1110 391 1175 c 0,4,5
 419 1199 419 1199 447 1210 c 1,6,7
 483 1222 483 1222 541 1215 c 1,8,9
 606 1205 606 1205 625 1150 c 0,10,11
 628 1140 628 1140 629 1132 c 0,12,13
 629 1130 629 1130 625 1100 c 0,14,15
 619 1064 619 1064 606 1048 c 1,16,-1
 631 1055 l 1,17,-1
 628 1048 l 1,18,-1
 652 1055 l 1,19,-1
 638 1002 l 1,20,-1
 597 889 l 1,21,22
 578 886 578 886 515 863 c 0,23,24
 427 831 427 831 330 781 c 0,25,26
 321 776 321 776 302 764 c 0,27,28
 266 741 266 741 249 735 c 1,29,-1
 254 749 l 1,30,-1
 227 735 l 1,31,-1
 232 749 l 1,32,-1
 206 735 l 1,33,34
 207 739 207 739 228 817 c 0,35,36
 232 830 232 830 235 840 c 0,37,38
 242 867 242 867 246 872 c 0,39,40
 262 894 262 894 295 907 c 1,0,1
571 1105 m 1,41,42
 565 1123 565 1123 548 1140 c 0,43,44
 517 1168 517 1168 494 1168 c 0,45,46
 438 1164 438 1164 373 1069 c 0,47,48
 335 1016 335 1016 335 991 c 0,49,50
 337 955 337 955 380 933 c 1,51,-1
 356 920 l 1,52,-1
 355 918 l 1,53,-1
 375 910 l 1,54,-1
 350 897 l 1,55,-1
 350 895 l 1,56,-1
 369 887 l 1,57,58
 343 875 343 875 304 846 c 0,59,60
 277 826 277 826 271 812 c 1,61,62
 407 881 407 881 483 909 c 0,63,64
 549 933 549 933 565 935 c 1,65,-1
 585 991 l 1,66,67
 576 988 576 988 557 980 c 0,68,69
 515 964 515 964 495 961 c 0,70,71
 495 959 495 959 469 960 c 2,72,-1
 444 961 l 2,73,74
 399 962 399 962 386 977 c 1,75,76
 377 992 377 992 389 1033 c 1,77,78
 396 1059 396 1059 400 1066 c 0,79,80
 416 1089 416 1089 452 1099 c 0,81,82
 503 1114 503 1114 571 1105 c 1,41,42
595 1051 m 1,83,84
 588 1052 588 1052 573 1051 c 0,85,86
 558 1050 558 1050 551 1051 c 0,87,88
 502 1057 502 1057 495 1056 c 0,89,90
 486 1054 486 1054 477 1051 c 0,91,92
 443 1038 443 1038 438 1027 c 1,93,94
 435 1014 435 1014 466 1010 c 0,95,96
 471 1010 471 1010 473 1010 c 0,97,98
 484 1011 484 1011 544 1033 c 0,99,100
 548 1034 548 1034 550 1035 c 0,101,102
 590 1048 590 1048 595 1051 c 1,83,84
63 399 m 1,103,104
 151 399 151 399 188 418 c 0,105,106
 205 428 205 428 219 441 c 0,107,108
 237 458 237 458 274 532 c 0,109,110
 279 541 279 541 282 546 c 0,111,112
 305 586 305 586 325 597 c 1,113,114
 339 602 339 602 390 602 c 1,115,116
 422 600 422 600 425 561 c 0,117,118
 426 547 426 547 426 517 c 0,119,120
 424 468 424 468 431 448 c 0,121,122
 451 398 451 398 544 398 c 0,123,124
 549 398 549 398 560 398 c 0,125,126
 571 398 571 398 575 399 c 1,127,-1
 565 353 l 1,128,129
 554 353 554 353 529 351 c 0,130,131
 421 346 421 346 391 377 c 0,132,133
 386 383 386 383 382 389 c 0,134,135
 368 411 368 411 372 485 c 0,136,137
 373 502 373 502 373 512 c 0,138,139
 369 546 369 546 355 548 c 1,140,141
 340 545 340 545 319 512 c 0,142,143
 312 500 312 500 301 474 c 0,144,145
 274 417 274 417 253 395 c 0,146,147
 205 348 205 348 100 351 c 0,148,149
 55 352 55 352 52 353 c 1,150,-1
 63 399 l 1,103,104
248 131 m 1,151,-1
 251 131 l 1,152,-1
 258 115 l 1,153,-1
 270 131 l 1,154,-1
 273 131 l 1,155,-1
 280 115 l 1,156,-1
 291 131 l 1,157,-1
 294 131 l 1,158,159
 323 36 323 36 415 23 c 1,160,161
 414 20 414 20 452 21 c 2,162,-1
 489 23 l 1,163,-1
 478 -23 l 1,164,165
 369 -23 369 -23 349 -19 c 0,166,167
 311 -11 311 -11 286 10 c 0,168,169
 260 32 260 32 254 52 c 1,170,-1
 251 52 l 1,171,172
 230 24 230 24 180 0 c 0,173,174
 123 -28 123 -28 5 -24 c 0,175,176
 -22 -23 -22 -23 -34 -23 c 1,177,-1
 -24 23 l 1,178,179
 90 23 90 23 140 44 c 0,180,181
 177 61 177 61 209 89 c 1,182,183
 239 117 239 117 248 131 c 1,151,-1
EndSplineSet
EndChar

StartChar: alefarabic
Encoding: 1575 1575 349
AltUni2: 00fe8d.ffffffff.0
Width: 594
VWidth: 1639
GlyphClass: 2
Flags: HW
AnchorPoint: "GposMark2BaseAnchorClassErabAbove_01_02" 471.5 1429 basechar 0
AnchorPoint: "GposMark2BaseAnchorClassErabBelow_01_02" 471.5 -180 basechar 0
LayerCount: 2
Fore
SplineSet
675 1258 m 1,0,1
 701 1279 701 1279 698 1225 c 0,2,3
 698 1217 698 1217 696 1203 c 0,4,5
 695 1196 695 1196 695 1194 c 0,6,7
 688 1110 688 1110 666 948 c 0,8,9
 655 872 655 872 595 617 c 2,10,-1
 541 379 l 1,11,12
 514 292 514 292 472 195 c 1,13,14
 414 54 414 54 357 -5 c 0,15,16
 331 -30 331 -30 288 -26 c 2,17,-1
 287 -26 l 2,18,19
 263 -25 263 -25 258 -20 c 0,20,21
 242 2 242 2 242 66 c 0,22,23
 242 71 242 71 251 262 c 0,24,25
 256 351 256 351 273 526 c 1,26,27
 281 629 281 629 295 790 c 0,28,29
 296 803 296 803 298 829 c 0,30,31
 301 889 301 889 307 918 c 0,32,33
 318 965 318 965 320 969 c 0,34,35
 326 978 326 978 346 995 c 0,36,37
 365 1011 365 1011 394 1040 c 0,38,39
 450 1091 450 1091 557 1191 c 0,40,41
 627 1255 l 1,42,43
 649 1271 649 1271 653 1258 c 1,44,45
 671 1270 671 1270 675 1258 c 1,0,1
643 1192 m 1,46,47
 632 1185 632 1185 583 1138 c 0,48,49
 579 1135 579 1135 577 1133 c 0,50,51
 525 1087 525 1087 430 997 c 0,52,53
 422 990 422 990 406 975 c 0,54,55
 389 960 389 960 382 953 c 0,56,57
 361 933 361 933 358 928 c 0,58,59
 356 922 356 922 352 876 c 0,60,61
 351 857 351 857 347 818 c 0,62,63
 343 779 343 779 342 761 c 0,64,65
 329 633 329 633 308 349 c 0,66,67
 295 183 295 183 295 107 c 0,68,69
 295 83 295 83 301 49 c 1,70,71
 309 31 l 1,72,73
 312 31 312 31 315 32.5 c 128,-1,74
 318 34 318 34 322 39 c 2,75,-1
 326 43 l 2,76,77
 341 58 341 58 362 89 c 0,78,79
 411 161 411 161 464 300 c 0,80,81
 515 430 515 430 575 718 c 0,82,83
 578 731 578 731 580 741 c 0,84,85
 621 946 621 946 632 1048 c 1,86,87
 645 1139 645 1139 643 1192 c 1,46,47
EndSplineSet
AlternateSubs2: "gsub_alternate_dfl_aalt_arab_FAR_Lookup_01_Subtable_01" uniFE8E alefarabic
Substitution2: "gsub_single_rtl_fina_arab_FAR_Lookup_01_Subtable_01" uniFE8E
EndChar

StartChar: uniFE8E
Encoding: 65166 65166 350
Width: 501
VWidth: 1639
GlyphClass: 2
Flags: HW
AnchorPoint: "GposMark2BaseAnchorClassErabAbove_01_02" 435 1419 basechar 0
AnchorPoint: "GposMark2BaseAnchorClassErabBelow_01_02" 435 -173 basechar 0
LayerCount: 2
Fore
SplineSet
526 -23 m 1,0,1
 374 -23 374 -23 369 -23 c 0,2,3
 247 -12 247 -12 206 57 c 1,4,5
 164 131 164 131 193 283 c 0,6,7
 196 298 196 298 202 329 c 0,8,9
 206 349 206 349 208 359 c 0,10,11
 225 439 225 439 298 822 c 0,12,13
 302 846 302 846 309 895 c 0,14,15
 318 970 318 970 327 1007 c 0,16,17
 339 1058 339 1058 340 1060 c 0,18,19
 342 1065 342 1065 344 1068 c 0,20,21
 356 1085 356 1085 411 1116 c 0,22,23
 416 1119 416 1119 417 1120 c 0,24,25
 567 1217 567 1217 582 1227 c 0,26,27
 587 1230 587 1230 598 1237 c 0,28,29
 637 1264 637 1264 653 1268 c 0,30,31
 659 1269 659 1269 672 1266 c 0,32,33
 682 1264 682 1264 686 1264 c 2,34,-1
 702 1264 l 1,35,36
 706 1258 706 1258 695 1212 c 2,37,-1
 659 1056 l 1,38,-1
 569 666 l 2,39,40
 565 649 565 649 555 613 c 0,41,42
 527 510 527 510 530 466 c 0,43,44
 534 399 534 399 623 399 c 1,45,-1
 612 353 l 1,46,47
 534 353 534 353 525 355 c 0,48,49
 494 364 494 364 483 387 c 0,50,51
 472 412 472 412 480 461 c 0,52,53
 483 482 483 482 515 620 c 2,54,-1
 650 1202 l 1,55,56
 621 1186 621 1186 478 1092 c 0,57,58
 464 1083 464 1083 453 1076 c 0,59,60
 447 1072 447 1072 432 1063 c 0,61,62
 390 1038 390 1038 378 1022 c 0,63,64
 376 1019 376 1019 374.5 1016.5 c 128,-1,65
 373 1014 373 1014 373 1009.5 c 128,-1,66
 373 1005 373 1005 372.5 1003.5 c 128,-1,67
 372 1002 372 1002 371 996 c 2,68,-1
 371 991 l 1,69,70
 363 941 363 941 361 920 c 0,71,72
 354 870 354 870 334 769 c 0,73,74
 322 707 322 707 317 677 c 0,75,76
 307 614 307 614 262 407 c 0,77,78
 230 253 230 253 233 197 c 0,79,80
 239 114 239 114 289 71 c 0,81,82
 312 51 312 51 348 39 c 0,83,84
 402 22 402 22 536 23 c 1,85,-1
 526 -23 l 1,0,1
EndSplineSet
EndChar

StartChar: afii57416
Encoding: 1576 1576 351
AltUni2: 00fe8f.ffffffff.0
Width: 1257
VWidth: 1639
GlyphClass: 2
Flags: HW
AnchorPoint: "GposMark2BaseAnchorClassErabAbove_01_02" 635 994 basechar 0
AnchorPoint: "GposMark2BaseAnchorClassErabBelow_01_02" 635 -555 basechar 0
LayerCount: 2
Fore
SplineSet
1106 841 m 0,0,1
 1109 842 1109 842 1121 840 c 1,2,3
 1150 844 1150 844 1158 841 c 0,4,5
 1169 835 1169 835 1188 805 c 0,6,7
 1241 724 1241 724 1242 617 c 0,8,9
 1243 555 1243 555 1219 453 c 0,10,11
 1146 143 1146 143 938 31 c 0,12,13
 811 -36 811 -36 587 -46 c 0,14,15
 447 -51 447 -51 346 -41 c 0,16,17
 207 -25 207 -25 140 25 c 1,18,19
 27 115 27 115 81 353 c 0,20,21
 101 439 101 439 124 492 c 0,22,23
 173 611 173 611 221 653 c 0,24,25
 252 680 252 680 298 670 c 0,26,27
 325 663 325 663 330 643 c 0,28,29
 334 627 334 627 321 566 c 0,30,31
 320 562 320 562 319 558 c 0,32,33
 308 492 308 492 330 453 c 1,34,35
 364 402 364 402 468 382 c 1,36,37
 546 370 546 370 732 371 c 0,38,39
 869 371 869 371 918 383 c 0,40,41
 939 388 939 388 958 395 c 0,42,43
 960 396 960 396 964 398 c 0,44,45
 978 405 978 405 981 410 c 1,46,47
 982 416 982 416 968 435 c 0,48,49
 943 471 943 471 911 497 c 1,50,51
 894 516 l 1,52,53
 893 520 893 520 892 522 c 0,54,55
 894 564 894 564 946 632 c 0,56,57
 950 637 950 637 951 638 c 0,58,59
 1001 706 1001 706 1048 768 c 1,60,-1
 1088 822 l 2,61,62
 1101 838 1101 838 1106 841 c 0,0,1
1122 777 m 1,63,64
 1114 769 1114 769 1081 723 c 0,65,66
 1067 703 1067 703 997 612 c 0,67,68
 978 585 978 585 968 572 c 0,69,70
 958 559 958 559 956 554 c 0,71,72
 956 548 956 548 984 524 c 0,73,74
 986 522 986 522 987 522 c 0,75,76
 1038 471 1038 471 1043 443 c 0,77,78
 1044 436 1044 436 1044 431 c 0,79,80
 1044 429 1044 429 1038 415 c 1,81,82
 1032 377 1032 377 1021 367 c 0,83,84
 976 333 976 333 875 328 c 0,85,86
 850 327 850 327 839 326 c 0,87,88
 795 322 795 322 619 323 c 0,89,90
 446 323 446 323 383 341 c 0,91,92
 344 352 344 352 315 369 c 0,93,94
 297 381 297 381 286 394 c 0,95,96
 254 433 254 433 270 524 c 0,97,98
 271 529 271 529 272 539 c 0,99,100
 275 558 275 558 277 566 c 0,101,102
 282 617 282 617 266 615 c 0,103,104
 264 615 264 615 262 613 c 0,105,106
 247 604 247 604 229 581 c 0,107,108
 203 548 203 548 167 474 c 1,109,110
 85 297 85 297 127 167 c 0,111,112
 151 97 151 97 208 61 c 0,113,114
 279 17 279 17 399 5 c 1,115,116
 548 -12 548 -12 703 15 c 1,117,118
 853 39 853 39 952 105 c 0,119,120
 1096 201 1096 201 1158 389 c 0,121,122
 1206 534 1206 534 1179 654 c 0,123,124
 1161 735 1161 735 1122 777 c 1,63,64
505 -105 m 1,125,126
 506 -102 506 -102 514 -103 c 2,127,-1
 522 -105 l 1,128,-1
 558 -105 l 1,129,130
 566 -109 566 -109 577 -125 c 0,131,132
 582 -132 582 -132 591 -144 c 0,133,134
 601 -158 601 -158 605.5 -164 c 128,-1,135
 610 -170 610 -170 621 -182 c 0,136,137
 644 -208 644 -208 649 -223 c 0,138,139
 649 -226 649 -226 643 -241 c 1,140,141
 640 -271 640 -271 635 -280 c 0,142,143
 631 -288 631 -288 611 -305 c 2,144,-1
 556 -353 l 2,145,146
 551 -357 551 -357 541 -367 c 0,147,148
 507 -399 507 -399 493 -403 c 0,149,150
 489 -405 489 -405 483 -404 c 0,151,152
 479 -404 479 -404 477 -403 c 2,153,-1
 441 -403 l 1,154,155
 429 -398 429 -398 403 -357 c 0,156,157
 399 -350 399 -350 396 -346 c 0,158,159
 392 -340 392 -340 381 -328 c 0,160,161
 356 -299 356 -299 352 -284 c 0,162,163
 352 -282 352 -282 358 -264 c 1,164,165
 360 -236 360 -236 366 -226 c 0,166,167
 372 -217 372 -217 392 -200 c 2,168,-1
 443 -156 l 2,169,170
 448 -152 448 -152 459 -140 c 0,171,172
 490 -110 490 -110 505 -105 c 1,125,126
519 -164 m 1,173,174
 500 -176 500 -176 431 -240 c 0,175,176
 422 -248 422 -248 416 -253 c 1,177,-1
 416 -254 l 1,178,179
 423 -265 423 -265 438 -285 c 0,180,181
 453 -306 453 -306 461 -317 c 0,182,183
 462 -319 462 -319 465 -323 c 0,184,185
 474 -338 474 -338 479 -341 c 0,186,187
 482 -341 482 -341 486.5 -338.5 c 128,-1,188
 491 -336 491 -336 497 -330 c 2,189,-1
 503 -325 l 1,190,-1
 564 -272 l 2,191,192
 582 -256 582 -256 582 -253 c 0,193,194
 581 -243 581 -243 562 -223 c 1,195,196
 545 -202 545 -202 519 -164 c 1,173,174
EndSplineSet
AlternateSubs2: "gsub_alternate_dfl_aalt_arab_FAR_Lookup_01_Subtable_01" uniFE90 uniFE91 afii57416 uniFE92
Substitution2: "gsub_single_rtl_fina_arab_FAR_Lookup_01_Subtable_01" uniFE90
Substitution2: "gsub_single_rtl_init_arab_FAR_Lookup_01_Subtable_01" uniFE91
Substitution2: "gsub_single_rtl_medi_arab_FAR_Lookup_01_Subtable_01" uniFE92
EndChar

StartChar: uniFE90
Encoding: 65168 65168 352
Width: 1212
VWidth: 1639
GlyphClass: 2
Flags: HW
AnchorPoint: "GposMark2BaseAnchorClassErabAbove_01_02" 662.5 799 basechar 0
AnchorPoint: "GposMark2BaseAnchorClassErabBelow_01_02" 662.5 -564 basechar 0
LayerCount: 2
Fore
SplineSet
1001 92 m 1,0,1
 799 -63 799 -63 456 -72 c 0,2,3
 430 -73 430 -73 402 -72 c 0,4,5
 215 -71 215 -71 132 -5 c 1,6,7
 -8 112 -8 112 113 454 c 0,8,9
 115 461 115 461 118 466 c 0,10,11
 166 602 166 602 219 641 c 1,12,13
 233 649 233 649 259 649 c 0,14,15
 306 649 306 649 316 639 c 0,16,17
 320 633 320 633 323 628 c 0,18,19
 329 608 329 608 318 536 c 0,20,21
 315 516 315 516 315 503 c 0,22,23
 314 457 314 457 326 431 c 0,24,25
 351 376 351 376 437 354 c 0,26,27
 527 329 527 329 678 341 c 0,28,29
 860 353 860 353 993 420 c 1,30,31
 1067 459 1067 459 1152 531 c 0,32,33
 1156 535 1156 535 1166 545 c 0,34,35
 1210 585 1210 585 1230 589 c 1,36,37
 1281 593 1281 593 1295 584 c 0,38,39
 1322 563 1322 563 1285 473 c 0,40,41
 1284 469 1284 469 1283 467 c 0,42,43
 1272 442 1272 442 1263 425 c 0,44,45
 1256 410 1256 410 1256 408 c 0,46,47
 1259 400 1259 400 1274 400 c 0,48,49
 1286 398 1286 398 1333 399 c 1,50,-1
 1322 353 l 1,51,52
 1312 353 1312 353 1292 352 c 0,53,54
 1242 350 1242 350 1219 354 c 0,55,56
 1194 359 1194 359 1189 371 c 1,57,58
 1189 376 1189 376 1195 387 c 0,59,60
 1196 389 1196 389 1194 393 c 0,61,62
 1194 397 1194 397 1194 399 c 0,63,64
 1195 401 1195 401 1197 405 c 0,65,66
 1199 409 1199 409 1200 410 c 0,67,68
 1201 412 1201 412 1200 416 c 0,69,70
 1200 420 1200 420 1199 421 c 0,71,72
 1201 426 1201 426 1216 446 c 1,73,74
 1227 464 1227 464 1242 495 c 1,75,76
 1255 531 1255 531 1243 531 c 0,77,78
 1238 531 1238 531 1224 519 c 2,79,-1
 1221 517 l 1,80,-1
 1170 472 l 2,81,82
 1086 400 1086 400 1010 366 c 0,83,84
 838 291 838 291 594 290 c 0,85,86
 473 290 473 290 415 300 c 0,87,88
 293 322 293 322 268 392 c 1,89,90
 257 432 257 432 269 522 c 1,91,92
 272 568 272 568 268 582 c 0,93,94
 262 598 262 598 252 594 c 0,95,96
 231 582 231 582 212 549 c 0,97,98
 182 501 182 501 157 440 c 0,99,100
 81 245 81 245 134 116 c 0,101,102
 161 54 161 54 215 21 c 1,103,104
 313 -33 313 -33 471 -25 c 0,105,106
 680 -16 680 -16 842 62 c 0,107,108
 899 90 899 90 944 121 c 0,109,110
 953 127 953 127 971 141 c 0,111,112
 994 159 994 159 1005 166 c 1,113,-1
 1006 153 l 1,114,-1
 1026 166 l 1,115,-1
 1027 153 l 1,116,-1
 1047 166 l 1,117,118
 1063 71 1063 71 1137 36 c 0,119,120
 1148 31 1148 31 1159 28 c 0,121,122
 1182 23 1182 23 1246 23 c 1,123,-1
 1236 -23 l 1,124,125
 1119 -23 1119 -23 1081 -7 c 0,126,127
 1040 11 1040 11 1019 49 c 0,128,129
 1004 76 1004 76 1001 92 c 1,0,1
419 -400 m 1,130,131
 402 -414 402 -414 376 -371 c 0,132,133
 374 -368 374 -368 374 -367 c 0,134,135
 367 -357 367 -357 353 -339 c 0,136,137
 339 -320 339 -320 332 -310 c 0,138,139
 317 -288 317 -288 317 -284 c 0,140,141
 315 -274 315 -274 326 -244 c 1,142,143
 333 -221 333 -221 337 -216 c 0,144,145
 350 -203 350 -203 427 -138 c 0,146,147
 461 -109 461 -109 462 -108 c 0,148,149
 466 -106 466 -106 468 -105 c 1,150,151
 469 -102 469 -102 477 -103 c 2,152,-1
 485 -105 l 2,153,154
 489 -105 489 -105 498 -104 c 0,155,156
 514 -103 514 -103 520 -103 c 0,157,158
 526 -105 526 -105 540 -125 c 0,159,160
 542 -128 542 -128 543 -130 c 0,161,162
 553 -142 553 -142 572 -167 c 0,163,164
 591 -193 591 -193 600 -205 c 0,165,166
 615 -226 615 -226 607 -239 c 0,167,168
 605 -242 605 -242 604 -243 c 0,169,170
 609 -254 609 -254 599 -264 c 1,171,-1
 598 -266 l 1,172,173
 605 -279 605 -279 578 -302 c 2,174,-1
 483 -384 l 2,175,176
 455 -408 455 -408 447 -404 c 0,177,178
 444 -402 444 -402 442 -400 c 2,179,-1
 441 -400 l 1,180,181
 429 -408 429 -408 421 -400 c 1,182,-1
 419 -400 l 1,130,131
548 -253 m 1,183,-1
 501 -190 l 1,184,-1
 481 -167 l 1,185,-1
 453 -189 l 1,186,-1
 378 -254 l 1,187,-1
 443 -343 l 1,188,-1
 445 -343 l 1,189,-1
 548 -254 l 1,190,-1
 548 -253 l 1,183,-1
EndSplineSet
EndChar

StartChar: uniFE91
Encoding: 65169 65169 353
Width: 527
VWidth: 1639
GlyphClass: 2
Flags: HW
AnchorPoint: "GposMark2BaseAnchorClassErabAbove_01_02" 244 1018 basechar 0
AnchorPoint: "GposMark2BaseAnchorClassErabBelow_01_02" 244 -555 basechar 0
LayerCount: 2
Fore
SplineSet
264 405 m 1,0,1
 248 448 248 448 197 517 c 0,2,3
 195 520 195 520 187 527 c 0,4,5
 167 550 167 550 168 563 c 1,6,7
 180 612 180 612 181 615 c 0,8,9
 189 632 189 632 238 683 c 0,10,11
 243 688 243 688 245 690 c 0,12,13
 263 711 263 711 300 754 c 0,14,15
 338 797 338 797 355 818 c 0,16,17
 358 822 358 822 366 832 c 0,18,19
 390 863 390 863 403 866 c 0,20,21
 409 868 409 868 425 866 c 0,22,23
 433 865 433 865 436 864 c 0,24,25
 439 863 439 863 444 865 c 0,26,27
 452 865 452 865 455 863 c 0,28,29
 462 855 462 855 480 817 c 1,30,31
 503 755 503 755 510 697 c 0,32,33
 522 589 522 589 484 425 c 0,34,35
 459 320 459 320 434 249 c 0,36,37
 384 111 384 111 307 49 c 0,38,39
 218 -23 218 -23 52 -24 c 0,40,41
 36 -24 36 -24 4 -23 c 0,42,43
 -22 -23 -22 -23 -34 -23 c 1,44,-1
 -24 23 l 1,45,46
 123 23 123 23 190 48 c 0,47,48
 237 66 237 66 273 95 c 0,49,50
 344 154 344 154 394 272 c 1,51,52
 475 476 475 476 456 648 c 0,53,54
 448 712 448 712 430 759 c 1,55,56
 412 796 412 796 410 799 c 1,57,58
 404 790 404 790 356 734 c 0,59,60
 352 729 352 729 349 727 c 0,61,62
 306 679 306 679 229 589 c 1,63,64
 238 583 238 583 259 553 c 0,65,66
 295 502 295 502 308 474 c 0,67,68
 325 439 325 439 319 418 c 0,69,70
 317 413 317 413 315 402 c 0,71,72
 307 368 307 368 295 359 c 1,73,74
 275 350 275 350 222 353 c 1,75,-1
 52 353 l 1,76,-1
 63 399 l 1,77,-1
 177 399 l 2,78,79
 240 399 240 399 264 405 c 1,0,1
268 -266 m 1,80,81
 279 -279 279 -279 241 -308 c 0,82,83
 236 -312 236 -312 234 -313 c 2,84,-1
 160 -377 l 2,85,86
 132 -401 132 -401 130 -402 c 0,87,88
 127 -403 127 -403 126 -403 c 0,89,90
 123 -405 123 -405 118.5 -405 c 128,-1,91
 114 -405 114 -405 107 -405 c 2,92,-1
 100 -405 l 2,93,94
 76 -404 76 -404 73 -403 c 0,95,96
 66 -399 66 -399 52 -377 c 0,97,98
 45 -367 45 -367 31 -349 c 0,99,100
 17 -330 17 -330 11 -321 c 0,101,102
 9 -318 9 -318 3 -311 c 0,103,104
 -11 -293 -11 -293 -14 -284 c 0,105,106
 -16 -284 -16 -284 -12 -275 c 2,107,-1
 -10 -266 l 2,108,109
 -9 -262 -9 -262 -7 -251 c 0,110,111
 -5 -235 -5 -235 -2 -228 c 0,112,113
 4 -219 4 -219 23 -202 c 0,114,115
 33 -194 33 -194 50 -178 c 0,116,117
 68 -162 68 -162 77 -154 c 0,118,119
 81 -151 81 -151 91 -140 c 0,120,121
 126 -106 126 -106 141 -103 c 1,122,123
 178 -99 178 -99 192 -105 c 0,124,125
 200 -109 200 -109 215 -131 c 0,126,127
 221 -140 221 -140 235 -158 c 0,128,129
 249 -177 249 -177 254 -185 c 0,130,131
 277 -214 277 -214 279 -217 c 0,132,133
 283 -232 283 -232 273 -243 c 1,134,135
 280 -254 280 -254 268 -264 c 1,136,-1
 268 -266 l 1,80,81
218 -253 m 1,137,138
 211 -242 211 -242 194 -221 c 0,139,140
 178 -200 178 -200 171 -190 c 0,141,142
 156 -169 156 -169 155 -168 c 0,143,144
 153 -167 153 -167 152 -167 c 0,145,146
 146 -165 146 -165 129 -183 c 0,147,148
 127 -184 127 -184 126 -185 c 2,149,-1
 124 -187 l 1,150,151
 60 -243 60 -243 49 -254 c 1,152,-1
 113 -343 l 1,153,-1
 114 -343 l 1,154,-1
 217 -254 l 1,155,-1
 218 -253 l 1,137,138
EndSplineSet
EndChar

StartChar: uniFE92
Encoding: 65170 65170 354
Width: 455
VWidth: 1639
GlyphClass: 2
Flags: HW
AnchorPoint: "GposMark2BaseAnchorClassErabAbove_01_02" 270.5 752 basechar 0
AnchorPoint: "GposMark2BaseAnchorClassErabBelow_01_02" 270.5 -563 basechar 0
LayerCount: 2
Fore
SplineSet
63 399 m 1,0,1
 151 399 151 399 188 418 c 0,2,3
 205 428 205 428 219 441 c 0,4,5
 237 458 237 458 274 532 c 0,6,7
 279 541 279 541 282 546 c 0,8,9
 305 586 305 586 325 597 c 1,10,11
 339 602 339 602 390 602 c 1,12,13
 422 600 422 600 425 561 c 0,14,15
 426 547 426 547 426 517 c 0,16,17
 424 468 424 468 431 448 c 0,18,19
 451 398 451 398 544 398 c 0,20,21
 549 398 549 398 560 398 c 0,22,23
 571 398 571 398 575 399 c 1,24,-1
 565 353 l 1,25,26
 554 353 554 353 529 351 c 0,27,28
 421 346 421 346 391 377 c 0,29,30
 386 383 386 383 382 389 c 0,31,32
 368 411 368 411 372 485 c 0,33,34
 373 502 373 502 373 512 c 0,35,36
 369 546 369 546 355 548 c 1,37,38
 340 545 340 545 319 512 c 0,39,40
 312 500 312 500 301 474 c 0,41,42
 274 417 274 417 253 395 c 0,43,44
 205 348 205 348 100 351 c 0,45,46
 55 352 55 352 52 353 c 1,47,-1
 63 399 l 1,0,1
248 131 m 1,48,-1
 251 131 l 1,49,-1
 258 115 l 1,50,-1
 270 131 l 1,51,-1
 273 131 l 1,52,-1
 280 115 l 1,53,-1
 291 131 l 1,54,-1
 294 131 l 1,55,56
 323 36 323 36 415 23 c 1,57,58
 414 20 414 20 452 21 c 2,59,-1
 489 23 l 1,60,-1
 478 -23 l 1,61,62
 369 -23 369 -23 349 -19 c 0,63,64
 311 -11 311 -11 286 10 c 0,65,66
 260 32 260 32 254 52 c 1,67,-1
 251 52 l 1,68,69
 230 24 230 24 180 0 c 0,70,71
 123 -28 123 -28 5 -24 c 0,72,73
 -22 -23 -22 -23 -34 -23 c 1,74,-1
 -24 23 l 1,75,76
 90 23 90 23 140 44 c 0,77,78
 177 61 177 61 209 89 c 1,79,80
 239 117 239 117 248 131 c 1,48,-1
136 -400 m 1,81,82
 120 -413 120 -413 96 -375 c 0,83,84
 93 -371 93 -371 92 -369 c 0,85,86
 89 -364 89 -364 54 -315 c 1,87,88
 35 -292 35 -292 33 -284 c 0,89,90
 33 -271 33 -271 42 -246 c 0,91,92
 43 -242 43 -242 45 -235 c 0,93,94
 49 -222 49 -222 54 -216 c 0,95,96
 72 -199 72 -199 143 -138 c 0,97,98
 177 -109 177 -109 179 -108 c 0,99,100
 183 -106 183 -106 185 -105 c 1,101,102
 186 -102 186 -102 193 -103 c 2,103,-1
 201 -105 l 2,104,105
 205 -105 205 -105 215 -104 c 0,106,107
 230 -102 230 -102 237 -103 c 0,108,109
 241 -105 241 -105 260 -128 c 0,110,111
 272 -143 272 -143 294 -173 c 0,112,113
 309 -194 309 -194 316 -203 c 0,114,115
 333 -227 333 -227 321 -243 c 1,116,117
 326 -254 326 -254 316 -264 c 1,118,-1
 315 -266 l 1,119,120
 325 -277 325 -277 296 -301 c 0,121,122
 295 -302 295 -302 293 -303 c 2,123,-1
 291 -305 l 1,124,-1
 196 -387 l 1,125,126
 168 -409 168 -409 159 -400 c 1,127,-1
 158 -400 l 1,128,129
 146 -408 146 -408 138 -400 c 1,130,-1
 136 -400 l 1,81,82
265 -253 m 1,131,132
 234 -213 234 -213 219 -192 c 0,133,134
 202 -169 202 -169 199 -167 c 0,135,136
 196 -167 196 -167 191.5 -169.5 c 128,-1,137
 187 -172 187 -172 181 -178 c 2,138,-1
 176 -184 l 1,139,-1
 117 -235 l 2,140,141
 100 -251 100 -251 98 -256 c 1,142,143
 99 -260 99 -260 115 -280 c 0,144,145
 152 -333 152 -333 155 -336 c 0,146,147
 159 -340 159 -340 162 -343 c 1,148,-1
 265 -254 l 1,149,-1
 265 -253 l 1,131,132
EndSplineSet
EndChar

StartChar: afii57417
Encoding: 1577 1577 355
AltUni2: 00fe93.ffffffff.0
Width: 668
VWidth: 1639
GlyphClass: 2
Flags: HW
AnchorPoint: "GposMark2BaseAnchorClassErabAbove_01_02" 332 1384 basechar 0
AnchorPoint: "GposMark2BaseAnchorClassErabBelow_01_02" 332 -173 basechar 0
LayerCount: 2
Fore
SplineSet
490 968 m 1,0,1
 476 955 476 955 464 974 c 2,2,-1
 462 976 l 2,3,4
 450 991 450 991 431 1018 c 0,5,6
 422 1029 422 1029 419 1030 c 0,7,8
 416 1030 416 1030 405 1021 c 2,9,-1
 402 1018 l 2,10,11
 395 1012 395 1012 382 1002 c 0,12,13
 368 991 368 991 363 986 c 0,14,15
 360 984 360 984 353 978 c 0,16,17
 338 966 338 966 331 963 c 0,18,19
 325 961 325 961 309 963 c 0,20,21
 300 964 300 964 297 964 c 0,22,23
 295 964 295 964 291 963 c 0,24,25
 286 962 286 962 284 963 c 0,26,27
 270 968 270 968 243 1009 c 2,28,-1
 212 1053 l 2,29,30
 205 1065 205 1065 204 1073 c 0,31,32
 205 1080 205 1080 210 1093 c 0,33,34
 214 1104 214 1104 216 1109 c 0,35,36
 217 1112 217 1112 216 1115 c 0,37,38
 217 1122 217 1122 218 1125 c 0,39,40
 228 1143 228 1143 279 1184 c 0,41,42
 286 1190 286 1190 290 1192 c 0,43,44
 329 1226 329 1226 334 1229 c 0,45,46
 338 1231 338 1231 340 1232 c 0,47,48
 343 1233 343 1233 353 1230 c 0,49,50
 358 1230 358 1230 368 1232 c 0,51,52
 382 1234 382 1234 388 1233 c 0,53,54
 395 1230 395 1230 406 1214 c 2,55,-1
 448 1159 l 1,56,57
 458 1169 458 1169 510 1214 c 0,58,59
 530 1231 530 1231 536 1233 c 0,60,61
 538 1234 538 1234 542 1232 c 0,62,63
 547 1230 547 1230 549 1230 c 0,64,65
 551 1230 551 1230 554 1232 c 0,66,67
 558 1233 558 1233 559 1233 c 0,68,69
 561 1233 561 1233 563 1231 c 0,70,71
 567 1229 567 1229 570 1230 c 0,72,73
 572 1230 572 1230 576 1232 c 0,74,75
 580 1233 580 1233 581 1233 c 0,76,77
 589 1232 589 1232 611 1201 c 0,78,79
 613 1198 613 1198 614 1197 c 0,80,81
 627 1181 627 1181 649 1150 c 0,82,83
 662 1130 662 1130 663 1123 c 0,84,85
 662 1121 662 1121 658 1109 c 0,86,87
 657 1105 657 1105 653 1086 c 0,88,89
 652 1084 652 1084 652 1079 c 0,90,91
 653 1074 653 1074 651 1071 c 0,92,93
 649 1068 649 1068 646.5 1064.5 c 128,-1,94
 644 1061 644 1061 641 1058 c 128,-1,95
 638 1055 638 1055 636 1053 c 128,-1,96
 634 1051 634 1051 628 1046 c 2,97,-1
 623 1041 l 2,98,99
 587 1008 587 1008 550 979 c 0,100,101
 524 959 524 959 518 963 c 0,102,103
 515 966 515 966 512 968 c 1,104,-1
 511 968 l 1,105,106
 498 958 498 958 491 968 c 1,107,-1
 490 968 l 1,0,1
321 1023 m 1,108,109
 331 1032 331 1032 351 1049 c 0,110,111
 372 1066 372 1066 381 1074 c 0,112,113
 403 1094 403 1094 405 1096 c 0,114,115
 408 1104 408 1104 396 1113 c 2,116,-1
 395 1114 l 2,117,118
 390 1121 390 1121 379 1134 c 0,119,120
 368 1148 368 1148 363 1155 c 0,121,122
 353 1167 353 1167 350 1168 c 0,123,124
 344 1167 344 1167 312 1138 c 0,125,126
 309 1135 309 1135 301 1129 c 0,127,128
 274 1108 274 1108 270 1099 c 0,129,130
 269 1096 269 1096 270.5 1091.5 c 128,-1,131
 272 1087 272 1087 276 1082 c 2,132,-1
 280 1077 l 1,133,134
 314 1030 314 1030 321 1023 c 1,108,109
600 1097 m 1,135,-1
 562 1150 l 1,136,-1
 546 1168 l 1,137,-1
 527 1155 l 1,138,-1
 479 1114 l 1,139,-1
 463 1096 l 1,140,-1
 475 1076 l 1,141,-1
 516 1023 l 1,142,-1
 600 1096 l 1,143,-1
 600 1097 l 1,135,-1
424 1100 m 1,144,-1
 421 1095 l 1,145,-1
 423 1094 l 1,146,-1
 426 1099 l 1,147,-1
 424 1100 l 1,144,-1
446 1100 m 1,148,-1
 443 1095 l 1,149,-1
 444 1094 l 1,150,-1
 447 1099 l 1,151,-1
 446 1100 l 1,148,-1
319 809 m 1,152,153
 381 819 381 819 460 794 c 0,154,155
 623 739 623 739 669 608 c 0,156,157
 679 580 679 580 682 551 c 0,158,159
 688 493 688 493 664 389 c 0,160,161
 601 118 601 118 428 20 c 0,162,163
 416 13 416 13 405 8 c 0,164,165
 361 -11 361 -11 325 -18 c 0,166,167
 296 -23 296 -23 194 -23 c 0,168,169
 144 -23 144 -23 104 -8 c 0,170,171
 65 6 65 6 41 28 c 0,172,173
 -24 90 -24 90 2 230 c 0,174,175
 27 363 27 363 97 503 c 1,176,177
 174 662 174 662 230 736 c 0,178,179
 280 800 280 800 319 809 c 1,152,153
346 761 m 0,180,181
 321 756 321 756 278 710 c 1,182,183
 228 651 228 651 164 530 c 1,184,185
 74 353 74 353 55 275 c 0,186,187
 29 163 29 163 74 98 c 0,188,189
 90 76 90 76 108 62 c 0,190,191
 138 40 138 40 176 33 c 1,192,193
 224 20 224 20 270 25 c 1,194,195
 354 37 354 37 421 82 c 0,196,197
 542 165 542 165 600 322 c 0,198,199
 636 421 636 421 628 505 c 1,200,201
 612 633 612 633 489 708 c 0,202,203
 443 738 443 738 390 753 c 0,204,205
 353 762 353 762 346 761 c 0,180,181
282 510 m 0,206,207
 345 518 345 518 433 477 c 0,208,209
 479 455 479 455 500 433 c 0,210,211
 517 413 517 413 503 365 c 2,212,-1
 503 364 l 2,213,214
 496 338 496 338 491 333 c 0,215,216
 474 315 474 315 446 308 c 0,217,218
 358 290 358 290 273 307 c 0,219,220
 229 314 229 314 213 333 c 1,221,222
 200 351 200 351 209 389 c 0,223,224
 229 474 229 474 252 495 c 0,225,226
 267 507 267 507 282 510 c 0,206,207
455 376 m 1,227,228
 437 401 437 401 397 421 c 0,229,230
 373 436 373 436 348 446 c 0,231,232
 309 460 309 460 302 459 c 0,233,234
 277 456 277 456 263 419 c 0,235,236
 256 400 256 400 261 389 c 0,237,238
 280 342 280 342 375 349 c 0,239,240
 390 350 390 350 402 353 c 0,241,242
 441 362 441 362 455 376 c 1,227,228
EndSplineSet
AlternateSubs2: "gsub_alternate_dfl_aalt_arab_FAR_Lookup_01_Subtable_01" uniFE94 afii57417
Substitution2: "gsub_single_rtl_fina_arab_FAR_Lookup_01_Subtable_01" uniFE94
EndChar

StartChar: uniFE94
Encoding: 65172 65172 356
Width: 652
VWidth: 1639
GlyphClass: 2
Flags: HW
AnchorPoint: "GposMark2BaseAnchorClassErabAbove_01_02" 410 1404 basechar 0
AnchorPoint: "GposMark2BaseAnchorClassErabBelow_01_02" 410 -175 basechar 0
LayerCount: 2
Fore
SplineSet
410 1253 m 0,0,1
 416 1254 416 1254 428 1251 c 0,2,3
 437 1249 437 1249 441 1250 c 0,4,5
 443 1250 443 1250 448 1251 c 0,6,7
 456 1252 456 1252 458 1251 c 0,8,9
 467 1243 467 1243 500 1200 c 0,10,11
 512 1184 512 1184 514 1184 c 0,12,13
 519 1184 519 1184 525.5 1189 c 128,-1,14
 532 1194 532 1194 542 1203 c 2,15,-1
 551 1212 l 2,16,17
 555 1215 555 1215 564 1224 c 0,18,19
 591 1249 591 1249 602 1253 c 0,20,21
 605 1254 605 1254 609 1252 c 0,22,23
 613 1250 613 1250 614 1250 c 0,24,25
 616 1250 616 1250 619 1251 c 0,26,27
 623 1252 623 1252 625 1253 c 0,28,29
 628 1253 628 1253 631 1251 c 0,30,31
 634 1250 634 1250 635 1250 c 0,32,33
 638 1249 638 1249 643 1251 c 0,34,35
 650 1252 650 1252 653 1250 c 0,36,37
 673 1232 673 1232 712 1176 c 0,38,39
 728 1151 728 1151 731 1143 c 0,40,41
 731 1140 731 1140 728 1136 c 0,42,43
 726 1132 726 1132 725 1130 c 2,44,-1
 719 1107 l 2,45,46
 718 1104 718 1104 719 1100 c 0,47,48
 718 1093 718 1093 717 1091 c 0,49,50
 709 1075 709 1075 659 1034 c 0,51,52
 655 1030 655 1030 652 1028 c 0,53,54
 635 1013 635 1013 607 992 c 1,55,-1
 588 981 l 1,56,57
 582 980 582 980 570 982 c 0,58,59
 561 984 561 984 557 984 c 0,60,61
 555 984 555 984 550 982 c 0,62,63
 543 979 543 979 540 982 c 0,64,65
 530 991 530 991 502 1032 c 0,66,67
 490 1049 l 0,68,69
 488 1050 488 1050 486 1050 c 0,70,71
 479 1050 479 1050 448 1022 c 0,72,73
 445 1019 445 1019 437 1012 c 0,74,75
 410 987 410 987 398 982 c 0,76,77
 392 980 392 980 376 983 c 0,78,79
 368 984 368 984 365 984 c 0,80,81
 361 985 361 985 355 984 c 0,82,83
 347 984 347 984 342 987 c 0,84,85
 327 1001 327 1001 290 1056 c 0,86,87
 272 1082 272 1082 272 1091 c 0,88,89
 272 1097 272 1097 277 1114 c 0,90,91
 281 1124 281 1124 282 1128 c 0,92,93
 283 1131 283 1131 283 1135 c 0,94,95
 284 1142 284 1142 284 1145 c 0,96,97
 293 1161 293 1161 342 1200 c 0,98,99
 346 1204 346 1204 349 1205 c 0,100,101
 386 1237 386 1237 392 1241 c 0,102,103
 406 1252 406 1252 410 1253 c 0,0,1
387 1043 m 1,104,105
 397 1052 397 1052 418 1068 c 0,106,107
 439 1085 439 1085 448 1094 c 0,108,109
 470 1114 470 1114 471 1115 c 0,110,111
 472 1121 472 1121 462 1135 c 0,112,113
 456 1141 456 1141 446 1154 c 0,114,115
 436 1167 436 1167 431 1173 c 0,116,117
 421 1186 421 1186 418 1187 c 0,118,119
 413 1187 413 1187 402 1178 c 2,120,-1
 400 1176 l 1,121,-1
 352 1135 l 2,122,123
 336 1121 336 1121 335 1115 c 0,124,125
 337 1109 337 1109 349 1094 c 0,126,127
 378 1052 378 1052 387 1043 c 1,104,105
583 1043 m 1,128,129
 593 1051 593 1051 612 1068 c 0,130,131
 632 1085 632 1085 641 1092 c 0,132,133
 661 1109 661 1109 665 1115 c 1,134,135
 666 1121 666 1121 656 1135 c 0,136,137
 636 1163 636 1163 625 1174 c 0,138,139
 615 1187 615 1187 613 1187 c 0,140,141
 607 1187 607 1187 593 1174 c 2,142,-1
 545 1133 l 2,143,144
 529 1119 529 1119 529 1115 c 0,145,146
 530 1107 530 1107 543 1095 c 2,147,-1
 544 1094 l 2,148,149
 549 1088 549 1088 558 1074 c 0,150,151
 574 1052 574 1052 583 1043 c 1,128,129
491 1120 m 1,152,-1
 488 1115 l 1,153,-1
 489 1114 l 1,154,-1
 492 1119 l 1,155,-1
 491 1120 l 1,152,-1
512 1120 m 1,156,-1
 509 1115 l 1,157,-1
 510 1114 l 1,158,-1
 513 1119 l 1,159,-1
 512 1120 l 1,156,-1
396 116 m 1,160,161
 364 85 364 85 310 87 c 0,162,163
 288 87 288 87 287 87 c 0,164,165
 171 89 171 89 89 161 c 1,166,167
 46 204 46 204 50 251 c 0,168,169
 63 374 63 374 141 471 c 0,170,171
 157 490 157 490 173 505 c 0,172,173
 200 530 200 530 324 624 c 0,174,175
 327 626 327 626 328 626 c 0,176,177
 335 632 335 632 352 644 c 0,178,179
 379 663 379 663 389 672 c 1,180,181
 393 681 393 681 393 705 c 1,182,183
 402 753 402 753 419 769 c 0,184,185
 576 904 576 904 595 920 c 0,186,187
 598 922 598 922 606 929 c 0,188,189
 650 966 650 966 656 951 c 1,190,191
 673 963 673 963 677 951 c 1,192,193
 694 959 694 959 696.5 953.5 c 128,-1,194
 699 948 699 948 698 929 c 2,195,-1
 698 927 l 1,196,197
 695 854 695 854 691 807 c 0,198,199
 687 752 687 752 681 641 c 0,200,201
 677 569 677 569 676 535 c 0,202,203
 668 437 668 437 697 408 c 1,204,205
 718 396 718 396 774 399 c 1,206,-1
 763 353 l 1,207,-1
 690 353 l 2,208,209
 651 354 651 354 640 366 c 0,210,211
 615 391 615 391 621 481 c 0,212,213
 622 498 622 498 622 507 c 0,214,215
 625 550 625 550 630 635 c 0,216,217
 635 721 635 721 638 763 c 0,218,219
 643 872 643 872 644 876 c 0,220,221
 645 883 645 883 646 887 c 1,222,223
 623 867 623 867 576 828 c 0,224,225
 528 788 528 788 506 769 c 0,226,227
 501 765 501 765 488 755 c 0,228,229
 457 730 457 730 448 718 c 1,230,231
 446 711 446 711 446 682 c 1,232,-1
 441 681 l 1,233,-1
 441 659 l 1,234,-1
 436 658 l 1,235,-1
 435 636 l 1,236,237
 415 622 415 622 302 535 c 0,238,239
 207 462 207 462 172 418 c 0,240,241
 164 407 164 407 158 399 c 0,242,243
 110 329 110 329 105 294 c 1,244,245
 103 263 103 263 125 230 c 0,246,247
 164 176 164 176 257 148 c 1,248,249
 309 130 309 130 327 136 c 0,250,251
 351 145 351 145 382 190 c 0,252,253
 393 206 393 206 400 213 c 1,254,-1
 403 187 l 1,255,-1
 422 213 l 1,256,-1
 425 187 l 1,257,-1
 443 213 l 1,258,259
 444 209 444 209 448 174 c 1,260,261
 454 140 454 140 465 110 c 1,262,263
 503 30 503 30 601 21 c 0,264,265
 618 20 618 20 653 22 c 0,266,267
 676 23 676 23 687 23 c 1,268,-1
 676 -25 l 1,269,270
 546 -25 546 -25 515 -18 c 0,271,272
 436 1 436 1 409 67 c 0,273,274
 397 100 397 100 396 116 c 1,160,161
405 558 m 1,275,-1
 406 544 l 1,276,-1
 428 558 l 1,277,-1
 428 544 l 1,278,-1
 449 558 l 1,279,-1
 451 389 l 1,280,-1
 447 389 l 1,281,-1
 446 366 l 1,282,-1
 441 366 l 1,283,-1
 441 343 l 1,284,285
 357 343 357 343 304 359 c 0,286,287
 268 368 268 368 260 380 c 1,288,289
 259 385 259 385 269 425 c 2,290,-1
 274 444 l 1,291,292
 284 463 284 463 313 489 c 0,293,294
 354 525 354 525 405 558 c 1,275,-1
397 482 m 1,295,296
 356 460 356 460 321 420 c 1,297,298
 334 410 334 410 392 397 c 0,299,300
 396 396 396 396 398 395 c 1,301,-1
 397 482 l 1,295,296
EndSplineSet
EndChar

StartChar: afii57418
Encoding: 1578 1578 357
AltUni2: 00fe95.ffffffff.0
Width: 1257
VWidth: 1639
GlyphClass: 2
Flags: HW
AnchorPoint: "GposMark2BaseAnchorClassErabAbove_01_02" 635 1098 basechar 0
AnchorPoint: "GposMark2BaseAnchorClassErabBelow_01_02" 635 -201 basechar 0
LayerCount: 2
Fore
SplineSet
551 681 m 1,0,1
 535 666 535 666 510 705 c 0,2,3
 508 709 508 709 507 710 c 0,4,5
 501 718 501 718 489 735 c 0,6,7
 476 752 476 752 471 759 c 0,8,9
 459 778 459 778 458 782 c 0,10,11
 457 792 457 792 468 819 c 2,12,-1
 468 820 l 2,13,14
 469 823 469 823 469 827 c 0,15,16
 470 834 470 834 471 838 c 0,17,18
 475 846 475 846 505 870 c 0,19,20
 510 874 510 874 512 876 c 0,21,22
 531 894 531 894 565 923 c 0,23,24
 589 943 589 943 593 945 c 0,25,26
 603 948 603 948 627 943 c 2,27,-1
 628 943 l 2,28,29
 630 943 630 943 635 944 c 0,30,31
 643 945 643 945 647 945 c 0,32,33
 655 940 655 940 679 904 c 0,34,35
 684 897 684 897 687 894 c 0,36,37
 699 878 699 878 701 877 c 0,38,39
 704 877 704 877 708 879.5 c 128,-1,40
 712 882 712 882 717 888 c 2,41,-1
 723 894 l 2,42,43
 728 898 728 898 740 910 c 0,44,45
 770 939 770 939 784 945 c 0,46,47
 785 945 785 945 800 943 c 1,48,49
 830 947 830 947 837 945 c 0,50,51
 843 941 843 941 856 922 c 0,52,53
 861 915 861 915 873 900 c 0,54,55
 884 885 884 885 889 877 c 0,56,57
 892 873 892 873 899 866 c 0,58,59
 914 847 914 847 916 838 c 0,60,61
 916 835 916 835 911 822 c 0,62,63
 910 819 910 819 909 809 c 0,64,65
 907 790 907 790 904 784 c 0,66,67
 901 779 901 779 897 775 c 128,-1,68
 893 771 893 771 886 765 c 2,69,-1
 878 759 l 1,70,-1
 819 708 l 2,71,72
 787 680 787 680 782 678 c 0,73,74
 769 674 769 674 763 681 c 1,75,76
 750 671 750 671 743 681 c 1,77,-1
 741 681 l 1,78,79
 728 670 728 670 716 686 c 0,80,81
 711 692 711 692 702 705 c 0,82,83
 680 733 680 733 673 748 c 1,84,-1
 671 748 l 1,85,86
 658 735 658 735 602 687 c 0,87,88
 580 668 580 668 574 681 c 1,89,-1
 572 681 l 1,90,91
 559 671 559 671 552 681 c 1,92,-1
 551 681 l 1,0,1
607 884 m 1,93,94
 588 870 588 870 544 830 c 0,95,96
 525 812 525 812 524 809 c 0,97,98
 524 802 524 802 547 775 c 0,99,100
 549 772 549 772 550 771 c 0,101,102
 551 769 551 769 554 764 c 0,103,104
 568 740 568 740 575 740 c 0,105,106
 577 740 577 740 580 741.5 c 128,-1,107
 583 743 583 743 585 744.5 c 128,-1,108
 587 746 587 746 590 749 c 2,109,-1
 593 753 l 1,110,-1
 641 794 l 1,111,112
 657 805 657 805 659 812 c 1,113,114
 657 816 657 816 645 831 c 0,115,116
 639 840 639 840 626 858 c 0,117,118
 613 876 613 876 607 884 c 1,93,94
713 810 m 1,119,120
 739 774 739 774 751 758 c 0,121,122
 763 740 763 740 762 741 c 1,123,124
 764 740 764 740 766 740 c 0,125,126
 772 740 772 740 785 753 c 2,127,-1
 833 794 l 2,128,129
 848 808 848 808 849 810 c 0,130,131
 849 818 849 818 828 843 c 0,132,133
 825 848 825 848 817 857 c 0,134,135
 810 867 810 867 807 871 c 0,136,137
 799 880 799 880 797 881 c 0,138,139
 794 881 794 881 790 878.5 c 128,-1,140
 786 876 786 876 780 870 c 2,141,-1
 775 864 l 1,142,143
 718 815 718 815 713 810 c 1,119,120
1106 841 m 0,144,145
 1109 842 1109 842 1121 840 c 1,146,147
 1150 844 1150 844 1158 841 c 0,148,149
 1169 835 1169 835 1188 805 c 0,150,151
 1241 724 1241 724 1242 617 c 0,152,153
 1243 555 1243 555 1219 453 c 0,154,155
 1146 143 1146 143 938 31 c 0,156,157
 811 -36 811 -36 587 -46 c 0,158,159
 447 -51 447 -51 346 -41 c 0,160,161
 207 -25 207 -25 140 25 c 1,162,163
 27 115 27 115 81 353 c 0,164,165
 101 439 101 439 124 492 c 0,166,167
 173 611 173 611 221 653 c 0,168,169
 252 680 252 680 298 670 c 0,170,171
 325 663 325 663 330 643 c 0,172,173
 334 627 334 627 321 566 c 0,174,175
 320 562 320 562 319 558 c 0,176,177
 308 492 308 492 330 453 c 1,178,179
 364 402 364 402 468 382 c 1,180,181
 546 370 546 370 732 371 c 0,182,183
 869 371 869 371 918 383 c 0,184,185
 939 388 939 388 958 395 c 0,186,187
 960 396 960 396 964 398 c 0,188,189
 978 405 978 405 981 410 c 1,190,191
 982 416 982 416 968 435 c 0,192,193
 943 471 943 471 911 497 c 1,194,195
 894 516 l 1,196,197
 893 520 893 520 892 522 c 0,198,199
 894 564 894 564 946 632 c 0,200,201
 950 637 950 637 951 638 c 0,202,203
 1001 706 1001 706 1048 768 c 1,204,-1
 1088 822 l 2,205,206
 1101 838 1101 838 1106 841 c 0,144,145
671 810 m 1,207,-1
 671 810 l 1,207,-1
692 810 m 1,208,-1
 692 810 l 1,208,-1
1122 777 m 1,209,210
 1114 769 1114 769 1081 723 c 0,211,212
 1067 703 1067 703 997 612 c 0,213,214
 978 585 978 585 968 572 c 0,215,216
 958 559 958 559 956 554 c 0,217,218
 956 548 956 548 984 524 c 0,219,220
 986 522 986 522 987 522 c 0,221,222
 1038 471 1038 471 1043 443 c 0,223,224
 1044 436 1044 436 1044 431 c 0,225,226
 1044 429 1044 429 1038 415 c 1,227,228
 1032 377 1032 377 1021 367 c 0,229,230
 976 333 976 333 875 328 c 0,231,232
 850 327 850 327 839 326 c 0,233,234
 795 322 795 322 619 323 c 0,235,236
 446 323 446 323 383 341 c 0,237,238
 344 352 344 352 315 369 c 0,239,240
 297 381 297 381 286 394 c 0,241,242
 254 433 254 433 270 524 c 0,243,244
 271 529 271 529 272 539 c 0,245,246
 275 558 275 558 277 566 c 0,247,248
 282 617 282 617 266 615 c 0,249,250
 264 615 264 615 262 613 c 0,251,252
 247 604 247 604 229 581 c 0,253,254
 203 548 203 548 167 474 c 1,255,256
 85 297 85 297 127 167 c 0,257,258
 151 97 151 97 208 61 c 0,259,260
 279 17 279 17 399 5 c 1,261,262
 548 -12 548 -12 703 15 c 1,263,264
 853 39 853 39 952 105 c 0,265,266
 1096 201 1096 201 1158 389 c 0,267,268
 1206 534 1206 534 1179 654 c 0,269,270
 1161 735 1161 735 1122 777 c 1,209,210
EndSplineSet
AlternateSubs2: "gsub_alternate_dfl_aalt_arab_FAR_Lookup_01_Subtable_01" uniFE96 uniFE97 afii57418 uniFE98
Substitution2: "gsub_single_rtl_fina_arab_FAR_Lookup_01_Subtable_01" uniFE96
Substitution2: "gsub_single_rtl_init_arab_FAR_Lookup_01_Subtable_01" uniFE97
Substitution2: "gsub_single_rtl_medi_arab_FAR_Lookup_01_Subtable_01" uniFE98
EndChar

StartChar: uniFE96
Encoding: 65174 65174 358
Width: 1212
VWidth: 1639
GlyphClass: 2
Flags: HW
AnchorPoint: "GposMark2BaseAnchorClassErabAbove_01_02" 662.5 1100 basechar 0
AnchorPoint: "GposMark2BaseAnchorClassErabBelow_01_02" 662.5 -223 basechar 0
LayerCount: 2
Fore
SplineSet
520 822 m 1,0,1
 511 835 511 835 539 858 c 2,2,-1
 541 859 l 1,3,-1
 619 927 l 1,4,5
 646 947 646 947 657 940 c 1,6,7
 669 948 669 948 677 940 c 1,8,-1
 678 940 l 1,9,10
 692 950 692 950 704 933 c 0,11,12
 739 892 739 892 748 872 c 1,13,-1
 750 872 l 1,14,15
 763 886 763 886 806 923 c 0,16,17
 828 941 828 941 832 943 c 0,18,19
 843 947 843 947 868 943 c 1,20,21
 888 942 888 942 890 940 c 0,22,23
 902 929 902 929 945 868 c 0,24,25
 950 861 950 861 952 858 c 0,26,27
 967 836 967 836 961 827 c 0,28,29
 958 823 958 823 956 822 c 1,30,-1
 956 820 l 1,31,32
 963 809 963 809 951 799 c 1,33,-1
 951 797 l 1,34,35
 959 785 959 785 932 763 c 0,36,37
 920 752 920 752 895 731 c 0,38,39
 870 710 870 710 858 700 c 0,40,41
 830 676 830 676 828 676 c 0,42,43
 825 675 825 675 825 674 c 0,44,45
 818 673 818 673 803 675 c 0,46,47
 793 676 793 676 790 676 c 2,48,-1
 773 676 l 1,49,50
 770 678 770 678 751 705 c 0,51,52
 747 710 747 710 745 712 c 0,53,54
 744 714 744 714 740 720 c 0,55,56
 727 741 727 741 720 743 c 1,57,58
 714 742 714 742 683 713 c 0,59,60
 679 710 679 710 671 702 c 0,61,62
 646 679 646 679 636 676 c 0,63,64
 632 675 632 675 601 676 c 0,65,66
 598 677 598 677 593 675 c 0,67,68
 586 674 586 674 582 676 c 0,69,70
 574 681 574 681 558 707 c 0,71,72
 552 716 552 716 538 734 c 0,73,74
 524 753 524 753 518 761 c 0,75,76
 504 786 504 786 514 797 c 1,77,-1
 515 799 l 1,78,79
 510 810 510 810 520 820 c 1,80,-1
 520 822 l 1,0,1
708 812 m 1,81,82
 696 824 696 824 670 863 c 0,83,84
 658 880 658 880 657 880 c 0,85,86
 655 881 655 881 654 881 c 0,87,88
 648 880 648 880 617 851 c 0,89,90
 615 849 615 849 606 843 c 0,91,92
 575 819 575 819 572 810 c 1,93,94
 572 804 572 804 586 789 c 0,95,96
 591 782 591 782 600 768 c 0,97,98
 615 745 615 745 624 736 c 1,99,-1
 679 784 l 1,100,-1
 708 812 l 1,81,82
900 810 m 1,101,102
 874 847 874 847 861 864 c 0,103,104
 860 865 860 865 856 870 c 0,105,106
 849 879 849 879 846 881 c 1,107,108
 840 881 840 881 827 868 c 0,109,110
 819 861 819 861 803 847 c 0,111,112
 787 833 787 833 780 827 c 0,113,114
 765 813 765 813 764 810 c 0,115,116
 764 804 764 804 784 777 c 0,117,118
 787 772 787 772 795 763 c 0,119,120
 802 753 802 753 805 749 c 0,121,122
 813 740 813 740 815 740 c 0,123,124
 818 740 818 740 822.5 743 c 128,-1,125
 827 746 827 746 833 752 c 2,126,-1
 839 758 l 1,127,128
 887 796 887 796 900 810 c 1,101,102
730 812 m 1,129,-1
 730 812 l 1,129,-1
751 812 m 1,130,-1
 751 812 l 1,130,-1
1001 92 m 1,131,132
 799 -63 799 -63 456 -72 c 0,133,134
 430 -73 430 -73 402 -72 c 0,135,136
 215 -71 215 -71 132 -5 c 1,137,138
 -8 112 -8 112 113 454 c 0,139,140
 115 461 115 461 118 466 c 0,141,142
 166 602 166 602 219 641 c 1,143,144
 233 649 233 649 259 649 c 0,145,146
 306 649 306 649 316 639 c 0,147,148
 320 633 320 633 323 628 c 0,149,150
 329 608 329 608 318 536 c 0,151,152
 315 516 315 516 315 503 c 0,153,154
 314 457 314 457 326 431 c 0,155,156
 351 376 351 376 437 354 c 0,157,158
 527 329 527 329 678 341 c 0,159,160
 860 353 860 353 993 420 c 1,161,162
 1067 459 1067 459 1152 531 c 0,163,164
 1156 535 1156 535 1166 545 c 0,165,166
 1210 585 1210 585 1230 589 c 1,167,168
 1281 593 1281 593 1295 584 c 0,169,170
 1322 563 1322 563 1285 473 c 0,171,172
 1284 469 1284 469 1283 467 c 0,173,174
 1272 442 1272 442 1263 425 c 0,175,176
 1256 410 1256 410 1256 408 c 0,177,178
 1259 400 1259 400 1274 400 c 0,179,180
 1286 398 1286 398 1333 399 c 1,181,-1
 1322 353 l 1,182,183
 1312 353 1312 353 1292 352 c 0,184,185
 1242 350 1242 350 1219 354 c 0,186,187
 1194 359 1194 359 1189 371 c 1,188,189
 1189 376 1189 376 1195 387 c 0,190,191
 1196 389 1196 389 1194 393 c 0,192,193
 1194 397 1194 397 1194 399 c 0,194,195
 1195 401 1195 401 1197 405 c 0,196,197
 1199 409 1199 409 1200 410 c 0,198,199
 1201 412 1201 412 1200 416 c 0,200,201
 1200 420 1200 420 1199 421 c 0,202,203
 1201 426 1201 426 1216 446 c 1,204,205
 1227 464 1227 464 1242 495 c 1,206,207
 1255 531 1255 531 1243 531 c 0,208,209
 1238 531 1238 531 1224 519 c 2,210,-1
 1221 517 l 1,211,-1
 1170 472 l 2,212,213
 1086 400 1086 400 1010 366 c 0,214,215
 838 291 838 291 594 290 c 0,216,217
 473 290 473 290 415 300 c 0,218,219
 293 322 293 322 268 392 c 1,220,221
 257 432 257 432 269 522 c 1,222,223
 272 568 272 568 268 582 c 0,224,225
 262 598 262 598 252 594 c 0,226,227
 231 582 231 582 212 549 c 0,228,229
 182 501 182 501 157 440 c 0,230,231
 81 245 81 245 134 116 c 0,232,233
 161 54 161 54 215 21 c 1,234,235
 313 -33 313 -33 471 -25 c 0,236,237
 680 -16 680 -16 842 62 c 0,238,239
 899 90 899 90 944 121 c 0,240,241
 953 127 953 127 971 141 c 0,242,243
 994 159 994 159 1005 166 c 1,244,-1
 1006 153 l 1,245,-1
 1026 166 l 1,246,-1
 1027 153 l 1,247,-1
 1047 166 l 1,248,249
 1063 71 1063 71 1137 36 c 0,250,251
 1148 31 1148 31 1159 28 c 0,252,253
 1182 23 1182 23 1246 23 c 1,254,-1
 1236 -23 l 1,255,256
 1119 -23 1119 -23 1081 -7 c 0,257,258
 1040 11 1040 11 1019 49 c 0,259,260
 1004 76 1004 76 1001 92 c 1,131,132
EndSplineSet
EndChar

StartChar: uniFE97
Encoding: 65175 65175 359
Width: 500
VWidth: 1639
GlyphClass: 2
Flags: HW
AnchorPoint: "GposMark2BaseAnchorClassErabAbove_01_02" 286 1356 basechar 0
AnchorPoint: "GposMark2BaseAnchorClassErabBelow_01_02" 286 -174 basechar 0
LayerCount: 2
Fore
SplineSet
196 1077 m 1,0,1
 187 1090 187 1090 215 1114 c 2,2,-1
 217 1115 l 1,3,-1
 295 1182 l 2,4,5
 321 1204 321 1204 333 1196 c 1,6,7
 345 1204 345 1204 353 1196 c 1,8,-1
 354 1196 l 1,9,10
 368 1206 368 1206 380 1189 c 0,11,12
 385 1182 385 1182 397 1169 c 0,13,14
 418 1143 418 1143 424 1128 c 1,15,-1
 426 1128 l 1,16,17
 439 1142 439 1142 482 1179 c 0,18,19
 504 1197 504 1197 508 1199 c 0,20,21
 512 1200 512 1200 544 1199 c 0,22,23
 547 1198 547 1198 553 1199 c 0,24,25
 562 1199 562 1199 566 1196 c 0,26,27
 578 1186 578 1186 617 1129 c 0,28,29
 624 1118 624 1118 630 1112 c 0,30,31
 644 1092 644 1092 638 1083 c 0,32,33
 635 1079 635 1079 632 1077 c 1,34,-1
 632 1076 l 1,35,36
 639 1065 639 1065 627 1055 c 1,37,-1
 627 1053 l 1,38,39
 635 1041 635 1041 608 1018 c 0,40,41
 596 1007 596 1007 571 987 c 0,42,43
 546 966 546 966 534 956 c 0,44,45
 506 932 506 932 504 931 c 0,46,47
 501 930 l 0,48,49
 494 929 494 929 479 931 c 0,50,51
 469 932 469 932 466 932 c 2,52,-1
 449 932 l 1,53,54
 441 937 441 937 424 963 c 0,55,56
 423 965 423 965 419 972 c 0,57,58
 404 999 404 999 396 999 c 0,59,60
 390 998 390 998 357 968 c 0,61,62
 353 965 353 965 345 957 c 0,63,64
 322 936 322 936 312 932 c 0,65,66
 308 931 308 931 275 932 c 0,67,68
 272 933 272 933 268 931 c 0,69,70
 261 931 261 931 258 932 c 0,71,72
 251 936 251 936 236 959 c 0,73,74
 228 969 228 969 214 989 c 0,75,76
 199 1009 199 1009 193 1018 c 0,77,78
 180 1041 180 1041 190 1053 c 1,79,-1
 191 1055 l 1,80,81
 186 1066 186 1066 196 1076 c 1,82,-1
 196 1077 l 1,0,1
331 1138 m 1,83,-1
 268 1086 l 1,84,-1
 248 1066 l 1,85,-1
 260 1045 l 1,86,-1
 298 992 l 1,87,-1
 300 992 l 1,88,-1
 384 1064 l 1,89,-1
 384 1066 l 1,90,-1
 331 1138 l 1,83,-1
576 1066 m 1,91,-1
 536 1118 l 1,92,-1
 521 1137 l 1,93,-1
 499 1120 l 1,94,-1
 437 1064 l 1,95,-1
 474 1014 l 1,96,-1
 491 995 l 1,97,-1
 515 1014 l 1,98,-1
 576 1064 l 1,99,-1
 576 1066 l 1,91,-1
402 1071 m 1,100,-1
 395 1066 l 1,101,-1
 394 1064 l 1,102,-1
 405 1064 l 1,103,-1
 405 1066 l 1,104,-1
 402 1071 l 1,100,-1
423 1071 m 1,105,-1
 416 1066 l 1,106,-1
 416 1064 l 1,107,-1
 426 1064 l 1,108,-1
 427 1066 l 1,109,-1
 423 1071 l 1,105,-1
227 405 m 1,110,111
 211 448 211 448 160 517 c 0,112,113
 158 520 158 520 150 527 c 0,114,115
 130 550 130 550 131 563 c 1,116,117
 143 612 143 612 144 615 c 0,118,119
 152 632 152 632 200 683 c 0,120,121
 205 688 205 688 207 690 c 0,122,123
 225 711 225 711 263 754 c 0,124,125
 301 797 301 797 318 818 c 0,126,127
 321 822 321 822 329 832 c 0,128,129
 353 863 353 863 365 866 c 0,130,131
 371 868 371 868 387 866 c 0,132,133
 395 865 395 865 398 864 c 0,134,135
 401 863 401 863 407 865 c 0,136,137
 415 865 415 865 418 863 c 0,138,139
 425 855 425 855 442 817 c 1,140,141
 465 755 465 755 473 697 c 0,142,143
 485 589 485 589 446 425 c 0,144,145
 421 320 421 320 397 249 c 0,146,147
 347 111 347 111 270 49 c 0,148,149
 181 -23 181 -23 15 -24 c 0,150,151
 -1 -24 -1 -24 -33 -23 c 0,152,153
 -59 -23 -59 -23 -72 -23 c 1,154,-1
 -61 23 l 1,155,156
 86 23 86 23 153 48 c 0,157,158
 200 66 200 66 236 95 c 0,159,160
 307 154 307 154 356 272 c 1,161,162
 437 476 437 476 419 648 c 0,163,164
 411 712 411 712 393 759 c 1,165,166
 375 796 375 796 373 799 c 1,167,168
 367 790 367 790 319 734 c 0,169,170
 315 729 315 729 312 727 c 0,171,172
 269 679 269 679 192 589 c 1,173,174
 201 583 201 583 221 553 c 0,175,176
 257 502 257 502 270 474 c 0,177,178
 287 439 287 439 282 418 c 0,179,180
 280 413 280 413 278 402 c 0,181,182
 270 368 270 368 257 359 c 1,183,184
 237 350 237 350 184 353 c 1,185,-1
 15 353 l 1,186,-1
 26 399 l 1,187,-1
 140 399 l 2,188,189
 203 399 203 399 227 405 c 1,110,111
EndSplineSet
EndChar

StartChar: uniFE98
Encoding: 65176 65176 360
Width: 417
VWidth: 1639
GlyphClass: 2
Flags: HW
AnchorPoint: "GposMark2BaseAnchorClassErabAbove_01_02" 277 1188 basechar 0
AnchorPoint: "GposMark2BaseAnchorClassErabBelow_01_02" 277 -178 basechar 0
LayerCount: 2
Fore
SplineSet
381 835 m 1,0,1
 374 827 374 827 326 787 c 0,2,3
 322 784 322 784 320 782 c 0,4,5
 298 764 298 764 294 763 c 0,6,7
 288 762 288 762 276.5 763.5 c 128,-1,8
 265 765 265 765 259 764 c 2,9,-1
 243 764 l 1,10,11
 238 769 238 769 226 786 c 0,12,13
 214 801 214 801 195 828 c 0,14,15
 193 831 193 831 186 839 c 0,16,17
 170 859 170 859 168 869 c 0,18,19
 168 872 168 872 173 886 c 0,20,21
 174 891 174 891 175 901 c 0,22,23
 177 917 177 917 179 923 c 1,24,25
 185 932 185 932 208 953 c 0,26,27
 220 964 220 964 245 985 c 0,28,29
 270 1007 270 1007 281 1017 c 0,30,31
 306 1036 306 1036 317 1028 c 1,32,33
 329 1036 329 1036 337 1028 c 1,34,-1
 339 1028 l 1,35,36
 354 1038 354 1038 365 1023 c 0,37,38
 403 974 403 974 409 961 c 1,39,-1
 410 961 l 1,40,41
 423 974 423 974 479 1022 c 1,42,43
 500 1037 500 1037 508 1028 c 1,44,-1
 510 1028 l 1,45,46
 522 1036 522 1036 529 1028 c 1,47,-1
 531 1028 l 1,48,49
 546 1038 546 1038 561 1015 c 0,50,51
 594 972 594 972 609 951 c 0,52,53
 625 927 625 927 626 923 c 0,54,55
 626 921 626 921 623 916 c 0,56,57
 621 911 621 911 621 909 c 0,58,59
 620 906 620 906 619 896 c 0,60,61
 617 877 617 877 614 871 c 0,62,63
 610 865 610 865 588 848 c 2,64,-1
 535 802 l 2,65,66
 532 799 532 799 524 791 c 0,67,68
 497 766 497 766 485 763 c 0,69,70
 479 762 479 762 466 764 c 0,71,72
 456 766 456 766 452 766 c 0,73,74
 450 766 450 766 445 764 c 0,75,76
 438 762 438 762 435 764 c 0,77,78
 431 766 431 766 428 769 c 128,-1,79
 425 772 425 772 421 779 c 2,80,-1
 417 786 l 1,81,-1
 383 835 l 1,82,-1
 381 835 l 1,0,1
370 899 m 1,83,-1
 330 951 l 1,84,-1
 314 969 l 1,85,-1
 292 953 l 1,86,-1
 231 897 l 1,87,-1
 268 846 l 1,88,-1
 285 828 l 1,89,-1
 309 846 l 1,90,-1
 369 897 l 1,91,-1
 370 899 l 1,83,-1
507 971 m 1,92,-1
 445 918 l 1,93,-1
 425 899 l 1,94,-1
 437 877 l 1,95,-1
 475 825 l 1,96,-1
 476 825 l 1,97,-1
 560 897 l 1,98,-1
 560 899 l 1,99,-1
 507 971 l 1,92,-1
391 899 m 1,100,101
 386 903 386 903 383 900 c 1,102,103
 383 896 383 896 385 892 c 1,104,-1
 391 897 l 1,105,-1
 391 899 l 1,100,101
413 899 m 1,106,107
 408 903 408 903 405 900 c 1,108,109
 405 896 405 896 406 892 c 1,110,-1
 412 897 l 1,111,-1
 413 899 l 1,106,107
26 399 m 1,112,113
 114 399 114 399 151 418 c 0,114,115
 168 428 168 428 182 441 c 0,116,117
 200 458 200 458 237 532 c 0,118,119
 242 541 242 541 244 546 c 0,120,121
 267 586 267 586 288 597 c 1,122,123
 302 602 302 602 353 602 c 1,124,125
 385 600 385 600 388 561 c 0,126,127
 389 547 389 547 388 517 c 0,128,129
 386 468 386 468 394 448 c 0,130,131
 414 398 414 398 507 398 c 0,132,133
 512 398 512 398 522 398 c 0,134,135
 533 398 533 398 538 399 c 1,136,-1
 527 353 l 1,137,138
 516 353 516 353 492 351 c 0,139,140
 384 346 384 346 354 377 c 0,141,142
 349 383 349 383 345 389 c 0,143,144
 331 411 331 411 335 485 c 0,145,146
 336 502 336 502 335 512 c 0,147,148
 331 546 331 546 318 548 c 1,149,150
 303 545 303 545 282 512 c 0,151,152
 275 500 275 500 263 474 c 0,153,154
 236 417 236 417 215 395 c 0,155,156
 167 348 167 348 62 351 c 0,157,158
 17 352 17 352 15 353 c 1,159,-1
 26 399 l 1,112,113
211 131 m 1,160,-1
 214 131 l 1,161,-1
 221 115 l 1,162,-1
 232 131 l 1,163,-1
 235 131 l 1,164,-1
 242 115 l 1,165,-1
 254 131 l 1,166,-1
 257 131 l 1,167,168
 286 36 286 36 378 23 c 1,169,170
 377 20 377 20 414 21 c 2,171,-1
 451 23 l 1,172,-1
 441 -23 l 1,173,174
 332 -23 332 -23 311 -19 c 0,175,176
 273 -11 273 -11 249 10 c 0,177,178
 223 32 223 32 217 52 c 1,179,-1
 214 52 l 1,180,181
 193 24 193 24 143 0 c 0,182,183
 86 -28 86 -28 -32 -24 c 0,184,185
 -59 -23 -59 -23 -72 -23 c 1,186,-1
 -61 23 l 1,187,188
 53 23 53 23 103 44 c 0,189,190
 140 61 140 61 172 89 c 1,191,192
 202 117 202 117 211 131 c 1,160,-1
EndSplineSet
EndChar

StartChar: afii57419
Encoding: 1579 1579 361
AltUni2: 00fe99.ffffffff.0
Width: 1257
VWidth: 1639
GlyphClass: 2
Flags: HW
AnchorPoint: "GposMark2BaseAnchorClassErabAbove_01_02" 635 1275 basechar 0
AnchorPoint: "GposMark2BaseAnchorClassErabBelow_01_02" 635 -201 basechar 0
LayerCount: 2
Fore
SplineSet
638 927 m 1,0,1
 636 931 636 931 630 938 c 0,2,3
 622 949 622 949 621 954 c 0,4,5
 620 958 620 958 623 964 c 0,6,7
 625 969 625 969 626 973 c 2,8,-1
 634 1010 l 1,9,10
 638 1016 638 1016 652 1028 c 0,11,12
 669 1044 669 1044 698 1069 c 0,13,14
 701 1072 701 1072 710 1081 c 0,15,16
 755 1125 755 1125 771 1112 c 1,17,18
 783 1120 783 1120 791 1112 c 1,19,-1
 792 1112 l 1,20,21
 807 1122 807 1122 823 1099 c 0,22,23
 841 1073 841 1073 875 1028 c 1,24,25
 887 1006 887 1006 877 995 c 1,26,-1
 876 994 l 1,27,28
 881 983 881 983 871 973 c 1,29,-1
 871 971 l 1,30,31
 880 958 880 958 845 930 c 0,32,33
 842 927 842 927 841 927 c 2,34,-1
 847 922 l 1,35,-1
 849 922 l 1,36,37
 863 932 863 932 877 912 c 0,38,39
 884 901 884 901 900 880 c 128,-1,40
 916 859 916 859 923 848 c 0,41,42
 938 826 938 826 939 824 c 0,43,44
 939 821 939 821 940 820 c 0,45,46
 939 814 939 814 935 801 c 0,47,48
 931 788 931 788 929 782 c 2,49,-1
 925 763 l 1,50,51
 918 753 918 753 873 716 c 0,52,53
 866 710 866 710 862 707 c 0,54,55
 822 667 822 667 805 659 c 0,56,57
 804 659 804 659 790 661 c 0,58,59
 786 661 786 661 777 660 c 0,60,61
 763 658 763 658 756 659 c 0,62,63
 753 659 753 659 751 661 c 128,-1,64
 749 663 749 663 746.5 665 c 128,-1,65
 744 667 744 667 743 669 c 128,-1,66
 742 671 742 671 739 675 c 2,67,-1
 736 679 l 2,68,69
 732 685 732 685 723 697 c 0,70,71
 704 722 704 722 697 735 c 1,72,-1
 696 735 l 1,73,74
 683 721 683 721 627 672 c 1,75,76
 604 655 604 655 596 664 c 1,77,-1
 594 664 l 1,78,79
 582 656 582 656 574 664 c 1,80,-1
 573 664 l 1,81,82
 558 652 558 652 543 674 c 0,83,84
 508 724 508 724 490 746 c 1,85,86
 476 770 476 770 487 781 c 1,87,-1
 487 782 l 1,88,89
 480 793 480 793 492 804 c 1,90,-1
 492 805 l 1,91,92
 482 817 482 817 516 844 c 0,93,94
 519 847 519 847 521 848 c 0,95,96
 531 857 531 857 552 874 c 0,97,98
 573 892 573 892 583 900 c 0,99,100
 613 925 613 925 615 927 c 0,101,102
 619 929 619 929 626 927 c 0,103,104
 634 926 634 926 638 927 c 1,0,1
768 1055 m 1,105,106
 757 1047 757 1047 706 1002 c 0,107,108
 688 986 688 986 687 982 c 0,109,110
 688 971 688 971 716 941 c 0,111,112
 717 939 717 939 720 934 c 0,113,114
 732 914 732 914 739 913 c 1,115,116
 744 914 744 914 761 932 c 2,117,-1
 820 982 l 1,118,-1
 820 984 l 1,119,-1
 768 1055 l 1,105,106
628 864 m 1,120,-1
 543 794 l 1,121,-1
 543 792 l 1,122,-1
 579 745 l 1,123,-1
 596 723 l 1,124,-1
 613 735 l 1,125,-1
 660 776 l 1,126,-1
 676 794 l 1,127,-1
 663 815 l 1,128,-1
 628 864 l 1,120,-1
825 864 m 1,129,-1
 766 815 l 1,130,-1
 743 795 l 1,131,-1
 751 777 l 1,132,-1
 782 736 l 1,133,-1
 795 723 l 1,134,-1
 820 743 l 1,135,-1
 875 792 l 1,136,-1
 876 794 l 1,137,-1
 825 864 l 1,129,-1
1106 841 m 0,138,139
 1109 842 1109 842 1121 840 c 1,140,141
 1150 844 1150 844 1158 841 c 0,142,143
 1169 835 1169 835 1188 805 c 0,144,145
 1241 724 1241 724 1242 617 c 0,146,147
 1243 555 1243 555 1219 453 c 0,148,149
 1146 143 1146 143 938 31 c 0,150,151
 811 -36 811 -36 587 -46 c 0,152,153
 447 -51 447 -51 346 -41 c 0,154,155
 207 -25 207 -25 140 25 c 1,156,157
 27 115 27 115 81 353 c 0,158,159
 101 439 101 439 124 492 c 0,160,161
 173 611 173 611 221 653 c 0,162,163
 252 680 252 680 298 670 c 0,164,165
 325 663 325 663 330 643 c 0,166,167
 334 627 334 627 321 566 c 0,168,169
 320 562 320 562 319 558 c 0,170,171
 308 492 308 492 330 453 c 1,172,173
 364 402 364 402 468 382 c 1,174,175
 546 370 546 370 732 371 c 0,176,177
 869 371 869 371 918 383 c 0,178,179
 939 388 939 388 958 395 c 0,180,181
 960 396 960 396 964 398 c 0,182,183
 978 405 978 405 981 410 c 1,184,185
 982 416 982 416 968 435 c 0,186,187
 943 471 943 471 911 497 c 1,188,189
 894 516 l 1,190,191
 893 520 893 520 892 522 c 0,192,193
 894 564 894 564 946 632 c 0,194,195
 950 637 950 637 951 638 c 0,196,197
 1001 706 1001 706 1048 768 c 1,198,-1
 1088 822 l 2,199,200
 1101 838 1101 838 1106 841 c 0,138,139
1122 777 m 1,201,202
 1114 769 1114 769 1081 723 c 0,203,204
 1067 703 1067 703 997 612 c 0,205,206
 978 585 978 585 968 572 c 0,207,208
 958 559 958 559 956 554 c 0,209,210
 956 548 956 548 984 524 c 0,211,212
 986 522 986 522 987 522 c 0,213,214
 1038 471 1038 471 1043 443 c 0,215,216
 1044 436 1044 436 1044 431 c 0,217,218
 1044 429 1044 429 1038 415 c 1,219,220
 1032 377 1032 377 1021 367 c 0,221,222
 976 333 976 333 875 328 c 0,223,224
 850 327 850 327 839 326 c 0,225,226
 795 322 795 322 619 323 c 0,227,228
 446 323 446 323 383 341 c 0,229,230
 344 352 344 352 315 369 c 0,231,232
 297 381 297 381 286 394 c 0,233,234
 254 433 254 433 270 524 c 0,235,236
 271 529 271 529 272 539 c 0,237,238
 275 558 275 558 277 566 c 0,239,240
 282 617 282 617 266 615 c 0,241,242
 264 615 264 615 262 613 c 0,243,244
 247 604 247 604 229 581 c 0,245,246
 203 548 203 548 167 474 c 1,247,248
 85 297 85 297 127 167 c 0,249,250
 151 97 151 97 208 61 c 0,251,252
 279 17 279 17 399 5 c 1,253,254
 548 -12 548 -12 703 15 c 1,255,256
 853 39 853 39 952 105 c 0,257,258
 1096 201 1096 201 1158 389 c 0,259,260
 1206 534 1206 534 1179 654 c 0,261,262
 1161 735 1161 735 1122 777 c 1,201,202
EndSplineSet
AlternateSubs2: "gsub_alternate_dfl_aalt_arab_FAR_Lookup_01_Subtable_01" uniFE9A uniFE9B afii57419 uniFE9C
Substitution2: "gsub_single_rtl_fina_arab_FAR_Lookup_01_Subtable_01" uniFE9A
Substitution2: "gsub_single_rtl_init_arab_FAR_Lookup_01_Subtable_01" uniFE9B
Substitution2: "gsub_single_rtl_medi_arab_FAR_Lookup_01_Subtable_01" uniFE9C
EndChar

StartChar: uniFE9A
Encoding: 65178 65178 362
Width: 1212
VWidth: 1639
GlyphClass: 2
Flags: HW
AnchorPoint: "GposMark2BaseAnchorClassErabAbove_01_02" 662.5 1268 basechar 0
AnchorPoint: "GposMark2BaseAnchorClassErabBelow_01_02" 662.5 -223 basechar 0
LayerCount: 2
Fore
SplineSet
676 994 m 1,0,1
 669 1006 669 1006 689 1023 c 2,2,3
 753 1079 l 2,4,5
 757 1082 757 1082 765 1090 c 0,6,7
 788 1111 788 1111 798 1115 c 0,8,9
 808 1118 808 1118 832 1114 c 2,10,-1
 833 1114 l 2,11,12
 835 1114 835 1114 838 1115 c 0,13,14
 845 1116 845 1116 849 1115 c 0,15,16
 859 1112 859 1112 881 1075 c 0,17,18
 883 1073 883 1073 884 1071 c 0,19,20
 887 1066 887 1066 896 1055 c 0,21,22
 919 1026 919 1026 924 1012 c 0,23,24
 926 1012 926 1012 923 1003 c 2,25,-1
 920 994 l 1,26,-1
 911 954 l 1,27,28
 905 945 905 945 883 927 c 1,29,-1
 888 922 l 1,30,-1
 889 922 l 1,31,32
 903 935 903 935 918 912 c 2,33,-1
 919 910 l 2,34,35
 928 898 928 898 944 875 c 0,36,37
 961 851 961 851 970 840 c 0,38,39
 983 816 983 816 972 805 c 1,40,-1
 972 804 l 1,41,42
 977 793 977 793 967 782 c 1,43,-1
 967 781 l 1,44,45
 974 768 974 768 946 745 c 0,46,47
 933 734 933 734 906 709 c 0,48,49
 879 685 879 685 866 674 c 0,50,51
 844 655 844 655 837 659 c 0,52,53
 834 662 834 662 833 664 c 1,54,-1
 831 664 l 1,55,56
 818 654 818 654 812 664 c 1,57,-1
 810 664 l 1,58,59
 797 653 797 653 784 671 c 0,60,61
 779 679 779 679 767 692 c 0,62,63
 745 719 745 719 738 735 c 1,64,-1
 736 735 l 1,65,66
 723 721 723 721 665 671 c 1,67,68
 644 656 644 656 636 664 c 1,69,-1
 635 664 l 1,70,71
 623 656 623 656 615 664 c 1,72,-1
 613 664 l 1,73,74
 609 661 609 661 606 660 c 128,-1,75
 603 659 603 659 601 660 c 128,-1,76
 599 661 599 661 595.5 663.5 c 128,-1,77
 592 666 592 666 591 666.5 c 128,-1,78
 590 667 590 667 586 672 c 2,79,-1
 582 676 l 1,80,81
 566 697 566 697 537 738 c 0,82,83
 535 740 535 740 531 745 c 0,84,85
 520 758 520 758 519 766 c 0,86,87
 519 769 519 769 522 774 c 0,88,89
 524 779 524 779 524 781 c 0,90,91
 525 785 525 785 526 795 c 0,92,93
 528 812 528 812 531 818 c 0,94,95
 535 826 535 826 554 841 c 2,96,-1
 603 884 l 2,97,98
 607 888 607 888 617 896 c 0,99,100
 641 918 641 918 652 925 c 0,101,102
 657 927 657 927 666 927 c 0,103,104
 676 927 676 927 680 928 c 1,105,106
 654 944 654 944 664 962 c 0,107,108
 666 966 666 966 670 969 c 1,109,-1
 670 971 l 1,110,111
 663 982 663 982 675 992 c 1,112,-1
 676 994 l 1,0,1
861 982 m 1,113,-1
 825 1033 l 1,114,-1
 809 1051 l 1,115,-1
 787 1035 l 1,116,-1
 726 981 l 1,117,-1
 778 910 l 1,118,-1
 780 910 l 1,119,-1
 860 981 l 1,120,-1
 861 982 l 1,113,-1
667 863 m 0,121,122
 661 862 661 862 631 835 c 0,123,124
 629 833 629 833 621 827 c 0,125,126
 590 803 590 803 587 794 c 0,127,128
 587 792 587 792 587.5 789 c 128,-1,129
 588 786 588 786 589 784 c 128,-1,130
 590 782 590 782 593 780 c 2,131,-1
 595 777 l 2,132,133
 600 770 600 770 610 758 c 0,134,135
 620 744 620 744 624 738 c 0,136,137
 635 724 635 724 638 723 c 0,138,139
 646 726 646 726 672 751 c 0,140,141
 674 753 674 753 682 759 c 0,142,143
 713 783 713 783 716 792 c 0,144,145
 716 794 716 794 715.5 797 c 128,-1,146
 715 800 715 800 714 802 c 128,-1,147
 713 804 713 804 710 806 c 2,148,-1
 708 809 l 1,149,-1
 680 848 l 2,150,151
 669 862 669 862 667 863 c 0,121,122
865 864 m 1,152,-1
 781 794 l 1,153,-1
 780 792 l 1,154,-1
 834 722 l 1,155,-1
 836 722 l 1,156,-1
 916 792 l 1,157,-1
 916 794 l 1,158,-1
 865 864 l 1,152,-1
739 794 m 1,159,-1
 737 792 l 1,160,-1
 739 794 l 1,159,-1
761 794 m 1,161,-1
 759 792 l 1,162,-1
 761 794 l 1,161,-1
1001 92 m 1,163,164
 799 -63 799 -63 456 -72 c 0,165,166
 430 -73 430 -73 402 -72 c 0,167,168
 215 -71 215 -71 132 -5 c 1,169,170
 -8 112 -8 112 113 454 c 0,171,172
 115 461 115 461 118 466 c 0,173,174
 166 602 166 602 219 641 c 1,175,176
 233 649 233 649 259 649 c 0,177,178
 306 649 306 649 316 639 c 0,179,180
 320 633 320 633 323 628 c 0,181,182
 329 608 329 608 318 536 c 0,183,184
 315 516 315 516 315 503 c 0,185,186
 314 457 314 457 326 431 c 0,187,188
 351 376 351 376 437 354 c 0,189,190
 527 329 527 329 678 341 c 0,191,192
 860 353 860 353 993 420 c 1,193,194
 1067 459 1067 459 1152 531 c 0,195,196
 1156 535 1156 535 1166 545 c 0,197,198
 1210 585 1210 585 1230 589 c 1,199,200
 1281 593 1281 593 1295 584 c 0,201,202
 1322 563 1322 563 1285 473 c 0,203,204
 1284 469 1284 469 1283 467 c 0,205,206
 1272 442 1272 442 1263 425 c 0,207,208
 1256 410 1256 410 1256 408 c 0,209,210
 1259 400 1259 400 1274 400 c 0,211,212
 1286 398 1286 398 1333 399 c 1,213,-1
 1322 353 l 1,214,215
 1312 353 1312 353 1292 352 c 0,216,217
 1242 350 1242 350 1219 354 c 0,218,219
 1194 359 1194 359 1189 371 c 1,220,221
 1189 376 1189 376 1195 387 c 0,222,223
 1196 389 1196 389 1194 393 c 0,224,225
 1194 397 1194 397 1194 399 c 0,226,227
 1195 401 1195 401 1197 405 c 0,228,229
 1199 409 1199 409 1200 410 c 0,230,231
 1201 412 1201 412 1200 416 c 0,232,233
 1200 420 1200 420 1199 421 c 0,234,235
 1201 426 1201 426 1216 446 c 1,236,237
 1227 464 1227 464 1242 495 c 1,238,239
 1255 531 1255 531 1243 531 c 0,240,241
 1238 531 1238 531 1224 519 c 2,242,-1
 1221 517 l 1,243,-1
 1170 472 l 2,244,245
 1086 400 1086 400 1010 366 c 0,246,247
 838 291 838 291 594 290 c 0,248,249
 473 290 473 290 415 300 c 0,250,251
 293 322 293 322 268 392 c 1,252,253
 257 432 257 432 269 522 c 1,254,255
 272 568 272 568 268 582 c 0,256,257
 262 598 262 598 252 594 c 0,258,259
 231 582 231 582 212 549 c 0,260,261
 182 501 182 501 157 440 c 0,262,263
 81 245 81 245 134 116 c 0,264,265
 161 54 161 54 215 21 c 1,266,267
 313 -33 313 -33 471 -25 c 0,268,269
 680 -16 680 -16 842 62 c 0,270,271
 899 90 899 90 944 121 c 0,272,273
 953 127 953 127 971 141 c 0,274,275
 994 159 994 159 1005 166 c 1,276,-1
 1006 153 l 1,277,-1
 1026 166 l 1,278,-1
 1027 153 l 1,279,-1
 1047 166 l 1,280,281
 1063 71 1063 71 1137 36 c 0,282,283
 1148 31 1148 31 1159 28 c 0,284,285
 1182 23 1182 23 1246 23 c 1,286,-1
 1236 -23 l 1,287,288
 1119 -23 1119 -23 1081 -7 c 0,289,290
 1040 11 1040 11 1019 49 c 0,291,292
 1004 76 1004 76 1001 92 c 1,163,164
EndSplineSet
EndChar

StartChar: uniFE9B
Encoding: 65179 65179 363
Width: 515
VWidth: 1639
GlyphClass: 2
Flags: HW
AnchorPoint: "GposMark2BaseAnchorClassErabAbove_01_02" 297 1534 basechar 0
AnchorPoint: "GposMark2BaseAnchorClassErabBelow_01_02" 297 -174 basechar 0
LayerCount: 2
Fore
SplineSet
357 1194 m 1,0,1
 340 1219 l 2,2,3
 339 1223 339 1223 342 1229 c 0,4,5
 344 1235 344 1235 345 1238 c 2,6,-1
 353 1276 l 1,7,8
 359 1284 359 1284 375 1297 c 2,9,-1
 423 1338 l 2,10,11
 427 1341 427 1341 435 1350 c 0,12,13
 465 1378 465 1378 477 1383 c 0,14,15
 483 1384 483 1384 494.5 1382 c 128,-1,16
 506 1380 506 1380 512 1381 c 2,17,-1
 529 1381 l 1,18,19
 535 1377 535 1377 555 1347 c 0,20,21
 558 1343 558 1343 559 1342 c 0,22,23
 564 1335 564 1335 574 1321 c 0,24,25
 584 1307 584 1307 588 1301 c 0,26,27
 602 1285 602 1285 604 1278 c 1,28,29
 604 1269 604 1269 595 1260 c 1,30,31
 600 1249 600 1249 590 1238 c 1,32,-1
 590 1237 l 1,33,34
 599 1221 599 1221 562 1196 c 1,35,-1
 562 1194 l 1,36,37
 565 1192 565 1192 572 1194 c 0,38,39
 581 1194 581 1194 584 1192 c 0,40,41
 592 1186 592 1186 607 1164 c 0,42,43
 613 1156 613 1156 624 1141 c 0,44,45
 636 1125 636 1125 642 1117 c 0,46,47
 659 1093 659 1093 659 1091 c 0,48,49
 659 1080 659 1080 651 1073 c 1,50,-1
 651 1071 l 1,51,52
 656 1060 656 1060 646 1050 c 1,53,-1
 646 1048 l 1,54,55
 656 1037 656 1037 629 1015 c 2,56,-1
 627 1014 l 2,57,58
 616 1004 616 1004 593 984 c 0,59,60
 570 964 570 964 560 954 c 0,61,62
 532 931 532 931 528 928 c 1,63,64
 523 927 523 927 510 928 c 0,65,66
 505 927 505 927 499 928 c 0,67,68
 493 928 493 928 490 928 c 0,69,70
 487 928 487 928 483 927 c 0,71,72
 477 926 477 926 474 927 c 0,73,74
 467 932 467 932 454 951 c 0,75,76
 450 957 450 957 440 968 c 0,77,78
 422 990 422 990 417 1002 c 1,79,-1
 415 1002 l 1,80,81
 404 990 404 990 356 950 c 0,82,83
 354 948 354 948 349 943 c 0,84,85
 336 931 336 931 330 928 c 0,86,87
 320 925 320 925 293 930 c 1,88,-1
 274 930 l 1,89,90
 259 942 259 942 216 1006 c 0,91,92
 213 1010 213 1010 212 1012 c 0,93,94
 199 1031 199 1031 199 1035 c 0,95,96
 199 1042 199 1042 206 1048 c 1,97,-1
 207 1050 l 1,98,99
 201 1060 201 1060 212 1071 c 1,100,-1
 212 1073 l 1,101,102
 202 1084 202 1084 229 1105 c 0,103,-1
 231 1107 l 2,104,105
 245 1119 245 1119 273 1143 c 0,106,107
 302 1167 302 1167 316 1179 c 0,108,109
 342 1198 342 1198 349 1189 c 1,110,-1
 350 1189 l 1,111,-1
 357 1194 l 1,0,1
540 1250 m 1,112,113
 531 1259 531 1259 515 1281 c 0,114,115
 505 1295 505 1295 501 1301 c 0,116,117
 490 1317 490 1317 488 1317 c 0,118,119
 482 1317 482 1317 466 1302 c 0,120,121
 410 1253 410 1253 405 1248 c 1,122,-1
 442 1197 l 1,123,-1
 458 1179 l 1,124,-1
 480 1196 l 1,125,-1
 540 1250 l 1,112,113
348 1132 m 1,126,-1
 287 1082 l 1,127,-1
 266 1063 l 1,128,-1
 274 1045 l 1,129,-1
 304 1004 l 1,130,-1
 318 992 l 1,131,-1
 341 1010 l 1,132,-1
 397 1059 l 1,133,-1
 397 1061 l 1,134,-1
 348 1132 l 1,126,-1
544 1132 m 1,135,-1
 484 1082 l 1,136,-1
 462 1061 l 1,137,-1
 474 1040 l 1,138,-1
 513 989 l 1,139,-1
 514 989 l 1,140,-1
 595 1059 l 1,141,-1
 595 1061 l 1,142,-1
 544 1132 l 1,135,-1
233 405 m 1,143,144
 217 448 217 448 166 517 c 0,145,146
 164 520 164 520 156 527 c 0,147,148
 136 550 136 550 137 563 c 1,149,150
 149 612 149 612 151 615 c 0,151,152
 159 632 159 632 207 683 c 0,153,154
 212 688 212 688 214 690 c 0,155,156
 232 711 232 711 269 754 c 0,157,158
 307 797 307 797 324 818 c 0,159,160
 327 822 327 822 335 832 c 0,161,162
 359 863 359 863 372 866 c 0,163,164
 378 868 378 868 394 866 c 0,165,166
 402 865 402 865 405 864 c 0,167,168
 408 863 408 863 413 865 c 0,169,170
 421 865 421 865 424 863 c 0,171,172
 431 855 431 855 449 817 c 1,173,174
 472 755 472 755 479 697 c 0,175,176
 491 589 491 589 453 425 c 0,177,178
 428 320 428 320 403 249 c 0,179,180
 353 111 353 111 276 49 c 0,181,182
 187 -23 187 -23 21 -24 c 0,183,184
 5 -24 5 -24 -27 -23 c 0,185,186
 -53 -23 -53 -23 -65 -23 c 1,187,-1
 -55 23 l 1,188,189
 92 23 92 23 159 48 c 0,190,191
 206 66 206 66 243 95 c 0,192,193
 314 154 314 154 363 272 c 1,194,195
 444 476 444 476 425 648 c 0,196,197
 417 712 417 712 399 759 c 1,198,199
 381 796 381 796 379 799 c 1,200,201
 373 790 373 790 325 734 c 0,202,203
 321 729 321 729 318 727 c 0,204,205
 275 679 275 679 198 589 c 1,206,207
 207 583 207 583 228 553 c 0,208,209
 264 502 264 502 277 474 c 0,210,211
 294 439 294 439 288 418 c 0,212,213
 286 413 286 413 284 402 c 0,214,215
 276 368 276 368 264 359 c 1,216,217
 244 350 244 350 191 353 c 1,218,-1
 21 353 l 1,219,-1
 32 399 l 1,220,-1
 146 399 l 2,221,222
 209 399 209 399 233 405 c 1,143,144
EndSplineSet
EndChar

StartChar: uniFE9C
Encoding: 65180 65180 364
Width: 424
VWidth: 1639
GlyphClass: 2
Flags: HW
AnchorPoint: "GposMark2BaseAnchorClassErabAbove_01_02" 282.5 1376 basechar 0
AnchorPoint: "GposMark2BaseAnchorClassErabBelow_01_02" 282.5 -178 basechar 0
LayerCount: 2
Fore
SplineSet
328 1027 m 1,0,1
 326 1031 326 1031 321 1038 c 0,2,3
 313 1049 313 1049 312 1055 c 0,4,5
 312 1056 312 1056 317 1073 c 1,6,7
 319 1101 319 1101 324 1110 c 0,8,9
 331 1124 331 1124 380 1161 c 0,10,11
 386 1165 386 1165 388 1168 c 0,12,13
 391 1171 391 1171 400 1179 c 0,14,15
 448 1226 448 1226 462 1212 c 1,16,17
 475 1221 475 1221 482 1212 c 1,18,-1
 484 1212 l 1,19,20
 499 1222 499 1222 515 1200 c 0,21,22
 524 1189 524 1189 540 1165 c 0,23,24
 557 1141 557 1141 565 1130 c 1,25,26
 577 1108 577 1108 567 1097 c 1,27,-1
 567 1096 l 1,28,29
 572 1085 572 1085 562 1074 c 1,30,-1
 561 1073 l 1,31,32
 569 1061 569 1061 541 1035 c 0,33,34
 535 1029 535 1029 532 1027 c 1,35,-1
 537 1022 l 1,36,-1
 539 1022 l 1,37,38
 554 1036 554 1036 577 1000 c 0,39,40
 580 995 580 995 581 994 c 0,41,42
 587 987 587 987 597 971 c 0,43,44
 608 955 608 955 613 948 c 0,45,46
 615 946 615 946 619 941 c 0,47,48
 629 929 629 929 630 922 c 0,49,50
 630 918 630 918 621 884 c 0,51,52
 620 881 620 881 620 875 c 0,53,54
 619 867 619 867 617 864 c 0,55,56
 611 857 611 857 580 831 c 1,57,58
 568 819 568 819 523 781 c 0,59,60
 499 761 499 761 495 759 c 0,61,62
 489 757 489 757 473 760 c 0,63,64
 465 761 465 761 462 761 c 0,65,66
 460 762 460 762 455 760 c 0,67,68
 448 758 448 758 444 761 c 0,69,70
 435 767 435 767 408 806 c 0,71,72
 405 811 405 811 402 813 c 0,73,74
 390 830 390 830 390 831 c 0,75,76
 388 832 388 832 387 831 c 0,77,78
 384 831 384 831 379 828 c 128,-1,79
 374 825 374 825 369 819 c 2,80,-1
 363 813 l 2,81,82
 357 808 357 808 343 796 c 0,83,84
 315 769 315 769 302 761 c 0,85,86
 300 761 300 761 284 763 c 1,87,88
 257 759 257 759 248 761 c 0,89,90
 240 765 240 765 228 784 c 0,91,92
 223 791 223 791 211 806 c 0,93,94
 200 821 200 821 195 828 c 0,95,96
 172 857 172 857 170 866 c 0,97,98
 169 870 169 870 172 876 c 0,99,100
 174 881 174 881 174 882 c 2,101,-1
 183 922 l 1,102,103
 187 928 187 928 208 945 c 2,104,-1
 264 992 l 2,105,106
 266 994 266 994 272 1000 c 0,107,108
 310 1036 310 1036 319 1022 c 1,109,-1
 321 1022 l 1,110,-1
 328 1027 l 1,0,1
430 1012 m 1,111,112
 440 1021 440 1021 459 1038 c 0,113,114
 479 1056 479 1056 489 1064 c 0,115,116
 508 1081 508 1081 509 1084 c 0,117,118
 508 1091 508 1091 489 1115 c 0,119,120
 488 1117 488 1117 483 1124 c 0,121,122
 467 1151 467 1151 459 1153 c 0,123,124
 456 1153 456 1153 452.5 1150.5 c 128,-1,125
 449 1148 449 1148 443 1142 c 2,126,-1
 437 1137 l 1,127,128
 381 1088 381 1088 376 1082 c 1,129,-1
 428 1012 l 1,130,-1
 430 1012 l 1,111,112
369 894 m 1,131,-1
 333 945 l 1,132,-1
 318 963 l 1,133,-1
 296 946 l 1,134,-1
 234 892 l 1,135,-1
 287 822 l 1,136,-1
 288 822 l 1,137,-1
 369 892 l 1,138,-1
 369 894 l 1,131,-1
515 964 m 1,139,-1
 432 894 l 1,140,-1
 431 892 l 1,141,142
 457 859 457 859 469 843 c 0,143,144
 481 826 l 0,145,146
 483 825 483 825 484 825 c 0,147,148
 490 825 490 825 506 840 c 0,149,150
 511 844 511 844 522 853 c 0,151,152
 556 881 556 881 566 895 c 1,153,-1
 515 964 l 1,139,-1
390 894 m 1,154,-1
 388 892 l 1,155,-1
 390 894 l 1,154,-1
412 894 m 1,156,-1
 410 892 l 1,157,-1
 412 894 l 1,156,-1
32 399 m 1,158,159
 120 399 120 399 157 418 c 0,160,161
 174 428 174 428 188 441 c 0,162,163
 206 458 206 458 243 532 c 0,164,165
 248 541 248 541 251 546 c 0,166,167
 274 586 274 586 294 597 c 1,168,169
 308 602 308 602 360 602 c 1,170,171
 392 600 392 600 394 561 c 0,172,173
 395 547 395 547 395 517 c 0,174,175
 393 468 393 468 400 448 c 0,176,177
 420 398 420 398 513 398 c 0,178,179
 518 398 518 398 529 398 c 0,180,181
 540 398 540 398 544 399 c 1,182,-1
 534 353 l 1,183,184
 523 353 523 353 498 351 c 0,185,186
 390 346 390 346 360 377 c 0,187,188
 355 383 355 383 351 389 c 0,189,190
 337 411 337 411 341 485 c 0,191,192
 342 502 342 502 342 512 c 0,193,194
 338 546 338 546 324 548 c 1,195,196
 309 545 309 545 288 512 c 0,197,198
 281 500 281 500 270 474 c 0,199,200
 243 417 243 417 222 395 c 0,201,202
 174 348 174 348 69 351 c 0,203,204
 24 352 24 352 21 353 c 1,205,-1
 32 399 l 1,158,159
217 131 m 1,206,-1
 220 131 l 1,207,-1
 227 115 l 1,208,-1
 239 131 l 1,209,-1
 242 131 l 1,210,-1
 249 115 l 1,211,-1
 260 131 l 1,212,-1
 263 131 l 1,213,214
 292 36 292 36 384 23 c 1,215,216
 383 20 383 20 421 21 c 2,217,-1
 458 23 l 1,218,-1
 447 -23 l 1,219,220
 338 -23 338 -23 318 -19 c 0,221,222
 280 -11 280 -11 255 10 c 0,223,224
 229 32 229 32 224 52 c 1,225,-1
 220 52 l 1,226,227
 199 24 199 24 149 0 c 0,228,229
 92 -28 92 -28 -26 -24 c 0,230,231
 -53 -23 -53 -23 -65 -23 c 1,232,-1
 -55 23 l 1,233,234
 59 23 59 23 109 44 c 0,235,236
 146 61 146 61 178 89 c 1,237,238
 208 117 208 117 217 131 c 1,206,-1
EndSplineSet
EndChar

StartChar: afii57420
Encoding: 1580 1580 365
AltUni2: 00fe9d.ffffffff.0
Width: 941
VWidth: 1639
GlyphClass: 2
Flags: HW
AnchorPoint: "GposMark2BaseAnchorClassErabAbove_01_02" 529.5 969 basechar 0
AnchorPoint: "GposMark2BaseAnchorClassErabBelow_01_02" 529.5 -567 basechar 0
LayerCount: 2
Fore
SplineSet
453 467 m 1,0,1
 360 484 360 484 299 456 c 0,2,3
 285 449 285 449 237 408 c 0,4,5
 215 390 215 390 200 382 c 0,6,7
 181 372 181 372 133 377 c 0,8,9
 131 377 l 2,10,-1
 130 377 l 1,11,12
 93 381 93 381 110 448 c 0,13,14
 111 451 111 451 113 457 c 0,15,16
 116 468 116 468 117 472 c 0,17,18
 148 607 148 607 248 717 c 0,19,20
 259 729 259 729 270 738 c 0,21,22
 305 768 305 768 322 779 c 0,23,24
 387 819 387 819 501 814 c 0,25,26
 508 814 508 814 517 813 c 0,27,28
 571 810 571 810 678 799 c 0,29,30
 824 783 824 783 899 782 c 2,31,-1
 1058 782 l 1,32,33
 1104 780 1104 780 1102 764 c 1,34,35
 1092 701 1092 701 1019 565 c 0,36,37
 1008 544 1008 544 1001 531 c 2,38,-1
 975 477 l 1,39,40
 964 459 964 459 963 458 c 0,41,42
 961 456 961 456 958.5 456 c 128,-1,43
 956 456 956 456 952 456 c 2,44,-1
 947 456 l 1,45,-1
 908 456 l 2,46,47
 834 456 834 456 776 441 c 0,48,49
 596 398 596 398 480 265 c 0,50,51
 410 184 410 184 383 87 c 0,52,53
 375 58 375 58 376 10 c 0,54,55
 377 -40 377 -40 394 -77 c 0,56,57
 443 -181 443 -181 625 -189 c 0,58,59
 650 -190 650 -190 734 -190 c 0,60,61
 830 -190 830 -190 837 -191 c 0,62,63
 853 -194 853 -194 865 -198 c 0,64,65
 890 -208 890 -208 885 -241 c 0,66,67
 884 -247 884 -247 883 -253 c 0,68,69
 871 -309 871 -309 833 -338 c 1,70,71
 754 -393 754 -393 590 -410 c 0,72,73
 534 -417 534 -417 428 -417 c 0,74,75
 177 -417 177 -417 69 -313 c 0,76,77
 67 -311 67 -311 66 -310 c 0,78,79
 -45 -199 -45 -199 5 20 c 0,80,81
 38 158 38 158 115 248 c 0,82,83
 206 352 206 352 370 431 c 0,84,85
 384 438 384 438 411 449 c 0,86,87
 440 461 440 461 453 467 c 1,0,1
1046 731 m 1,88,89
 1028 737 1028 737 955 736 c 2,90,-1
 782 736 l 2,91,92
 753 737 753 737 581 758 c 0,93,94
 553 761 553 761 531 763 c 0,95,96
 433 772 433 772 382 749 c 1,97,98
 279 699 279 699 186 530 c 1,99,100
 153 462 153 462 159 441 c 0,101,102
 163 432 163 432 169 428 c 1,103,104
 183 437 183 437 208 458 c 0,105,106
 255 496 255 496 282 508 c 0,107,108
 319 523 319 523 397 523 c 0,109,110
 432 523 432 523 586 503 c 0,111,112
 590 503 590 503 592 502 c 1,113,-1
 591 500 l 1,114,-1
 547 485 l 1,115,-1
 546 484 l 1,116,-1
 586 479 l 1,117,-1
 586 477 l 1,118,-1
 541 462 l 1,119,-1
 541 461 l 1,120,-1
 581 456 l 1,121,-1
 581 454 l 1,122,123
 554 449 554 449 498 426 c 2,124,-1
 496 425 l 1,125,126
 389 383 389 383 323 343 c 0,127,128
 117 222 117 222 60 57 c 0,129,130
 54 39 54 39 50 23 c 0,131,132
 38 -24 38 -24 40 -77 c 0,133,134
 44 -128 44 -128 56 -167 c 1,135,136
 78 -222 78 -222 113 -257 c 0,137,138
 230 -380 230 -380 491 -369 c 0,139,140
 646 -362 646 -362 741 -323 c 1,141,142
 809 -293 809 -293 827 -267 c 0,143,144
 837 -252 837 -252 809 -243 c 0,145,146
 801 -240 801 -240 793 -239 c 0,147,148
 753 -234 753 -234 641 -236 c 1,149,150
 452 -236 452 -236 384 -181 c 0,151,152
 343 -147 343 -147 329 -93 c 0,153,154
 322 -61 322 -61 322 -20 c 1,155,156
 325 44 325 44 351 134 c 0,157,158
 403 310 403 310 575 417 c 0,159,160
 660 469 660 469 752 489 c 0,161,162
 811 502 811 502 878 502 c 0,163,164
 881 502 881 502 891 501 c 0,165,166
 922 499 922 499 931 503 c 0,167,168
 935 506 935 506 941 520 c 2,169,-1
 963 563 l 2,170,171
 972 582 972 582 993 621 c 0,172,173
 1033 695 1033 695 1046 731 c 1,88,89
554 107 m 1,174,175
 545 122 545 122 590 158 c 0,176,177
 594 161 594 161 596 162 c 0,178,179
 640 200 640 200 661 220 c 1,180,181
 688 242 688 242 692 244 c 0,182,183
 699 246 699 246 707 243 c 1,184,185
 713 243 713 243 726 244 c 0,186,187
 737 246 737 246 742 246 c 0,188,189
 750 246 750 246 758 234 c 2,190,-1
 760 231 l 2,191,192
 765 224 765 224 775 211 c 0,193,194
 785 197 785 197 790 190 c 0,195,196
 795 183 795 183 805 169 c 0,197,198
 816 154 816 154 821 148 c 0,199,200
 835 132 835 132 837 125 c 0,201,202
 837 122 837 122 831 107 c 0,203,204
 830 103 830 103 830 93 c 0,205,206
 829 77 829 77 825 71 c 0,207,208
 821 57 821 57 772 19 c 0,209,210
 767 15 767 15 764 13 c 2,211,-1
 709 -34 l 2,212,213
 685 -54 685 -54 681 -56 c 0,214,215
 671 -59 671 -59 648 -54 c 2,216,-1
 646 -54 l 2,217,218
 644 -54 644 -54 639 -56 c 0,219,220
 631 -57 631 -57 628 -56 c 0,221,222
 619 -49 619 -49 601 -21 c 0,223,224
 593 -10 593 -10 576 12 c 0,225,226
 559 35 559 35 552 46 c 0,227,228
 539 70 539 70 549 84 c 1,229,230
 544 95 544 95 553 105 c 1,231,-1
 554 107 l 1,174,175
773 97 m 1,232,233
 762 108 762 108 727 157 c 0,234,235
 710 180 710 180 707 182 c 0,236,237
 704 182 704 182 699.5 179.5 c 128,-1,238
 695 177 695 177 689 171 c 2,239,-1
 683 166 l 2,240,241
 662 146 662 146 626 115 c 0,242,243
 607 98 607 98 606 95 c 0,244,245
 604 87 604 87 630 58 c 0,246,247
 632 55 632 55 633 54 c 0,248,249
 635 51 635 51 641 42 c 0,250,251
 659 12 659 12 668 8 c 0,252,253
 674 6 674 6 691 23 c 0,254,255
 693 24 693 24 695 26 c 2,256,-1
 696 28 l 1,257,258
 703 34 703 34 719 46 c 0,259,260
 761 79 761 79 773 97 c 1,232,233
EndSplineSet
AlternateSubs2: "gsub_alternate_dfl_aalt_arab_FAR_Lookup_01_Subtable_01" uniFE9E uniFE9F afii57420 uniFEA0
Substitution2: "gsub_single_rtl_fina_arab_FAR_Lookup_01_Subtable_01" uniFE9E
Substitution2: "gsub_single_rtl_init_arab_FAR_Lookup_01_Subtable_01" uniFE9F
Substitution2: "gsub_single_rtl_medi_arab_FAR_Lookup_01_Subtable_01" uniFEA0
EndChar

StartChar: uniFE9E
Encoding: 65182 65182 366
Width: 858
VWidth: 1639
GlyphClass: 2
Flags: HW
AnchorPoint: "GposMark2BaseAnchorClassErabAbove_01_02" 550.5 990 basechar 0
AnchorPoint: "GposMark2BaseAnchorClassErabBelow_01_02" 550.5 -576 basechar 0
LayerCount: 2
Fore
SplineSet
476 469 m 1,0,1
 463 469 463 469 438 473 c 0,2,3
 371 481 371 481 336 466 c 0,4,5
 306 453 306 453 254 412 c 0,6,7
 216 383 216 383 206 379 c 0,8,9
 199 377 199 377 167 379 c 0,10,11
 144 380 144 380 139 384 c 0,12,13
 127 396 127 396 129 421 c 0,14,15
 132 469 132 469 155 531 c 1,16,17
 175 581 175 581 213 638 c 0,18,19
 338 822 338 822 461 833 c 1,20,21
 552 840 552 840 731 799 c 0,22,23
 761 792 761 792 780 789 c 0,24,25
 834 777 834 777 939 764 c 0,26,27
 955 763 955 763 1073 764 c 0,28,29
 1120 764 1120 764 1126 762 c 0,30,31
 1129 760 1129 760 1130 759 c 0,32,33
 1137 751 1137 751 1130 733 c 1,34,35
 1119 685 1119 685 1116 681 c 0,36,37
 1096 641 1096 641 1016 499 c 0,38,39
 1012 491 1012 491 1003 475 c 0,40,41
 994 459 994 459 990 451 c 0,42,43
 982 434 982 434 978 430 c 0,44,45
 974 426 974 426 937 426 c 0,46,47
 932 426 932 426 929 425 c 1,48,49
 970 405 970 405 971 405 c 0,50,51
 999 398 999 398 1096 399 c 1,52,-1
 1085 353 l 1,53,-1
 1035 353 l 2,54,55
 934 353 934 353 907 362 c 0,56,57
 860 380 860 380 855 426 c 1,58,-1
 864 426 l 1,59,-1
 860 449 l 1,60,-1
 869 449 l 1,61,-1
 866 472 l 1,62,-1
 920 472 l 1,63,-1
 944 474 l 1,64,-1
 955 492 l 1,65,-1
 982 540 l 1,66,-1
 1078 713 l 1,67,68
 1057 718 1057 718 994 718 c 0,69,70
 878 718 878 718 847 722 c 0,71,72
 810 726 810 726 619 765 c 0,73,74
 600 769 600 769 584 772 c 0,75,76
 493 791 493 791 451 779 c 0,77,78
 443 776 443 776 436 774 c 0,79,80
 321 724 321 724 215 543 c 0,81,82
 183 491 183 491 183 462 c 0,83,84
 184 441 184 441 188 438 c 1,85,86
 195 435 195 435 220 457 c 2,87,-1
 222 459 l 1,88,89
 290 508 290 508 319 517 c 0,90,91
 353 527 353 527 424 523 c 0,92,93
 452 522 452 522 509 515 c 0,94,95
 584 506 584 506 622 507 c 1,96,-1
 621 505 l 1,97,-1
 572 489 l 1,98,-1
 572 487 l 1,99,-1
 617 484 l 1,100,-1
 616 482 l 1,101,-1
 567 466 l 1,102,-1
 566 464 l 1,103,-1
 611 461 l 1,104,-1
 611 459 l 1,105,106
 464 417 464 417 309 330 c 1,107,108
 122 220 122 220 61 62 c 0,109,110
 54 44 54 44 49 26 c 0,111,112
 38 -15 38 -15 40 -66 c 0,113,114
 43 -112 43 -112 51 -143 c 0,115,116
 66 -193 66 -193 89 -223 c 0,117,118
 206 -373 206 -373 462 -381 c 0,119,120
 520 -383 520 -383 578 -376 c 0,121,122
 713 -361 713 -361 782 -318 c 0,123,124
 810 -302 810 -302 813 -292 c 0,125,126
 815 -284 815 -284 801 -276 c 2,127,-1
 800 -276 l 2,128,129
 782 -266 782 -266 745 -262 c 0,130,131
 717 -260 717 -260 659 -259 c 0,132,133
 498 -255 498 -255 432 -221 c 0,134,135
 408 -209 408 -209 388 -194 c 0,136,137
 296 -117 296 -117 337 61 c 0,138,139
 354 132 354 132 366 166 c 1,140,141
 416 288 416 288 523 364 c 0,142,143
 602 421 602 421 764 468 c 2,144,-1
 765 468 l 1,145,-1
 767 469 l 1,146,-1
 769 469 l 1,147,-1
 770 470 l 1,148,-1
 772 470 l 1,149,-1
 774 471 l 2,150,151
 785 474 785 474 790 476 c 1,152,-1
 787 469 l 1,153,-1
 811 476 l 1,154,-1
 808 469 l 1,155,-1
 833 476 l 1,156,-1
 822 451 l 1,157,-1
 827 453 l 1,158,-1
 817 428 l 1,159,-1
 822 430 l 1,160,161
 755 285 755 285 781 162 c 0,162,163
 801 78 801 78 862 43 c 1,164,165
 906 23 906 23 1009 23 c 1,166,-1
 998 -23 l 1,167,168
 877 -23 877 -23 846 -15 c 0,169,170
 799 -2 799 -2 771 28 c 1,171,172
 764 0 764 0 762 -3 c 0,173,174
 755 -16 755 -16 711 -50 c 0,175,176
 705 -55 705 -55 702 -57 c 2,177,-1
 647 -105 l 2,178,179
 623 -125 623 -125 619 -126.5 c 128,-1,180
 615 -128 615 -128 610 -127 c 0,181,182
 605 -126 605 -126 602 -126 c 2,183,-1
 567 -126 l 1,184,185
 559 -122 559 -122 545 -102 c 0,186,187
 539 -93 539 -93 526 -75 c 0,188,189
 513 -57 513 -57 507 -49 c 0,190,191
 505 -46 505 -46 499 -39 c 0,192,193
 481 -16 481 -16 479 -5 c 0,194,195
 479 -2 479 -2 485 11 c 1,196,197
 488 41 488 41 492 51 c 0,198,199
 498 60 498 60 520 79 c 0,200,201
 530 88 530 88 551 106 c 0,202,203
 572 125 572 125 581 133 c 0,204,205
 584 136 584 136 593 144 c 0,206,207
 622 172 622 172 633 174 c 0,208,209
 635 174 635 174 647 172 c 2,210,-1
 686 172 l 1,211,212
 696 165 696 165 727 121 c 1,213,214
 726 130 726 130 724 148 c 0,215,216
 721 179 721 179 720 194 c 0,217,218
 720 240 720 240 741 330 c 0,219,220
 756 394 756 394 765 413 c 1,221,222
 613 378 613 378 504 277 c 0,223,224
 494 268 494 268 487 259 c 0,225,226
 385 148 385 148 377 19 c 0,227,228
 374 -55 374 -55 407 -108 c 1,229,230
 430 -140 430 -140 457 -159 c 0,231,232
 524 -204 524 -204 684 -214 c 0,233,234
 724 -217 724 -217 729 -216 c 0,235,236
 741 -217 741 -217 767 -217 c 0,237,238
 839 -216 839 -216 862 -236 c 1,239,240
 873 -248 873 -248 865 -284 c 0,241,242
 856 -321 856 -321 854 -326 c 0,243,244
 839 -355 839 -355 786 -380 c 1,245,246
 674 -426 674 -426 512 -426 c 0,247,248
 270 -426 270 -426 146 -362 c 0,249,250
 140 -359 140 -359 136 -356 c 0,251,252
 66 -317 66 -317 32 -266 c 1,253,254
 -36 -158 -36 -158 5 23 c 0,255,256
 34 144 34 144 94 223 c 1,257,258
 192 345 192 345 378 426 c 0,259,260
 459 462 459 462 475 467 c 1,261,-1
 476 469 l 1,0,1
728 121 m 1,262,-1
 726 120 l 1,263,-1
 728 121 l 1,262,-1
645 113 m 1,264,265
 626 101 626 101 557 38 c 0,266,267
 548 30 548 30 543 25 c 1,268,-1
 542 23 l 1,269,-1
 606 -66 l 1,270,-1
 607 -66 l 1,271,-1
 710 23 l 1,272,-1
 710 25 l 1,273,-1
 645 113 l 1,264,265
EndSplineSet
EndChar

StartChar: uniFE9F
Encoding: 65183 65183 367
Width: 1100
VWidth: 1639
GlyphClass: 2
Flags: HW
AnchorPoint: "GposMark2BaseAnchorClassErabAbove_01_02" 529.5 991 basechar 0
AnchorPoint: "GposMark2BaseAnchorClassErabBelow_01_02" 529.5 -569 basechar 0
LayerCount: 2
Fore
SplineSet
527 426 m 1,0,1
 511 430 511 430 432 471 c 0,2,3
 416 479 416 479 404 484 c 0,4,5
 369 500 369 500 356 500 c 0,6,7
 332 498 332 498 271 457 c 0,8,9
 251 444 251 444 238 438 c 1,10,11
 220 432 220 432 189 435 c 0,12,13
 161 436 161 436 152 443 c 0,14,15
 140 456 140 456 148 489 c 0,16,17
 164 555 164 555 176 579 c 0,18,19
 202 627 202 627 260 692 c 0,20,21
 369 815 369 815 465 838 c 0,22,23
 484 841 484 841 517 841 c 0,24,25
 571 841 571 841 585 838 c 0,26,27
 660 822 660 822 770 733 c 0,28,29
 848 670 848 670 888 648 c 1,30,31
 935 625 935 625 1015 604 c 1,32,33
 1075 591 1075 591 1076 589 c 0,34,35
 1082 586 1082 586 1085 584 c 0,36,37
 1093 577 1093 577 1082 539 c 0,38,39
 1080 533 1080 533 1080 530 c 0,40,41
 1079 515 1079 515 1049 467 c 0,42,43
 1047 464 1047 464 1046 462 c 0,44,45
 1033 441 1033 441 1006 399 c 0,46,47
 979 357 979 357 967 336 c 2,48,-1
 935 287 l 2,49,50
 926 272 926 272 924 271 c 0,51,52
 921 269 921 269 918 269 c 128,-1,53
 915 269 915 269 908 269 c 2,54,-1
 902 269 l 2,55,56
 872 269 872 269 858 267 c 0,57,58
 774 258 774 258 717 233 c 0,59,60
 660 208 660 208 535 117 c 0,61,62
 447 54 447 54 394 30 c 0,63,64
 274 -26 274 -26 73 -24 c 0,65,66
 58 -24 58 -24 29 -24 c 0,67,68
 -14 -23 -14 -23 -34 -23 c 1,69,-1
 -24 23 l 1,70,71
 166 23 166 23 241 38 c 0,72,73
 316 53 316 53 381 85 c 0,74,75
 429 109 429 109 554 199 c 0,76,77
 630 253 630 253 680 277 c 0,78,79
 745 307 745 307 826 313 c 0,80,81
 843 315 843 315 873 315 c 0,82,83
 889 316 889 316 892 318 c 0,84,85
 904 328 904 328 933 380 c 1,86,87
 1000 486 1000 486 1032 538 c 1,88,89
 1005 549 1005 549 946 564 c 0,90,91
 881 581 881 581 852 594 c 0,92,93
 808 612 808 612 709 687 c 0,94,95
 615 759 615 759 583 774 c 0,96,97
 579 776 579 776 576 777 c 0,98,99
 533 796 533 796 505 794 c 1,100,101
 384 770 384 770 252 597 c 1,102,103
 197 527 197 527 199 503 c 0,104,105
 200 497 200 497 202 494 c 0,106,107
 210 486 210 486 238 503 c 0,108,109
 304 543 304 543 340 549 c 0,110,111
 415 558 415 558 532 497 c 0,112,113
 561 482 561 482 565 479 c 0,114,115
 573 475 573 475 589 467 c 0,116,117
 605 459 605 459 613 456 c 0,118,119
 628 448 628 448 631 443 c 1,120,-1
 605 435 l 1,121,-1
 626 420 l 1,122,-1
 600 412 l 1,123,-1
 621 397 l 1,124,125
 603 393 603 393 569 384 c 0,126,127
 515 370 515 370 488 366 c 0,128,129
 370 350 370 350 139 352 c 0,130,131
 81 353 81 353 52 353 c 1,132,-1
 63 399 l 1,133,134
 316 399 316 399 380 403 c 0,135,136
 404 405 404 405 453 414 c 0,137,138
 503 423 503 423 527 425 c 1,139,-1
 527 426 l 1,0,1
446 -116 m 0,140,141
 448 -116 448 -116 459 -118 c 0,142,143
 463 -118 463 -118 472 -117 c 0,144,145
 490 -115 490 -115 496 -116 c 0,146,147
 501 -118 501 -118 517 -138 c 0,148,149
 532 -158 532 -158 558 -194 c 0,150,151
 561 -198 561 -198 568 -206 c 0,152,153
 586 -227 586 -227 587 -238 c 0,154,155
 587 -242 587 -242 583 -254 c 0,156,157
 582 -259 582 -259 581 -268 c 0,158,159
 579 -283 579 -283 576 -290 c 0,160,161
 572 -298 572 -298 552 -315 c 2,162,-1
 492 -367 l 1,163,-1
 450 -403 l 2,164,165
 434 -416 434 -416 430 -418 c 0,166,167
 424 -419 424 -419 409 -417 c 0,168,169
 399 -415 399 -415 395 -415 c 0,170,171
 381 -419 381 -419 378 -417 c 0,172,173
 368 -410 368 -410 340 -367 c 0,174,175
 338 -364 338 -364 337 -362 c 0,176,177
 307 -319 307 -319 307 -320 c 1,178,179
 294 -305 294 -305 292 -295 c 0,180,181
 292 -294 292 -294 297 -277 c 1,182,183
 301 -247 301 -247 306 -238 c 0,184,185
 312 -229 312 -229 336 -208 c 0,186,187
 346 -200 346 -200 365 -183 c 0,188,189
 385 -165 385 -165 394 -157 c 0,190,191
 397 -154 397 -154 405 -147 c 0,192,193
 434 -120 434 -120 446 -116 c 0,140,141
355 -267 m 1,194,195
 360 -271 360 -271 393 -319 c 0,196,197
 399 -326 399 -326 402 -331 c 0,198,199
 417 -352 417 -352 419 -353 c 0,200,201
 422 -353 422 -353 426.5 -350.5 c 128,-1,202
 431 -348 431 -348 436 -342 c 2,203,-1
 442 -336 l 1,204,-1
 501 -285 l 2,205,206
 520 -268 520 -268 521 -266 c 0,207,208
 523 -259 523 -259 498 -230 c 0,209,210
 496 -227 496 -227 495 -226 c 0,211,212
 491 -220 491 -220 482 -209 c 0,213,214
 473 -197 473 -197 470 -192 c 0,215,216
 460 -179 460 -179 457 -179 c 0,217,218
 454 -179 454 -179 448.5 -183 c 128,-1,219
 443 -187 443 -187 436 -194 c 2,220,-1
 430 -200 l 1,221,222
 367 -255 367 -255 363 -258 c 0,223,224
 358 -263 358 -263 355 -267 c 1,194,195
EndSplineSet
EndChar

